{"glyphs":{"0":{"ha":676,"x_min":50,"x_max":678,"o":"m 674 624 q 669 554 676 589 q 613 436 656 488 q 565 390 592 410 q 433 325 501 343 q 199 358 307 293 q 77 533 103 417 q 110 744 51 650 q 285 889 171 849 q 301 894 293 892 q 271 894 286 894 q 249 893 261 894 q 224 890 238 892 q 201 888 211 888 q 185 902 186 886 q 197 922 183 918 q 288 932 229 932 q 413 915 353 932 q 510 881 483 896 q 589 818 550 857 q 674 624 667 742 m 588 453 q 637 643 653 535 q 539 814 621 751 q 510 833 525 824 q 433 847 474 849 q 356 835 393 846 q 214 724 267 811 q 193 538 163 639 q 245 440 213 476 q 336 385 278 404 q 440 377 385 369 q 540 413 496 385 q 588 453 568 431 z "},"1":{"ha":567,"x_min":67,"x_max":569,"o":"m 565 446 q 547 374 568 407 q 491 322 525 340 q 418 297 457 303 q 279 301 374 290 q 136 303 185 313 q 119 314 122 300 q 129 329 117 326 q 169 335 149 333 q 211 337 190 338 q 250 335 232 336 q 292 331 268 333 q 333 329 317 329 q 329 338 331 333 q 321 401 321 363 q 321 469 319 443 q 329 604 322 533 q 347 740 333 658 q 356 781 350 757 q 265 710 317 731 q 165 701 218 692 q 74 746 113 711 q 70 757 68 750 q 79 766 72 764 q 92 764 86 768 q 173 728 126 735 q 260 740 219 722 q 292 760 278 749 q 319 790 306 771 q 340 818 333 808 q 360 854 346 828 q 376 886 374 881 q 389 893 381 894 q 400 896 394 896 q 431 890 414 899 q 458 840 463 875 q 447 768 447 769 q 435 624 439 693 q 428 474 428 522 q 428 401 428 425 q 426 358 428 386 q 426 351 426 356 q 426 342 426 347 q 425 335 425 338 l 425 333 q 488 363 463 343 q 535 446 532 397 q 550 461 536 461 q 565 446 564 461 z "},"2":{"ha":608,"x_min":60,"x_max":613,"o":"m 582 393 q 604 389 596 401 q 603 367 613 376 q 527 331 576 335 q 446 351 478 328 q 393 399 435 358 q 374 415 385 407 q 358 400 375 415 q 322 369 340 385 q 300 353 303 354 q 225 315 264 329 q 142 309 186 301 q 78 357 99 317 q 78 424 60 392 q 135 474 97 457 q 299 488 207 506 q 300 488 299 488 q 301 488 301 488 q 304 489 304 489 q 310 497 307 493 q 329 525 321 511 q 347 558 339 542 q 354 571 351 564 q 358 582 354 571 q 375 657 371 618 q 376 674 376 668 q 375 692 376 683 q 367 731 374 711 q 367 732 367 731 q 340 721 356 726 q 291 701 311 707 q 242 694 271 694 q 190 706 213 693 q 140 784 144 731 q 178 868 136 838 q 279 902 222 900 q 385 879 336 904 q 447 832 419 861 q 474 876 465 853 q 481 911 481 894 q 482 946 482 928 q 492 960 481 957 q 508 953 504 963 q 519 913 519 932 q 513 875 518 893 q 472 804 501 836 q 471 803 472 804 q 503 717 496 763 q 399 440 521 579 q 438 407 417 426 q 501 369 472 374 q 582 393 532 365 m 299 743 q 351 764 328 754 q 335 792 340 782 q 318 815 329 801 q 294 835 307 828 q 268 846 282 843 q 211 840 238 853 q 182 813 193 832 q 182 765 171 789 q 218 732 193 740 q 299 743 247 724 m 239 424 q 274 457 257 440 q 188 454 232 463 q 159 446 175 451 q 126 430 143 440 q 106 408 108 419 q 117 382 103 396 q 151 371 129 369 q 172 375 163 372 q 191 385 181 378 q 206 395 201 392 q 224 410 211 399 q 239 424 236 422 z "},"3":{"ha":482,"x_min":65,"x_max":488,"o":"m 432 613 q 442 603 438 608 q 478 493 481 561 q 446 381 475 413 q 226 314 372 300 q 103 368 143 321 q 75 422 82 393 q 79 481 65 461 q 98 488 86 490 q 110 472 110 485 q 109 458 110 468 q 108 440 108 447 q 115 414 110 428 q 157 371 129 386 q 297 350 206 342 q 363 382 336 354 q 394 451 389 410 q 379 528 399 492 q 378 531 379 529 q 342 563 358 567 q 310 554 314 556 q 249 549 281 550 q 211 552 231 549 q 175 569 192 556 q 161 601 158 582 q 242 650 165 639 q 353 650 306 658 q 372 664 354 649 q 393 688 382 672 q 411 740 410 711 q 400 794 413 769 q 292 858 369 853 q 178 832 231 864 q 96 744 125 800 q 78 740 90 735 q 71 756 65 744 q 149 853 96 815 q 256 893 196 888 q 368 875 315 899 q 433 829 404 858 q 478 757 467 796 q 474 681 488 722 q 432 613 460 640 m 253 585 q 251 585 253 585 q 253 585 253 585 z "},"4":{"ha":643,"x_min":67,"x_max":644,"o":"m 611 653 q 629 656 619 660 q 641 643 639 651 q 636 626 643 635 q 529 551 589 583 q 444 513 489 529 q 415 324 438 446 q 403 288 411 299 q 367 273 393 276 q 321 278 342 269 q 301 306 300 286 q 312 385 304 333 q 321 443 319 436 q 325 482 322 460 q 83 489 203 461 q 71 499 75 490 q 72 515 67 508 q 213 700 142 608 q 283 793 249 747 q 319 840 301 817 q 329 854 322 844 q 342 872 336 864 q 354 885 349 879 q 404 897 376 906 q 440 863 438 886 q 451 711 453 749 q 447 554 451 604 q 611 653 538 590 m 349 726 q 353 783 350 744 q 357 843 356 822 q 118 518 240 682 q 331 519 224 500 q 338 583 333 551 q 349 726 343 643 z "},"5":{"ha":481,"x_min":67,"x_max":483,"o":"m 415 664 q 467 600 451 640 q 479 515 483 560 q 401 361 469 424 q 260 308 339 304 q 190 323 224 310 q 128 360 156 336 q 85 417 101 385 q 90 436 78 429 q 108 431 101 443 q 173 367 131 393 q 258 343 215 342 q 336 374 301 344 q 379 446 371 404 q 363 569 389 492 q 297 632 344 622 q 222 618 269 638 q 165 590 176 600 q 144 578 154 581 q 121 575 133 575 q 85 586 103 576 q 69 611 67 596 q 76 658 72 629 q 84 710 81 686 q 92 756 88 735 q 104 828 97 796 q 113 864 108 847 q 125 889 117 883 q 135 892 129 892 q 151 891 143 893 q 165 885 160 889 q 179 877 171 882 q 193 869 188 872 q 235 854 213 860 q 321 849 279 842 q 390 881 361 856 q 410 943 418 906 q 416 961 408 954 q 433 966 424 968 q 446 953 443 964 q 426 865 460 904 q 342 815 393 826 q 192 832 263 799 q 182 681 190 775 q 236 696 208 690 q 415 664 343 714 m 335 463 z "},"6":{"ha":597,"x_min":68,"x_max":614,"o":"m 585 565 q 574 424 614 497 q 456 328 536 356 q 288 321 367 297 q 283 324 286 322 q 221 367 247 336 q 182 436 194 397 q 175 582 161 496 q 139 585 157 581 q 92 608 115 590 q 69 649 69 626 q 76 660 69 657 q 92 661 83 664 q 106 647 97 657 q 117 635 114 638 q 146 619 129 624 q 181 615 163 614 q 219 717 193 668 q 419 908 290 850 q 469 894 443 918 q 471 856 499 871 q 378 779 419 825 q 303 651 328 724 q 469 661 393 682 q 585 565 554 636 m 544 447 q 544 563 576 510 q 438 629 511 617 q 292 610 388 638 q 286 579 288 593 q 297 461 279 508 q 311 433 301 449 q 369 392 331 404 q 447 386 407 379 q 544 447 519 397 z "},"7":{"ha":511,"x_min":65,"x_max":514,"o":"m 492 883 q 508 865 503 876 q 504 843 514 854 q 358 646 408 768 q 350 622 354 633 q 382 625 368 624 q 428 635 407 628 q 442 640 435 636 q 458 648 450 644 q 472 653 465 651 q 489 646 482 654 q 490 629 496 638 q 406 593 471 604 q 338 588 378 589 q 297 443 308 507 q 290 371 289 394 q 263 331 292 344 q 229 322 247 322 q 193 326 208 321 q 174 354 175 333 q 176 403 172 371 q 188 463 181 432 q 203 522 193 492 q 211 551 207 536 q 221 578 221 578 q 150 540 176 568 q 137 538 144 535 q 127 547 129 540 q 131 560 125 554 q 233 613 168 599 q 256 664 243 638 q 394 853 303 774 q 251 838 322 836 q 158 849 206 839 q 115 858 136 853 q 74 875 83 868 q 71 892 67 883 q 86 903 75 901 q 96 902 90 903 q 106 899 101 901 q 117 895 111 897 q 128 892 124 893 q 171 882 150 886 q 254 872 211 874 q 363 878 310 869 q 394 885 374 879 q 429 893 415 890 q 460 894 443 896 q 492 883 478 893 m 178 372 q 181 379 178 375 l 181 381 q 178 375 181 379 l 176 372 q 178 372 176 372 z "},"8":{"ha":518,"x_min":57,"x_max":525,"o":"m 447 594 q 494 547 475 576 q 517 483 513 517 q 510 417 521 450 q 456 345 496 378 q 374 304 417 313 q 164 324 246 281 q 83 403 110 353 q 79 510 57 454 q 157 596 103 569 q 215 617 182 608 q 133 690 154 640 q 130 781 115 735 q 182 857 144 828 q 292 890 224 888 q 415 868 364 892 q 503 787 482 839 q 497 687 525 735 q 417 610 469 639 q 447 594 433 603 m 167 706 q 240 646 185 665 q 303 633 264 639 l 304 633 l 308 635 q 317 636 311 635 q 324 638 322 638 q 328 639 325 638 q 331 640 329 639 q 374 658 358 649 q 421 726 415 683 q 415 771 424 749 q 389 809 406 793 q 353 835 372 825 q 251 848 307 860 q 171 789 194 836 q 161 751 163 771 q 167 706 158 726 m 444 397 q 475 497 490 443 q 358 586 456 567 q 272 568 332 578 q 239 561 253 564 q 228 558 232 560 q 224 557 226 558 l 224 558 q 213 554 215 556 l 210 553 l 206 551 q 199 547 204 550 q 196 546 197 546 q 194 543 196 544 q 161 457 154 506 q 218 378 168 408 q 240 368 226 372 q 249 364 244 365 q 257 363 256 363 q 303 356 278 356 q 444 397 403 356 z "},"9":{"ha":518,"x_min":65,"x_max":518,"o":"m 232 399 l 231 399 q 232 399 232 399 m 517 869 q 501 800 518 846 q 478 750 490 774 q 493 701 488 728 q 489 568 507 636 q 342 367 457 447 q 282 335 318 351 q 254 324 268 328 q 249 321 250 321 q 197 315 222 313 q 161 329 175 318 q 148 353 147 340 q 164 372 149 365 q 181 380 172 376 q 201 387 190 383 q 218 393 211 390 q 231 399 221 393 q 229 397 229 397 q 232 399 229 397 l 235 400 q 258 414 247 407 q 274 424 264 417 q 276 425 275 425 q 297 443 289 436 q 318 465 306 451 q 321 468 321 468 q 329 481 325 474 q 375 581 363 526 q 382 621 379 601 q 306 563 342 579 q 201 556 257 542 q 109 614 146 569 q 69 715 72 658 q 99 819 67 771 q 182 890 131 868 q 276 901 211 903 q 372 875 328 900 q 419 839 401 858 q 457 792 458 796 q 471 826 464 808 q 476 849 471 829 q 486 878 482 868 q 504 885 492 889 q 517 869 517 881 m 382 678 q 378 714 385 681 q 365 756 374 735 q 318 825 349 796 q 269 858 294 849 q 171 843 219 876 q 115 769 131 817 q 114 676 99 722 q 168 610 129 635 q 253 588 207 585 q 303 606 278 590 q 345 637 329 621 q 382 678 361 653 z "},"\u0000":{"ha":0,"x_min":0,"x_max":0,"o":""},"\n":{"ha":0,"x_min":0,"x_max":0,"o":""},"\r":{"ha":0,"x_min":0,"x_max":0,"o":""}," ":{"ha":422,"x_min":0,"x_max":0,"o":""},"!":{"ha":322,"x_min":64,"x_max":253,"o":"m 251 751 q 247 599 253 675 q 196 296 235 447 q 174 281 192 283 q 144 283 156 278 q 119 299 131 288 q 111 324 108 310 q 149 613 143 467 q 149 760 151 686 q 143 829 146 794 q 139 867 142 849 q 138 874 139 868 q 138 883 138 879 q 146 911 136 893 q 174 929 154 928 q 208 922 194 931 q 213 919 210 921 q 229 910 224 914 q 240 900 235 907 q 244 882 244 893 q 246 865 246 881 q 249 825 249 844 q 251 751 251 788 m 136 213 q 189 161 182 200 q 165 115 194 131 q 83 121 125 93 q 70 139 72 129 q 78 158 68 149 q 86 163 82 160 q 72 193 65 176 q 99 215 78 210 q 136 213 121 219 m 114 176 z "},"\"":{"ha":325,"x_min":68,"x_max":260,"o":"m 133 878 q 151 774 136 824 q 138 747 158 756 q 108 756 117 738 q 75 871 82 815 q 69 933 68 894 q 86 990 71 971 q 108 998 94 1000 q 128 986 122 996 q 133 929 135 971 q 133 878 132 897 m 254 774 q 239 747 260 756 q 210 756 218 738 q 176 871 185 815 q 172 933 171 894 q 189 990 172 971 q 210 998 196 1000 q 229 986 225 996 q 235 929 236 971 q 235 878 233 897 q 254 774 239 824 z "},"#":{"ha":732,"x_min":65,"x_max":672,"o":"m 653 739 q 656 708 672 724 q 621 696 649 703 q 557 685 600 692 q 467 672 513 678 q 460 581 461 628 q 502 589 476 583 q 551 599 528 594 q 596 606 575 603 q 625 592 613 608 q 625 568 639 575 q 546 542 601 554 q 486 531 517 535 q 458 526 472 528 q 488 315 461 440 q 477 297 490 304 q 451 289 464 290 q 424 292 439 288 q 406 307 408 296 q 376 517 375 406 q 369 515 369 515 q 299 513 335 513 q 300 449 299 478 q 303 378 300 425 q 308 307 307 332 q 295 287 308 294 q 267 278 282 279 q 222 304 228 276 q 214 444 215 343 q 215 514 214 481 q 101 525 157 517 q 81 533 90 526 q 70 550 72 540 q 75 564 68 560 q 92 567 82 568 q 217 561 157 561 q 218 586 218 575 q 225 657 221 622 q 167 657 217 657 q 140 658 151 658 q 131 659 138 658 q 122 660 125 660 q 113 660 118 661 q 78 676 94 656 q 81 700 65 692 q 92 703 85 703 q 108 703 99 704 q 121 703 118 703 q 146 703 133 703 q 231 706 183 703 q 265 874 243 799 q 274 883 267 881 q 290 883 282 885 q 307 878 299 882 q 321 867 315 874 q 325 854 326 861 q 320 812 324 839 q 314 763 317 785 q 310 721 311 740 q 308 715 308 718 q 308 710 308 711 q 401 718 356 714 q 440 843 417 782 q 463 854 447 854 q 491 843 478 854 q 500 819 504 832 q 476 728 486 775 q 571 743 508 733 q 584 747 572 744 q 599 749 596 749 q 613 749 603 749 q 628 749 622 750 q 640 746 633 749 q 653 739 647 743 m 378 569 q 390 664 382 617 q 332 660 361 663 q 304 658 319 660 q 300 586 301 619 q 300 563 300 575 q 344 565 324 564 q 378 569 360 567 z "},"$":{"ha":679,"x_min":67,"x_max":614,"o":"m 593 807 q 608 794 603 803 q 608 777 613 785 q 592 768 604 769 q 571 771 579 767 q 438 819 483 808 q 438 819 438 819 q 438 817 438 818 q 397 564 422 688 q 454 551 432 557 q 583 456 558 521 q 577 388 596 421 q 524 333 558 354 q 364 292 463 296 q 332 292 349 292 q 285 150 308 215 q 272 140 281 142 q 256 144 263 138 q 253 160 249 150 q 273 225 258 179 q 296 296 288 271 q 206 317 250 301 q 133 350 167 331 q 100 376 119 358 q 72 417 94 381 q 72 432 68 425 q 83 442 75 439 q 126 435 104 449 q 136 430 131 432 q 148 426 142 428 q 158 421 154 424 q 167 416 161 419 q 176 411 174 413 q 210 392 181 408 q 247 375 228 383 q 268 368 257 371 q 272 366 269 367 q 278 365 275 365 q 281 364 281 364 q 313 357 296 360 q 351 510 335 433 q 340 513 347 511 q 298 522 313 518 q 258 532 283 525 q 217 547 233 539 q 183 565 201 554 q 150 592 164 576 q 126 628 136 608 q 128 764 92 692 q 243 865 163 836 q 414 876 319 894 q 426 1011 422 944 q 435 1024 428 1021 q 448 1024 442 1028 q 454 1011 454 1021 q 443 869 450 939 q 593 807 494 856 m 404 499 q 385 503 396 500 q 379 482 381 483 q 349 353 364 410 q 358 353 353 353 q 376 353 367 351 q 380 353 378 353 q 385 353 382 353 q 389 353 388 353 q 392 353 390 353 q 393 353 393 353 q 431 360 411 356 q 433 360 431 360 l 435 360 q 439 362 436 361 q 443 363 442 363 q 456 368 450 365 q 460 369 456 368 q 463 370 461 369 q 464 372 464 371 q 471 376 468 374 q 475 379 475 378 q 490 396 485 386 q 497 415 496 406 q 469 468 499 447 q 404 499 440 489 m 364 569 q 408 826 392 697 q 368 831 388 831 q 231 783 278 836 q 200 728 208 760 q 201 665 192 696 q 240 613 211 635 q 294 585 263 596 q 364 569 321 576 z "},"%":{"ha":571,"x_min":68,"x_max":515,"o":"m 429 906 q 481 902 447 922 q 496 861 515 882 q 401 754 440 803 q 267 539 328 660 q 217 422 242 488 q 194 361 206 392 q 188 333 194 358 q 175 296 181 308 q 115 272 163 267 q 84 283 99 274 q 69 307 69 292 q 79 346 69 315 q 90 383 85 365 q 117 454 103 419 q 429 906 224 718 m 207 746 q 157 771 171 746 q 155 792 150 781 q 172 803 160 803 q 222 778 207 803 q 224 757 229 768 q 207 746 219 746 m 322 549 q 379 499 360 561 q 364 493 372 493 q 360 492 363 493 q 356 492 357 492 q 346 493 350 493 q 340 496 343 494 q 338 496 339 496 q 346 493 342 494 q 356 492 350 493 q 317 510 326 492 l 318 508 l 317 510 l 317 510 q 311 515 314 513 q 308 524 308 519 q 307 531 306 526 q 308 538 307 535 q 310 542 308 540 q 313 544 313 546 q 322 549 317 547 m 325 503 l 326 503 q 325 503 325 503 l 325 503 m 331 500 q 335 497 332 499 q 331 500 332 499 z "},"&":{"ha":801,"x_min":57,"x_max":733,"o":"m 507 913 m 718 307 q 729 298 725 306 q 731 283 733 290 q 708 271 726 268 q 556 339 629 281 q 551 336 551 336 q 406 286 490 293 q 268 297 336 279 q 122 372 171 322 q 72 518 57 439 q 163 643 85 589 q 322 701 218 681 q 297 840 297 776 q 315 924 297 883 q 365 986 332 964 q 454 1010 400 1008 q 544 997 508 1013 q 649 890 622 968 q 655 828 660 858 q 635 770 650 797 q 596 721 621 743 q 439 646 542 671 q 388 635 419 640 q 406 597 396 617 q 515 431 456 500 q 522 442 519 436 q 542 473 535 463 q 565 493 550 483 q 601 503 581 503 q 640 493 625 504 q 651 465 657 479 q 590 369 626 408 q 588 363 590 365 q 718 307 650 315 m 390 958 q 340 786 318 915 q 360 707 346 749 q 408 717 392 714 q 413 717 410 717 q 419 719 417 718 q 424 719 422 719 q 428 721 426 721 q 438 724 436 724 q 456 731 447 728 q 463 733 460 732 q 467 735 464 733 q 471 738 468 736 q 475 739 474 739 q 482 743 479 742 q 486 746 483 744 q 490 749 489 747 q 494 751 494 751 q 501 758 499 754 q 541 816 528 781 q 549 885 554 851 q 490 965 538 942 q 390 958 442 988 m 236 590 m 482 393 q 492 401 486 396 q 478 417 485 410 q 356 617 406 504 q 350 629 353 622 q 324 624 335 625 q 306 619 314 621 q 300 618 304 619 l 299 618 q 260 604 275 610 q 253 600 254 601 q 238 590 247 597 q 236 590 238 590 q 231 586 232 586 q 219 575 225 581 q 213 568 214 569 q 204 556 207 561 q 188 507 189 532 q 206 447 186 476 q 310 374 235 399 q 312 374 311 374 q 313 374 313 374 q 317 373 314 374 q 321 371 319 372 q 335 368 328 369 q 364 363 350 365 q 368 363 365 363 q 372 363 371 363 q 382 363 381 363 q 408 363 386 361 q 411 363 410 363 q 414 363 413 363 q 428 365 421 364 q 429 367 429 365 q 435 367 432 367 q 440 369 439 368 q 454 375 443 371 q 456 375 456 375 q 467 382 460 378 q 476 388 474 386 q 480 390 478 389 q 482 393 482 392 z "},"'":{"ha":222,"x_min":68,"x_max":158,"o":"m 151 774 q 138 747 158 756 q 108 756 117 738 q 75 871 82 815 q 69 933 68 894 q 86 990 71 971 q 108 998 94 1000 q 128 986 122 996 q 133 929 135 971 q 133 878 132 897 q 151 774 136 824 z "},"(":{"ha":693,"x_min":67,"x_max":626,"o":"m 381 597 q 367 596 374 596 q 225 563 292 589 q 158 544 181 544 q 99 561 125 546 q 69 604 74 576 q 94 648 67 628 q 154 681 122 668 q 247 692 200 696 q 340 674 294 689 q 419 640 385 658 q 474 606 453 621 q 493 588 494 590 q 488 589 493 588 q 468 593 482 590 q 439 597 454 596 q 381 597 414 599 m 622 668 q 621 628 625 644 q 608 640 619 629 q 583 660 606 643 q 531 689 560 676 q 441 710 503 700 q 349 736 379 721 q 301 799 306 761 q 314 842 299 821 q 353 872 329 863 q 450 875 394 890 q 579 789 531 853 q 622 668 615 742 m 583 481 q 606 458 594 474 q 608 453 608 454 q 603 453 608 451 q 586 453 594 453 q 517 444 551 454 q 458 408 492 438 q 442 394 451 403 q 424 378 432 385 q 407 363 417 371 q 389 349 397 354 q 369 337 381 343 q 349 328 358 331 q 268 335 300 313 q 240 372 247 347 q 242 419 233 397 q 304 492 256 461 q 458 526 375 533 q 583 481 522 521 z "},")":{"ha":668,"x_min":67,"x_max":601,"o":"m 518 686 q 558 674 540 682 q 588 650 576 667 q 597 611 600 633 q 569 567 594 582 q 513 551 544 551 q 449 569 492 551 q 315 601 386 596 q 301 603 308 603 q 246 603 275 604 q 208 599 221 601 q 199 596 203 597 q 193 594 194 594 q 192 593 192 593 q 213 605 192 593 q 269 632 233 617 q 347 662 306 647 q 435 684 388 676 q 518 686 482 692 m 83 646 q 72 635 74 635 q 69 674 68 650 q 111 794 78 747 q 235 881 158 858 q 328 879 289 896 q 355 861 343 872 q 373 835 367 850 q 376 804 379 819 q 331 743 374 767 q 244 717 303 726 q 158 694 185 707 q 108 665 131 682 q 83 646 86 650 m 364 494 q 425 424 411 464 q 426 375 432 400 q 400 338 419 350 q 324 331 368 315 q 292 347 308 336 q 267 365 276 357 q 241 390 257 374 q 218 413 225 406 q 161 447 186 440 q 96 457 129 458 q 79 456 88 457 q 74 457 75 456 q 78 461 74 458 q 97 483 88 476 q 218 529 157 524 q 364 494 297 538 z "},"*":{"ha":421,"x_min":67,"x_max":354,"o":"m 338 954 q 351 942 350 956 q 342 926 353 928 q 250 914 303 921 q 258 907 254 910 q 285 888 269 897 q 294 881 289 883 q 308 871 310 869 q 304 871 310 869 q 323 858 315 869 q 322 838 331 846 q 271 840 313 825 q 231 860 250 849 q 228 803 232 826 q 217 796 226 796 q 207 803 208 796 q 199 875 200 831 q 142 835 172 853 q 104 840 125 825 q 94 855 97 847 q 99 871 92 863 q 135 900 117 885 q 86 894 107 896 q 70 910 72 894 q 82 928 68 925 q 138 935 104 932 q 111 965 125 949 q 108 969 111 965 q 105 973 106 972 q 101 977 104 974 q 98 983 99 981 q 96 988 97 985 q 94 994 94 992 q 94 999 94 996 q 96 1004 94 1001 q 99 1010 97 1007 q 106 1017 101 1014 q 118 1024 110 1021 q 168 1013 149 1031 q 196 976 178 1001 q 194 1044 193 1018 q 206 1056 194 1057 q 219 1044 218 1056 q 224 993 221 1022 q 239 1014 232 1004 q 242 1021 239 1015 q 249 1029 246 1026 q 251 1033 250 1031 q 290 1036 261 1049 q 308 1024 300 1032 q 313 1007 317 1015 q 272 949 296 976 q 338 954 308 951 z "},"+":{"ha":653,"x_min":65,"x_max":585,"o":"m 557 653 q 575 641 567 650 q 583 622 583 632 q 556 599 583 601 q 367 594 501 592 q 365 519 365 556 q 368 468 365 510 q 369 443 369 456 q 371 432 371 432 q 361 406 371 422 q 311 390 349 383 q 306 391 310 390 q 303 392 303 392 q 260 424 263 399 q 260 594 251 500 q 119 597 192 596 q 90 606 104 597 q 71 628 75 615 q 76 647 67 640 q 99 656 85 654 q 265 660 175 658 q 278 732 271 701 q 308 838 288 771 q 330 853 313 850 q 358 850 347 856 q 383 835 372 846 q 392 810 394 824 q 378 714 383 772 q 374 685 376 704 q 371 661 372 665 q 399 661 376 661 q 435 661 422 661 q 463 663 438 663 q 498 663 489 664 q 525 660 507 663 q 557 653 543 658 z "},",":{"ha":289,"x_min":63,"x_max":225,"o":"m 213 369 q 214 297 224 344 q 194 239 208 269 q 97 122 168 183 q 72 117 83 110 q 76 136 64 124 q 151 251 126 183 q 165 306 161 279 q 168 332 167 317 q 172 361 169 357 q 191 376 176 371 q 213 369 206 381 z "},"-":{"ha":597,"x_min":68,"x_max":532,"o":"m 485 656 q 516 641 501 653 q 526 614 531 629 q 456 592 521 592 q 444 592 450 592 q 430 592 438 592 q 418 593 422 593 q 347 593 367 593 q 310 592 329 593 q 293 590 301 590 q 289 590 292 590 q 285 590 286 590 q 281 589 285 590 q 277 589 281 589 q 274 589 274 589 q 265 588 269 588 q 244 585 256 586 q 211 581 222 582 q 133 565 206 579 q 79 583 101 560 q 69 603 71 592 q 81 619 68 614 q 264 657 146 644 q 439 665 367 669 q 458 665 449 665 q 467 664 467 664 q 474 660 469 664 q 485 656 479 656 z "},".":{"ha":271,"x_min":67,"x_max":207,"o":"m 197 346 q 199 310 206 328 q 172 285 192 292 q 106 288 139 274 q 81 304 89 294 q 72 315 75 310 q 75 343 67 326 q 72 357 72 350 q 83 378 75 369 q 103 390 92 386 q 128 394 115 394 q 169 380 150 393 q 197 346 189 367 m 122 353 q 121 354 122 354 q 122 353 122 354 z "},"/":{"ha":650,"x_min":65,"x_max":586,"o":"m 550 922 q 574 905 563 917 q 578 882 585 893 q 531 808 563 858 q 482 733 499 758 q 325 492 382 578 q 243 368 278 418 q 146 235 181 274 q 96 233 131 217 q 76 249 85 239 q 71 271 67 260 q 156 410 90 310 q 503 915 238 532 q 550 922 518 936 z "},":":{"ha":271,"x_min":67,"x_max":207,"o":"m 128 468 q 197 426 176 467 q 199 394 206 410 q 172 372 192 378 q 106 375 139 361 q 81 389 89 381 q 72 399 75 394 q 75 424 67 408 q 72 435 72 429 q 92 460 76 451 q 128 468 107 469 m 122 432 q 121 433 122 433 q 122 432 122 433 m 72 669 q 75 694 67 681 q 72 706 72 701 q 92 731 76 722 q 128 739 107 740 q 197 697 176 738 q 199 665 206 681 q 172 643 192 649 q 106 646 139 632 q 81 660 89 651 q 72 669 75 665 m 122 703 q 121 704 122 704 q 122 703 122 704 z "},";":{"ha":328,"x_min":63,"x_max":263,"o":"m 254 692 q 255 656 263 674 q 229 631 247 638 q 161 633 196 618 q 136 650 144 640 q 129 661 132 656 q 132 689 122 672 q 129 701 128 696 q 148 731 132 721 q 183 739 164 740 q 225 726 206 739 q 254 692 244 713 m 178 699 q 178 700 178 700 q 178 699 178 699 m 172 361 q 191 376 176 371 q 213 369 206 381 q 214 297 224 344 q 194 239 208 269 q 97 122 168 183 q 72 117 83 110 q 76 136 64 124 q 151 251 126 183 q 165 306 161 279 q 168 332 167 317 q 172 361 169 357 z "},"<":{"ha":560,"x_min":58,"x_max":492,"o":"m 483 333 q 489 296 490 324 q 474 279 488 285 q 449 274 460 274 q 381 292 399 278 q 364 307 376 296 q 345 326 358 314 q 326 343 332 338 q 254 411 300 369 q 124 535 131 528 q 115 544 122 536 q 104 554 107 551 q 95 563 101 557 q 86 574 89 569 q 79 585 83 579 q 74 599 75 592 q 96 672 58 640 q 164 725 100 676 q 238 782 204 756 q 320 843 267 804 q 393 897 374 882 q 447 894 417 914 q 465 876 458 888 q 461 854 471 864 q 391 796 444 839 q 307 729 338 753 q 244 681 282 710 q 182 632 186 636 q 176 617 175 624 q 189 599 178 610 q 222 569 200 588 q 247 547 244 550 q 372 435 314 488 q 433 381 394 415 q 468 350 468 350 q 483 333 481 339 z "},"=":{"ha":546,"x_min":68,"x_max":482,"o":"m 121 675 q 75 696 93 671 q 69 715 69 703 q 81 729 69 726 q 432 739 240 763 q 463 726 449 738 q 471 697 478 714 q 460 683 468 689 q 443 674 453 676 q 423 670 433 671 q 404 671 413 669 q 121 675 275 692 m 435 561 q 467 547 453 558 q 476 519 482 536 q 449 496 469 503 q 408 493 428 489 q 125 496 278 514 q 79 518 97 493 q 73 537 72 525 q 85 551 74 549 q 435 561 244 585 z "},">":{"ha":643,"x_min":68,"x_max":586,"o":"m 539 644 q 571 561 586 601 q 566 552 568 557 q 561 544 564 547 q 554 536 558 540 q 548 529 550 532 q 540 522 546 526 q 533 516 535 518 q 524 510 531 514 q 517 505 518 506 q 508 499 515 504 q 500 494 501 494 q 160 276 185 292 q 122 267 144 267 q 85 276 100 267 q 69 300 71 285 q 82 325 68 315 q 256 436 122 351 q 403 532 329 483 q 439 554 439 554 q 443 557 440 556 q 447 560 446 558 l 447 560 q 447 560 447 560 q 451 563 449 561 q 452 564 451 564 q 454 565 453 564 q 456 568 456 567 q 457 569 457 569 q 456 574 457 571 q 456 576 456 575 q 456 576 456 576 q 439 594 450 585 q 307 714 353 672 q 242 775 268 749 q 206 814 229 786 q 192 831 204 817 q 179 844 182 842 q 174 851 178 846 q 169 859 171 856 q 167 863 167 863 q 160 873 163 865 q 161 885 158 881 q 175 897 164 893 q 225 890 194 906 q 292 846 229 888 q 390 771 333 819 q 438 732 404 758 q 494 685 471 706 q 539 644 518 664 m 456 567 l 456 565 q 456 567 456 565 z "},"?":{"ha":576,"x_min":67,"x_max":511,"o":"m 488 863 q 505 771 510 818 q 471 682 500 724 q 419 626 450 653 q 401 613 413 621 q 379 596 389 604 q 361 579 369 588 q 324 549 354 572 q 254 471 275 511 q 240 438 246 456 q 238 422 240 436 q 231 401 235 408 q 214 394 225 392 q 200 406 203 396 q 219 483 193 431 q 284 569 236 518 q 347 644 332 621 q 375 701 364 672 q 389 764 386 729 q 376 824 392 799 q 365 840 371 832 q 360 847 365 840 q 358 849 360 847 q 357 850 358 849 q 335 868 347 860 q 332 869 333 869 q 329 872 329 872 q 324 875 326 874 q 308 882 317 878 q 301 885 308 882 q 292 887 299 885 q 283 889 286 889 q 246 897 261 896 q 232 897 244 897 q 229 897 229 897 q 222 896 225 896 q 213 894 214 894 q 211 894 213 894 q 210 893 210 893 q 200 890 207 893 q 199 890 199 890 l 197 889 q 172 875 182 883 q 147 826 156 860 q 143 794 142 806 q 146 785 144 790 l 149 779 q 146 743 169 753 q 119 744 132 739 q 95 758 106 749 q 77 781 85 768 q 69 806 69 794 q 114 924 67 872 q 253 986 167 982 q 388 955 321 989 q 488 863 454 921 m 301 885 m 231 336 q 269 299 264 326 q 251 265 272 276 q 193 269 222 250 q 183 283 185 275 q 189 296 182 290 q 194 299 192 297 q 184 322 179 310 q 205 337 189 333 q 231 336 221 340 m 215 310 z "},"@":{"ha":921,"x_min":54,"x_max":854,"o":"m 806 510 q 830 511 815 522 q 835 488 844 500 q 796 442 815 461 q 578 317 706 349 q 329 328 451 286 q 131 465 204 368 q 72 690 56 564 q 181 904 89 813 q 394 1021 272 996 q 647 994 521 1046 q 825 829 772 942 q 851 708 853 775 q 814 592 849 642 q 739 526 786 550 q 643 508 692 503 q 544 583 599 514 q 444 501 515 522 q 324 514 365 478 q 307 531 315 522 q 263 690 249 597 q 297 767 268 733 q 368 817 326 801 q 467 826 415 835 q 503 810 488 822 q 504 808 503 810 q 508 806 506 806 q 513 810 510 806 q 518 817 517 815 q 531 822 522 819 q 558 822 543 825 q 584 813 572 821 q 596 793 596 806 q 592 774 596 786 q 589 758 589 763 q 585 721 585 740 q 594 646 585 682 q 642 554 615 569 q 695 549 665 543 q 746 571 725 556 q 804 651 788 601 q 806 772 822 713 q 747 878 790 831 q 553 983 671 960 q 332 963 436 1007 q 163 824 228 919 q 108 618 97 728 q 163 485 115 546 q 275 391 210 425 q 413 346 340 357 q 630 374 525 329 q 806 510 735 418 m 519 608 q 519 624 524 617 q 511 643 515 633 q 496 729 496 681 q 497 763 496 746 q 480 787 494 778 q 447 794 465 796 q 400 778 425 793 q 374 743 383 761 q 356 679 357 711 q 381 592 354 636 q 449 547 407 547 q 503 581 476 549 q 517 601 510 590 q 519 608 518 604 z "},"A":{"ha":865,"x_min":58,"x_max":874,"o":"m 854 846 q 858 758 872 801 q 804 688 844 714 q 692 647 761 661 q 710 549 699 596 q 747 403 726 469 q 775 328 760 364 q 782 309 776 322 q 790 289 788 296 q 797 268 797 272 q 801 233 803 254 q 768 206 800 210 q 722 213 736 201 q 688 240 696 225 q 679 257 683 246 q 661 301 674 269 q 632 390 644 347 q 582 632 596 507 q 515 626 558 629 q 450 619 471 622 q 432 589 440 604 q 304 411 356 467 q 143 351 226 328 q 78 408 96 364 q 79 494 60 451 q 236 608 110 567 q 432 647 314 635 q 435 652 433 649 q 438 657 438 656 q 535 849 492 750 q 604 1031 564 914 q 610 1050 607 1043 q 632 1067 617 1067 q 663 1053 647 1067 q 679 1026 679 1040 q 678 987 678 1011 q 678 947 678 963 q 678 842 678 913 q 689 675 679 756 q 767 700 733 685 q 819 739 803 718 q 833 836 854 782 q 840 850 829 846 q 854 846 850 854 m 322 479 q 414 615 371 544 q 299 596 349 608 q 194 561 239 582 q 117 503 140 536 q 106 413 83 456 q 174 376 125 378 q 251 403 217 375 q 322 479 286 431 m 468 651 q 495 653 479 651 q 524 656 511 654 q 551 658 536 657 q 578 660 565 660 q 575 708 576 686 q 575 872 569 792 q 468 651 532 763 z "},"B":{"ha":831,"x_min":63,"x_max":758,"o":"m 739 526 q 729 387 758 456 q 639 272 700 318 q 503 215 581 229 q 469 208 492 213 q 433 202 446 204 q 401 197 421 200 q 365 196 382 194 q 329 200 347 197 q 286 211 307 204 q 229 192 274 186 q 183 225 189 196 q 185 269 181 235 q 94 393 126 321 q 71 540 63 465 q 88 555 72 554 q 103 540 103 556 q 179 329 108 411 q 192 314 185 322 q 201 396 197 356 q 214 597 211 490 q 107 628 149 593 q 76 674 85 647 q 78 728 68 700 q 168 801 99 786 q 213 807 189 807 q 210 854 211 832 q 206 935 207 919 q 204 1019 201 989 q 237 1038 207 1043 q 276 1015 267 1032 q 300 942 292 983 q 321 969 300 944 q 349 997 335 985 q 417 1039 379 1024 q 571 1042 503 1075 q 617 1000 599 1028 q 640 940 636 972 q 561 776 654 861 q 514 743 539 758 q 588 704 551 726 q 636 673 621 683 q 674 640 651 663 q 713 593 697 618 q 739 526 731 561 m 214 635 q 215 694 215 667 q 214 771 214 732 q 149 757 175 769 q 115 723 126 744 q 113 679 103 701 q 200 633 132 632 q 214 635 207 633 m 451 1014 q 310 889 356 988 q 313 859 311 878 q 315 833 315 840 q 321 794 318 815 q 397 774 358 785 q 453 757 425 765 q 486 783 471 768 q 557 886 538 828 q 565 958 572 929 q 553 988 563 975 q 451 1014 522 1032 m 422 726 q 371 742 396 733 q 324 757 347 749 q 328 668 328 713 q 334 672 328 669 q 347 678 340 675 q 356 682 354 681 q 381 697 368 689 q 401 711 397 707 q 422 726 413 718 m 642 460 q 638 528 646 494 q 615 588 631 563 q 591 626 600 614 q 574 646 582 638 q 464 710 529 692 q 354 642 413 671 q 329 631 342 636 q 328 540 329 585 q 317 379 325 457 q 297 247 306 281 q 301 244 297 246 q 311 241 304 242 q 326 239 318 240 q 344 237 335 238 q 361 235 353 236 q 378 235 369 235 q 393 235 389 235 q 507 274 447 239 q 598 353 561 304 q 642 460 635 401 z "},"C":{"ha":757,"x_min":58,"x_max":772,"o":"m 771 554 q 769 543 771 549 q 765 535 767 538 q 757 526 763 532 q 750 519 751 521 q 681 432 714 479 q 574 299 614 339 q 542 268 558 282 q 447 209 500 232 q 336 181 394 186 q 226 201 278 176 q 126 297 165 232 q 75 436 86 363 q 90 651 58 544 q 193 842 121 758 q 267 911 226 881 q 356 967 308 943 q 328 1014 344 997 q 261 1039 300 1042 q 224 1029 242 1039 q 217 1026 221 1028 q 211 1022 214 1024 q 206 1017 208 1019 q 201 1013 204 1015 q 194 1010 197 1011 q 174 1013 183 1004 q 171 1033 165 1022 q 236 1074 188 1063 q 311 1068 275 1083 q 389 981 365 1046 q 471 989 425 990 q 560 970 517 988 q 629 922 603 953 q 646 879 646 903 q 628 838 647 860 q 570 802 606 811 q 500 799 535 793 q 389 871 428 811 q 371 915 378 888 q 353 899 364 910 q 257 782 289 838 q 192 608 208 699 q 194 424 175 518 q 290 272 218 321 q 359 251 318 254 q 432 260 400 247 q 454 269 443 264 q 476 282 465 274 q 494 294 488 290 q 515 310 501 299 q 532 326 528 322 q 551 344 536 329 q 568 360 565 358 q 613 410 590 382 q 663 476 636 439 q 706 531 690 513 q 740 564 725 556 q 743 565 742 564 q 760 565 750 568 q 771 554 769 563 m 417 949 q 401 940 410 944 q 456 856 419 879 q 567 840 511 821 q 611 883 606 854 q 606 907 614 896 q 592 923 599 918 q 571 938 586 928 q 489 961 531 963 q 417 949 442 960 z "},"D":{"ha":985,"x_min":68,"x_max":990,"o":"m 989 553 q 985 531 990 546 q 971 490 981 514 q 819 297 917 365 q 586 242 717 226 q 564 222 572 231 q 551 210 558 217 q 538 196 544 203 q 525 185 532 189 q 512 174 522 182 q 498 163 501 165 q 485 154 494 161 q 472 145 476 147 q 458 138 467 143 q 444 131 450 133 q 429 127 438 129 q 412 124 421 125 q 393 124 403 124 q 288 164 338 124 q 247 260 239 204 q 307 324 253 303 q 347 332 326 331 q 389 330 367 333 q 427 322 411 326 q 468 308 443 317 q 480 303 472 307 q 490 299 488 300 q 495 297 492 299 q 500 296 499 296 q 510 293 507 293 q 515 296 513 293 q 524 305 518 299 q 531 313 531 311 q 547 329 540 322 q 560 344 551 333 q 574 360 569 354 q 714 530 657 447 q 807 708 771 613 q 828 769 821 746 q 846 835 836 793 q 855 908 856 878 q 842 970 854 938 q 803 1024 829 1003 q 740 1048 778 1043 q 662 1044 703 1053 q 588 1024 621 1035 q 524 997 556 1013 q 269 760 358 919 q 206 592 226 682 q 196 459 192 518 q 196 324 200 400 q 169 193 192 247 q 118 176 160 172 q 72 206 85 179 q 72 247 69 213 q 85 406 75 300 q 100 565 96 513 q 108 674 103 603 q 114 754 114 746 q 117 813 115 776 q 122 882 119 850 q 128 940 125 914 q 140 953 128 951 q 158 951 151 956 q 181 940 171 949 q 192 921 190 931 q 203 744 200 849 q 204 711 204 729 q 214 732 204 713 q 342 910 261 832 q 526 1038 422 989 q 621 1072 574 1060 q 717 1084 668 1083 q 812 1064 767 1085 q 889 1000 857 1043 q 931 885 924 953 q 922 749 939 818 q 879 619 904 679 q 822 508 854 558 q 783 453 806 482 q 744 406 761 425 q 697 356 726 386 q 654 308 668 325 q 632 283 638 290 q 618 271 625 278 q 686 278 653 271 q 899 433 818 306 q 940 515 924 474 q 944 529 942 519 q 951 547 947 539 q 958 560 954 554 q 976 567 964 571 q 989 553 989 564 m 458 243 q 485 264 481 265 q 468 269 476 267 q 354 296 389 299 q 286 268 304 293 q 303 215 265 236 q 374 197 342 193 q 439 226 406 203 q 458 243 439 226 z "},"E":{"ha":633,"x_min":64,"x_max":635,"o":"m 350 306 q 347 304 349 304 q 350 306 350 306 m 632 551 q 597 431 635 499 q 517 333 565 372 q 374 260 456 281 q 215 258 293 240 q 105 334 144 275 q 69 468 65 393 q 158 628 75 560 q 354 685 242 697 q 317 706 336 694 q 286 726 300 717 q 238 776 258 749 q 210 822 217 804 l 203 840 q 194 897 194 869 q 210 965 196 932 q 139 1100 168 1014 q 150 1122 133 1115 q 172 1114 167 1129 q 229 1000 210 1028 q 246 1019 236 1011 q 343 1075 285 1063 q 415 1079 381 1082 q 430 1076 422 1078 q 446 1072 438 1074 q 460 1069 454 1069 q 503 1054 482 1065 q 565 994 550 1032 q 558 927 581 957 q 494 883 535 897 q 349 879 426 860 q 303 894 332 883 q 304 888 304 894 q 304 873 304 881 q 304 864 304 865 q 310 831 307 847 q 346 746 321 778 q 381 715 361 726 q 433 704 394 708 q 451 688 449 704 q 439 669 454 672 q 250 576 318 646 q 192 458 200 526 q 206 358 185 401 q 281 306 226 314 q 497 363 408 283 q 565 449 539 399 q 603 556 581 476 q 619 566 607 568 q 632 551 632 564 m 313 946 q 308 935 310 940 q 465 914 385 896 q 519 940 497 922 q 528 985 542 957 q 485 1019 515 1011 q 427 1023 454 1028 q 371 1008 400 1018 q 369 1007 369 1008 q 358 1001 363 1004 q 351 997 351 997 q 338 983 344 992 q 313 946 322 968 z "},"F":{"ha":800,"x_min":68,"x_max":825,"o":"m 807 999 q 796 922 824 961 q 649 824 753 864 q 551 800 601 807 q 547 643 539 739 q 572 650 560 647 q 661 651 632 663 q 672 635 671 647 q 661 622 672 624 q 638 621 657 621 q 614 621 618 621 q 568 614 592 619 q 550 608 560 613 q 560 486 550 601 q 567 363 568 393 q 544 249 565 293 q 462 160 519 194 q 343 125 404 125 q 228 160 282 125 q 154 263 178 197 q 76 288 111 264 q 69 302 68 293 q 77 315 71 311 q 93 315 83 319 q 146 294 118 299 q 142 329 143 313 q 152 397 140 364 q 190 455 164 431 q 253 482 217 479 q 301 465 282 485 q 319 415 319 446 q 275 319 317 368 q 188 265 236 274 q 187 265 188 265 q 186 264 186 265 q 236 202 201 225 q 313 181 271 179 q 374 196 347 181 q 417 235 401 211 q 442 290 433 258 q 455 351 451 321 q 457 413 458 381 q 449 551 454 463 q 322 504 375 501 q 310 517 310 504 q 322 529 310 529 q 369 541 344 531 q 407 560 393 551 q 447 589 421 569 q 443 661 444 632 q 450 801 439 742 q 406 808 436 803 q 362 816 376 814 q 318 819 347 818 q 274 815 289 821 q 256 821 263 813 q 251 839 249 829 q 264 851 253 849 q 313 856 281 857 q 360 852 344 854 q 408 845 376 850 q 456 838 440 840 q 458 838 457 838 q 458 838 458 838 q 461 847 461 843 q 511 943 478 897 q 663 1040 568 1021 q 694 1046 678 1044 q 727 1045 710 1047 q 760 1038 744 1043 q 788 1023 775 1033 q 807 999 800 1013 m 211 431 q 176 296 157 385 q 193 299 185 297 q 264 357 233 311 q 285 433 296 404 q 265 450 279 449 q 236 446 250 451 q 211 431 222 440 m 744 919 q 778 982 786 954 q 744 1006 771 1004 q 697 997 717 1008 q 619 940 664 983 q 563 846 582 903 q 562 842 563 844 q 561 839 561 840 q 744 919 668 856 z "},"G":{"ha":988,"x_min":61,"x_max":1006,"o":"m 975 567 q 994 569 983 578 q 1000 547 1006 560 q 992 534 996 540 q 983 522 988 528 q 972 510 979 517 q 962 501 965 504 q 949 491 958 497 q 938 483 940 485 q 925 473 936 481 q 913 465 914 465 q 792 394 878 442 q 728 360 783 390 q 621 175 693 256 q 522 121 571 119 q 474 140 494 122 q 453 186 454 157 q 507 278 449 238 q 594 328 533 296 q 616 340 603 332 q 633 350 629 347 q 642 354 636 351 q 652 359 649 357 q 659 365 656 361 q 665 372 663 368 q 682 423 672 385 q 685 467 692 461 q 674 460 683 468 q 648 435 665 451 q 618 408 631 418 q 553 360 596 389 q 214 275 358 228 q 146 310 176 288 q 95 367 115 333 q 71 439 75 400 q 140 632 61 525 q 224 726 176 682 q 211 744 217 736 q 167 896 156 828 q 198 963 174 933 q 258 1000 222 992 q 274 992 269 1003 q 269 974 279 981 q 203 857 194 928 q 253 751 210 807 q 263 760 261 758 q 542 894 390 863 q 824 853 753 939 q 842 815 838 835 q 840 774 846 794 q 822 737 833 754 q 796 704 811 719 q 640 606 729 636 q 456 590 554 574 q 286 664 358 607 q 275 653 281 657 q 176 471 185 551 q 189 401 174 433 q 238 351 204 369 q 282 338 253 344 q 431 358 343 326 q 524 399 483 378 q 646 479 590 432 q 682 513 665 496 q 694 527 686 517 q 709 545 703 538 q 724 559 715 553 q 741 564 732 565 q 758 553 750 563 q 765 544 763 549 q 769 535 768 540 q 770 525 769 529 q 771 515 771 521 q 770 504 771 508 q 768 493 769 500 q 766 483 767 486 q 763 472 765 479 q 760 463 761 464 q 744 410 754 438 q 751 414 746 411 q 758 418 756 417 q 882 489 860 474 q 975 567 949 535 m 507 815 q 313 690 396 767 q 365 657 338 671 q 524 625 435 622 q 681 665 613 628 q 757 717 725 689 q 785 746 774 731 q 804 778 797 761 q 806 813 811 796 q 781 844 800 831 q 717 869 753 864 q 641 863 682 874 q 574 843 600 853 q 507 815 547 833 m 219 363 m 613 221 q 650 314 643 264 q 563 269 586 282 q 556 265 561 268 q 526 249 536 256 q 503 228 515 242 q 488 197 490 214 q 503 163 485 174 q 544 160 521 151 q 613 221 576 169 z "},"H":{"ha":882,"x_min":63,"x_max":879,"o":"m 868 782 q 863 715 879 757 q 825 658 850 685 q 731 604 789 622 q 728 472 725 538 q 749 308 732 399 q 768 231 757 274 q 782 189 775 210 q 785 180 783 186 q 789 169 788 174 q 781 133 794 154 q 743 122 769 115 q 735 124 740 122 q 727 126 729 125 q 719 128 725 126 q 711 131 714 129 q 705 135 708 132 q 699 140 701 138 q 693 145 696 142 q 688 153 690 149 q 681 172 688 154 q 667 214 672 193 q 644 296 653 254 q 624 582 613 433 q 565 572 583 575 q 456 543 510 561 q 447 476 453 510 q 411 306 435 397 q 357 135 376 179 q 297 111 344 106 q 266 122 282 113 q 251 144 250 131 q 274 229 254 165 q 299 314 289 279 q 339 494 326 414 q 294 472 329 489 q 276 478 282 467 q 281 497 269 489 q 344 535 308 517 q 351 615 350 576 q 347 758 356 692 q 335 832 343 793 q 331 847 333 838 q 328 864 329 857 q 324 879 326 871 q 319 894 322 888 q 313 908 317 901 q 302 922 308 915 q 289 933 296 928 q 217 951 254 958 q 151 919 181 943 q 108 856 122 894 q 101 782 93 817 q 133 728 108 751 q 189 703 158 704 q 253 724 225 699 q 275 785 281 749 q 280 799 274 793 q 294 803 286 804 q 303 793 301 801 q 275 706 311 742 q 188 674 239 669 q 117 704 147 676 q 75 771 86 732 q 76 856 63 813 q 124 932 90 900 q 275 981 189 993 q 383 922 339 971 q 443 806 428 872 q 458 582 467 703 q 549 606 504 596 q 628 619 568 610 q 657 776 636 699 q 701 901 675 840 q 758 994 732 968 q 794 993 771 1006 q 818 964 818 981 q 808 918 818 956 q 803 906 806 913 q 799 891 801 899 q 794 879 796 883 q 767 794 778 833 q 736 646 746 722 q 796 683 772 660 q 828 729 818 706 q 832 746 831 738 q 834 765 833 754 q 836 782 835 776 q 851 794 839 796 q 868 782 864 793 z "},"I":{"ha":744,"x_min":60,"x_max":746,"o":"m 694 315 q 718 321 703 332 q 724 299 731 313 q 569 140 675 193 q 350 110 465 88 q 253 147 296 119 q 197 219 211 175 q 194 265 190 242 q 208 306 197 288 q 238 335 218 324 q 281 347 257 347 q 333 333 310 347 q 333 335 333 333 q 333 338 333 338 q 367 606 336 468 q 410 758 385 686 q 222 763 314 746 q 110 811 147 776 q 71 915 61 854 q 90 926 74 929 q 104 910 106 924 q 115 856 100 879 q 158 821 129 833 q 212 801 186 808 q 267 792 238 794 q 424 796 344 783 q 428 802 425 796 q 433 815 431 808 q 439 830 436 822 q 442 839 442 838 q 452 860 444 844 q 463 883 460 875 q 551 993 496 960 q 676 1024 618 1035 q 724 1000 704 1019 q 744 953 744 981 q 683 864 744 908 q 507 779 603 808 q 504 767 507 776 q 500 754 501 758 q 442 481 457 617 q 439 197 429 361 q 417 167 440 178 q 367 163 393 157 q 340 189 342 169 q 333 294 333 236 q 333 297 333 296 q 332 297 332 297 q 294 315 315 311 q 253 307 272 318 q 225 250 224 290 q 258 186 226 214 q 421 139 315 136 q 581 188 508 140 q 694 315 654 236 m 557 914 q 521 819 543 893 q 653 885 592 843 q 679 902 671 896 q 700 923 688 908 q 713 951 713 938 q 700 982 714 974 q 669 988 686 990 q 635 978 653 985 q 581 943 604 965 q 557 914 567 931 z "},"J":{"ha":786,"x_min":65,"x_max":790,"o":"m 761 564 q 780 565 769 574 q 785 546 790 557 q 611 417 744 464 q 488 388 563 400 q 339 244 425 308 q 251 188 297 213 q 199 160 221 169 q 147 152 178 151 q 93 174 115 153 q 72 213 76 189 q 75 260 67 238 q 129 319 88 293 q 206 356 147 331 q 326 397 267 383 q 393 410 354 403 q 407 426 400 418 q 486 564 457 492 q 532 753 525 656 q 533 844 536 806 q 531 865 532 853 q 530 888 531 876 q 529 907 529 899 q 469 851 508 871 q 389 838 431 832 q 293 889 325 844 q 280 938 276 908 q 311 974 283 967 q 326 967 321 976 q 325 951 331 958 q 319 919 313 933 q 342 893 325 904 q 411 874 372 872 q 518 958 481 876 q 528 965 521 964 q 558 965 538 972 q 582 944 578 957 q 610 875 608 882 q 619 826 615 860 q 624 719 628 775 q 519 431 613 568 q 582 447 554 439 q 681 492 638 464 q 761 564 718 515 m 343 350 q 346 356 343 351 q 351 363 349 360 q 357 367 354 367 q 268 344 306 357 q 182 308 239 335 q 106 258 143 290 q 99 228 90 244 q 129 214 107 213 q 160 222 140 214 q 271 286 219 247 q 303 311 288 299 q 319 326 311 319 q 343 350 336 343 z "},"K":{"ha":696,"x_min":67,"x_max":697,"o":"m 669 560 q 676 570 669 567 q 690 570 683 574 q 696 560 696 567 q 621 349 685 443 q 454 250 543 235 q 378 292 414 258 q 315 374 347 319 q 306 391 314 376 q 293 414 297 406 q 229 238 268 321 q 194 171 215 208 q 174 135 179 142 q 135 116 161 119 q 92 121 110 113 q 69 153 67 132 q 79 174 71 158 q 94 201 90 194 q 126 267 111 232 q 164 358 147 313 q 169 372 165 364 q 175 386 172 379 q 179 399 178 393 q 186 422 182 406 q 192 447 190 439 q 200 479 197 463 q 215 542 208 511 q 239 692 226 601 q 240 921 250 776 q 247 949 239 942 q 285 936 264 961 q 310 892 300 917 q 325 833 321 867 q 331 779 329 799 q 331 717 332 760 q 331 667 331 675 q 322 553 331 611 q 608 846 493 692 q 613 853 610 849 q 617 860 615 857 q 621 865 618 863 q 628 868 624 868 q 654 863 642 874 q 662 851 660 857 q 662 838 664 846 q 658 826 660 831 q 650 813 656 822 q 644 803 644 804 q 624 772 639 793 q 604 738 610 750 q 603 735 603 736 l 601 735 q 369 494 513 603 q 363 489 369 494 q 361 476 361 482 q 361 474 361 474 q 367 382 357 424 q 386 331 374 354 q 430 289 400 304 q 490 279 460 274 q 593 358 544 289 q 669 560 656 449 m 582 746 q 583 747 583 746 q 583 747 583 747 q 582 746 582 746 m 321 528 q 319 527 319 528 q 318 526 319 526 q 319 527 318 526 q 321 528 319 528 z "},"L":{"ha":817,"x_min":67,"x_max":821,"o":"m 815 556 q 802 466 821 511 q 751 387 783 421 q 678 331 718 353 q 458 292 586 281 l 458 290 q 354 190 426 219 q 199 168 282 160 q 94 204 128 175 q 70 251 74 224 q 83 303 67 279 q 179 360 115 347 q 332 344 232 369 q 374 333 354 338 q 396 414 386 369 q 409 486 406 458 q 419 572 413 514 q 428 647 426 629 q 439 721 433 692 q 263 785 343 726 q 149 935 183 844 q 151 949 146 943 q 165 953 157 954 q 176 943 174 951 q 310 789 214 843 q 444 750 371 753 q 449 766 444 750 q 459 800 454 782 q 464 819 464 818 q 493 886 476 856 q 590 988 533 960 q 692 989 642 1013 q 738 915 739 967 q 686 815 738 867 q 531 731 622 751 q 517 599 525 689 q 515 581 517 593 q 469 319 500 403 q 646 347 569 311 q 748 432 710 376 q 792 556 786 488 q 803 568 792 568 q 815 556 814 568 m 542 796 q 540 785 542 794 q 538 769 539 776 q 535 761 536 761 q 660 829 607 781 q 710 915 710 875 q 707 935 711 925 q 696 953 703 944 q 679 965 689 961 q 663 968 672 968 q 614 953 638 968 q 578 901 596 940 q 551 832 563 869 q 542 796 546 815 m 256 215 q 363 307 333 242 q 331 316 358 308 q 294 325 303 324 q 262 331 286 326 q 226 335 238 336 q 194 333 214 335 q 160 326 175 332 q 131 310 144 319 q 99 270 106 293 q 113 225 92 247 q 213 206 144 194 q 256 215 235 208 m 326 260 z "},"M":{"ha":1263,"x_min":65,"x_max":1271,"o":"m 1269 568 q 1251 490 1269 543 q 1218 418 1238 453 q 1136 313 1185 361 q 1031 236 1088 264 q 942 213 983 213 q 856 228 878 213 q 807 328 817 253 q 824 526 797 413 q 865 644 833 569 q 906 753 896 718 q 883 857 931 840 q 817 829 856 868 q 775 771 797 810 q 718 608 742 711 q 699 530 713 588 q 678 442 685 472 q 671 410 674 424 q 663 379 667 393 q 653 349 658 363 q 647 333 650 340 q 640 321 643 325 q 621 306 633 311 q 599 299 611 300 q 578 297 589 296 q 544 308 560 297 q 532 336 528 318 q 563 501 557 439 q 567 690 571 581 q 485 817 561 818 q 432 789 453 815 q 413 757 422 775 q 397 724 403 739 q 383 686 390 708 q 372 649 375 664 q 362 611 368 635 q 351 576 356 588 q 310 432 319 457 q 246 296 286 361 q 153 171 193 207 q 100 165 132 151 q 76 181 86 171 q 71 203 67 192 q 82 227 75 215 q 101 255 89 239 q 118 276 114 271 q 153 333 135 303 q 289 819 271 535 q 290 931 292 876 q 292 947 290 942 q 322 962 301 963 q 356 950 343 961 q 375 915 369 938 q 374 776 388 872 q 360 707 368 742 q 403 790 385 761 q 496 861 440 853 q 519 863 507 863 q 571 854 544 863 q 668 750 647 829 q 681 651 679 703 q 693 681 686 667 q 778 826 735 771 q 878 889 821 881 q 985 861 950 899 q 1006 824 1001 843 q 1008 782 1008 807 q 1001 719 1008 750 q 976 644 993 688 q 956 583 960 600 q 924 435 932 510 q 989 256 901 253 q 1047 275 1017 257 q 1092 307 1078 293 q 1135 353 1106 321 q 1206 456 1178 399 q 1228 511 1219 482 q 1235 540 1231 519 q 1244 572 1240 561 q 1258 581 1247 582 q 1269 568 1268 579 m 529 803 m 538 801 z "},"N":{"ha":908,"x_min":68,"x_max":911,"o":"m 876 551 q 895 563 881 567 q 908 543 910 558 q 818 272 889 408 q 779 201 794 226 q 738 142 764 175 q 679 89 711 108 q 606 60 647 69 q 551 60 576 53 q 509 85 526 68 q 478 127 492 101 q 458 178 465 153 q 447 229 451 203 q 467 438 432 336 q 571 668 501 540 q 585 692 575 674 q 601 720 596 711 q 612 745 606 729 q 619 774 618 761 q 608 832 625 818 q 535 840 588 851 q 375 749 451 825 q 251 578 299 674 q 208 468 225 525 q 178 240 189 403 q 159 216 176 224 q 124 210 142 208 q 89 219 104 210 q 72 244 74 228 q 72 358 68 274 q 82 474 74 406 q 103 594 90 538 q 139 719 114 644 q 162 734 147 735 q 192 720 176 733 q 206 693 207 707 q 190 531 196 585 q 421 831 264 719 q 511 885 458 867 q 614 897 564 904 q 722 828 699 888 q 710 710 743 776 q 676 644 697 683 q 636 569 654 604 q 606 503 618 535 q 563 297 560 390 q 585 160 564 204 q 626 125 600 126 q 677 147 651 124 q 721 192 703 171 q 751 233 739 214 q 806 335 782 281 q 824 376 815 354 q 839 421 832 397 q 851 463 846 444 q 865 509 857 481 q 876 551 872 538 z "},"O":{"ha":858,"x_min":67,"x_max":793,"o":"m 738 611 q 788 442 785 532 q 746 271 792 351 q 744 268 744 268 q 607 137 694 182 q 425 114 519 92 q 268 239 325 136 q 203 422 219 324 q 206 617 186 521 q 69 836 99 710 q 78 852 67 849 q 94 843 90 856 q 214 649 131 728 q 225 682 213 650 q 240 714 232 697 q 278 772 256 746 q 385 860 324 831 q 547 900 464 899 q 632 883 589 900 q 696 832 675 865 q 725 744 722 792 q 708 651 728 696 q 738 611 724 632 m 301 589 l 301 588 q 431 546 364 556 q 563 558 497 536 q 667 638 628 579 q 674 647 669 642 q 575 718 631 693 q 567 729 567 722 q 574 741 567 736 q 589 743 581 746 q 686 675 643 719 q 697 749 701 706 q 664 811 693 792 q 507 835 590 854 q 369 750 424 815 q 301 589 314 683 m 690 247 q 734 311 717 275 q 758 386 751 347 q 760 464 764 425 q 693 624 749 553 q 686 614 689 618 q 577 533 644 558 q 438 517 510 508 q 297 557 365 524 q 314 388 292 472 q 403 213 349 263 q 506 171 443 174 q 617 194 568 168 q 690 247 660 215 z "},"P":{"ha":953,"x_min":65,"x_max":903,"o":"m 897 715 q 826 540 901 633 q 722 431 785 476 q 628 382 679 400 q 526 360 578 364 q 419 367 474 357 q 417 342 418 353 q 404 244 411 293 q 397 206 400 225 q 368 135 390 165 q 333 125 360 122 q 296 146 310 129 q 282 193 278 165 q 286 215 283 201 q 293 254 289 235 q 304 335 299 293 q 313 407 308 369 q 239 451 292 418 q 169 483 197 476 q 88 475 136 490 q 70 483 75 471 q 76 501 65 494 q 238 496 143 547 q 280 471 253 488 q 317 449 307 454 q 321 504 319 476 q 326 588 324 529 q 331 679 328 647 q 333 772 333 706 q 338 864 332 838 q 375 869 342 889 q 397 849 393 860 q 410 796 407 819 q 415 753 415 764 q 424 685 422 692 q 517 830 454 771 q 663 899 579 889 q 813 858 746 910 q 897 715 893 796 m 424 406 q 464 399 422 400 q 518 397 506 397 q 599 418 560 400 q 726 524 676 454 q 767 602 750 558 q 788 694 783 646 q 774 779 793 743 q 675 850 742 839 q 588 841 629 860 q 517 783 546 822 q 467 705 488 744 q 432 621 447 665 q 429 615 432 618 q 429 506 431 576 q 424 406 428 456 z "},"Q":{"ha":946,"x_min":68,"x_max":961,"o":"m 394 283 q 390 285 392 283 q 394 283 392 283 m 940 568 q 953 563 947 568 q 960 550 960 557 q 919 437 951 489 q 835 353 886 385 q 631 322 738 293 q 607 300 619 311 q 588 283 601 296 q 563 261 574 269 q 542 246 553 253 q 467 215 508 225 q 385 208 426 206 q 321 219 351 210 q 139 358 207 253 q 69 586 71 463 q 128 799 68 699 q 192 879 154 843 q 239 921 217 904 q 263 938 250 929 q 288 949 271 942 q 313 961 304 957 q 361 951 333 975 q 364 913 386 928 q 322 885 336 894 q 244 807 278 853 q 177 619 183 724 q 221 424 171 515 q 283 342 246 378 q 364 290 322 306 q 469 282 415 272 q 593 335 553 296 q 594 335 593 335 q 594 336 594 336 q 583 340 589 339 q 419 496 493 389 q 326 703 346 600 q 330 811 315 761 q 392 888 344 861 q 499 904 446 914 q 599 858 551 894 q 717 681 685 792 q 717 467 750 569 q 658 354 699 407 q 776 366 718 343 q 874 438 835 389 q 922 550 914 488 q 940 568 924 568 m 621 365 q 692 510 676 431 q 691 635 703 571 q 644 754 679 699 q 557 843 610 810 q 468 869 514 869 q 385 835 422 869 q 378 657 335 779 q 476 481 414 557 q 621 365 551 392 z "},"R":{"ha":633,"x_min":68,"x_max":650,"o":"m 615 561 q 635 572 621 576 q 646 553 649 568 q 608 408 633 476 q 528 285 576 324 q 383 256 460 232 q 263 354 315 276 q 225 424 238 392 q 218 304 225 364 q 207 235 214 272 q 200 201 203 211 q 175 146 194 179 q 132 135 165 129 q 90 158 101 139 q 88 217 79 178 q 94 258 92 238 q 107 338 101 296 q 113 501 115 414 q 97 664 110 581 q 94 690 96 676 q 89 719 92 703 q 85 744 86 735 q 76 797 81 767 q 76 803 76 800 q 74 810 75 807 q 72 817 72 814 q 71 831 71 824 q 69 832 71 831 q 72 836 69 836 q 72 845 69 840 q 74 853 74 850 q 80 861 75 857 q 87 867 85 865 q 94 874 89 869 q 103 879 100 878 q 113 883 107 881 q 119 888 118 886 q 313 954 217 944 q 379 957 356 958 q 492 919 447 954 q 524 881 511 906 q 542 832 538 857 q 546 781 547 807 q 530 721 544 750 q 500 672 515 692 q 452 628 485 653 q 403 594 419 604 q 345 560 386 583 q 296 533 304 538 q 287 528 293 532 q 278 522 281 524 q 270 517 275 521 q 263 511 265 514 q 258 504 261 508 q 254 494 256 500 q 282 392 243 458 q 389 293 329 313 q 517 325 460 269 q 561 392 544 353 q 592 484 578 431 q 615 561 606 538 m 224 515 q 249 551 231 532 q 299 594 268 569 q 354 638 331 619 q 402 683 378 656 q 439 740 426 711 q 454 822 458 776 q 417 892 450 867 q 346 923 383 918 q 269 914 308 928 q 199 883 229 900 q 131 839 168 865 q 149 811 140 828 q 183 729 171 764 q 215 586 203 678 q 224 515 221 551 z "},"S":{"ha":683,"x_min":67,"x_max":615,"o":"m 436 214 m 572 426 q 591 265 615 342 q 490 138 567 189 q 333 96 413 88 q 169 181 236 107 q 101 363 101 257 q 118 461 101 413 q 167 553 138 521 q 185 553 175 561 q 189 535 194 546 q 147 442 153 467 q 138 344 133 393 q 205 196 143 260 q 351 129 267 132 q 439 156 410 128 q 488 242 476 192 q 422 456 510 333 q 367 525 408 474 q 306 607 325 576 q 271 682 282 644 q 183 736 224 701 q 117 815 147 768 q 69 914 79 872 q 79 933 67 928 q 99 926 92 938 q 121 884 106 914 q 146 839 136 854 q 210 763 175 794 q 263 728 233 742 q 263 769 260 749 q 290 851 267 814 q 381 926 321 900 q 492 931 440 953 q 552 858 539 911 q 540 761 565 804 q 477 695 518 719 q 388 665 436 671 q 460 571 407 629 q 480 549 463 568 q 502 525 497 531 q 521 503 507 519 q 541 478 535 488 q 556 453 547 468 q 572 426 565 439 m 367 713 q 371 703 368 708 q 423 711 397 703 q 470 736 449 719 q 506 775 492 753 q 514 853 526 813 q 457 883 506 883 q 454 883 456 883 q 403 865 425 883 q 373 822 382 847 q 361 767 364 796 q 367 713 358 738 z "},"T":{"ha":626,"x_min":64,"x_max":633,"o":"m 604 564 q 620 569 610 574 q 628 553 631 564 q 596 449 624 524 q 528 281 567 372 q 513 244 519 258 q 492 204 506 229 q 468 163 479 179 q 440 130 457 147 q 405 106 422 113 q 366 99 388 99 q 321 111 344 100 q 285 147 299 122 q 258 228 267 178 q 251 279 254 251 q 247 382 249 314 q 325 826 243 628 q 313 825 318 826 q 210 832 261 822 q 111 864 143 843 q 77 903 89 879 q 72 950 65 926 q 88 976 76 965 q 113 992 99 988 q 143 990 128 996 q 155 967 160 983 q 133 954 150 950 q 119 951 126 956 q 110 939 113 947 q 121 907 106 924 q 199 874 140 888 q 343 867 269 857 q 403 972 369 922 q 426 1006 414 990 q 461 1050 446 1033 q 503 1081 476 1067 q 558 1092 531 1094 q 603 1072 585 1089 q 624 1031 621 1056 q 508 882 632 950 q 428 847 469 861 q 421 831 422 836 q 343 465 351 663 q 346 324 340 394 q 367 217 351 251 q 388 189 375 194 q 472 257 422 171 q 528 369 486 279 q 569 467 550 417 q 585 511 574 476 q 604 564 596 546 m 508 994 q 449 893 479 956 q 499 917 475 903 q 592 1028 597 972 q 521 1010 586 1086 l 508 994 z "},"U":{"ha":719,"x_min":68,"x_max":732,"o":"m 726 556 q 715 471 731 524 q 683 394 703 432 q 617 300 651 338 q 513 251 567 246 q 428 317 468 256 q 419 335 424 324 q 411 358 415 346 q 401 376 407 369 q 355 331 407 368 q 286 288 303 294 q 213 276 257 275 q 142 292 169 276 q 101 333 117 307 q 80 397 86 360 q 72 459 74 435 q 69 524 69 483 q 69 536 69 532 q 86 719 68 628 q 142 871 106 828 q 176 874 154 886 q 200 843 199 861 q 198 819 200 832 q 192 790 196 806 q 186 765 188 774 q 174 683 179 722 q 163 524 160 593 q 164 504 164 518 q 165 481 164 490 q 166 458 165 472 q 169 432 167 443 q 173 408 171 421 q 178 383 175 394 q 187 362 182 372 q 199 344 192 351 q 213 329 206 336 q 242 319 226 321 q 269 322 257 318 q 297 336 281 325 q 320 353 313 347 q 343 374 328 360 q 386 414 365 393 q 379 513 376 447 q 393 632 382 565 q 442 815 414 747 q 568 957 496 946 q 629 931 604 963 q 645 885 643 913 q 644 840 647 857 q 633 792 642 822 q 583 649 618 726 q 471 457 533 539 q 485 339 465 393 q 529 292 500 297 q 576 311 550 289 q 647 406 611 343 q 679 481 667 442 q 685 506 682 492 q 692 535 689 521 q 699 560 694 549 q 713 570 701 572 q 726 556 725 568 m 481 607 q 472 526 475 572 q 474 525 474 525 q 550 668 514 586 q 594 789 575 722 q 598 799 596 790 q 601 810 600 808 q 604 822 601 813 q 607 834 607 831 q 609 845 607 838 q 611 857 611 853 q 611 868 611 861 q 610 880 611 875 q 607 890 608 885 q 603 901 606 896 q 585 919 596 917 q 565 915 575 922 q 548 897 556 907 q 536 875 540 886 q 535 874 536 875 q 523 836 528 857 q 514 788 518 815 q 507 747 510 760 q 481 607 488 660 z "},"V":{"ha":772,"x_min":68,"x_max":800,"o":"m 763 926 q 769 937 764 933 q 779 940 774 940 q 790 937 785 939 q 797 929 794 935 q 799 917 800 924 q 707 774 778 835 q 546 681 636 713 q 518 540 547 611 q 429 375 489 471 q 363 278 394 319 q 313 226 333 240 q 278 217 299 217 q 246 232 257 218 q 161 371 201 285 q 83 618 104 497 q 69 751 71 693 q 72 825 69 783 q 82 896 76 875 q 118 903 89 913 q 150 872 146 893 q 154 833 153 858 q 157 797 156 808 q 160 776 158 788 q 163 752 161 765 q 165 731 164 739 q 226 492 181 610 q 279 378 249 432 q 329 294 285 367 q 397 394 394 390 q 482 553 457 490 q 508 669 506 611 q 360 658 429 649 q 331 665 344 661 q 303 676 317 669 q 279 692 290 683 q 260 714 268 701 q 247 740 251 726 q 254 817 233 779 q 314 874 275 856 q 390 883 351 889 q 461 854 429 878 q 543 719 529 807 q 567 729 554 725 q 763 926 732 806 m 424 693 q 507 708 465 696 q 440 822 497 783 q 380 847 413 843 q 317 832 347 850 q 282 781 288 814 q 301 722 276 747 q 424 693 339 689 z "},"W":{"ha":1104,"x_min":64,"x_max":1107,"o":"m 1069 933 q 1084 943 1075 943 q 1099 934 1093 943 q 1101 914 1106 925 q 1003 788 1069 840 q 856 715 936 735 q 867 640 864 679 q 865 564 869 603 q 800 379 856 482 q 683 249 747 281 q 669 243 676 246 q 589 235 632 228 q 517 272 546 243 q 460 393 483 307 q 432 551 439 472 q 428 593 429 571 q 364 471 401 524 q 265 385 317 403 q 191 377 231 371 q 125 410 151 383 q 115 420 119 414 q 108 431 111 426 q 101 444 104 436 q 97 458 99 453 q 92 473 94 463 q 88 488 89 483 q 84 503 86 492 q 82 517 82 514 q 80 531 82 519 q 78 544 78 543 q 72 700 65 621 q 157 944 85 856 q 196 949 171 961 q 209 940 203 946 q 219 927 215 935 q 222 914 224 919 q 213 880 218 899 q 201 842 207 861 q 192 810 194 824 q 174 699 178 754 q 178 582 169 640 q 178 576 178 581 q 185 530 182 547 q 201 488 189 513 q 229 456 213 464 q 288 454 256 443 q 303 460 297 457 q 316 468 310 463 q 326 476 322 474 q 335 488 329 479 q 342 498 340 496 q 349 512 343 500 q 357 525 356 524 q 404 633 386 576 q 424 708 417 669 q 432 757 429 736 q 433 765 432 760 q 435 779 435 774 q 438 795 436 785 q 441 813 439 806 q 446 831 443 821 q 451 847 449 840 q 458 862 454 854 q 468 874 463 869 q 479 881 474 878 q 492 882 485 883 q 508 876 500 881 q 533 842 533 864 q 531 759 533 815 q 529 674 528 703 q 543 515 531 593 q 586 358 560 422 q 636 303 607 310 q 708 325 671 294 q 807 478 769 372 q 828 664 839 569 q 819 707 825 686 q 807 706 813 707 q 646 754 689 693 q 635 828 621 790 q 692 875 650 865 q 767 863 732 885 q 824 803 801 842 q 846 750 836 778 q 869 757 857 754 q 987 824 935 778 q 1069 933 1039 871 m 732 746 q 808 743 767 739 q 783 794 799 772 q 740 835 765 822 q 685 832 715 847 q 672 784 658 814 q 732 746 686 754 m 617 303 l 618 303 q 617 303 617 303 m 619 304 q 621 304 621 303 q 619 304 621 304 z "},"X":{"ha":818,"x_min":68,"x_max":819,"o":"m 804 779 q 817 766 815 776 q 811 748 818 756 q 794 743 804 740 q 615 721 710 769 q 538 667 576 701 q 478 609 499 632 q 418 536 458 586 q 485 374 444 453 q 571 235 526 296 q 621 171 596 200 q 649 139 635 154 q 658 129 650 138 q 668 117 665 121 q 676 107 671 114 q 682 93 681 100 q 683 78 683 86 q 663 58 682 63 q 629 56 644 53 q 576 79 593 64 q 561 97 569 88 q 528 133 544 115 q 472 210 497 171 q 349 457 393 325 q 82 325 217 321 q 69 339 69 325 q 82 353 69 353 q 257 419 169 353 q 336 494 296 449 q 325 535 331 515 q 301 881 283 701 q 316 894 303 892 q 338 890 329 896 q 367 854 367 879 q 383 674 367 774 q 406 576 392 625 q 499 681 463 646 q 646 773 565 743 q 804 779 726 803 z "},"Y":{"ha":828,"x_min":61,"x_max":843,"o":"m 828 569 q 840 547 843 565 q 763 417 829 472 q 614 336 689 354 q 600 333 608 335 q 598 326 600 333 q 594 311 596 319 q 592 301 592 303 q 575 268 586 288 q 531 210 557 236 q 397 126 482 158 q 244 108 324 99 q 104 161 146 119 q 81 226 78 190 q 110 292 83 263 q 249 358 154 342 q 326 366 285 365 q 419 365 367 367 q 496 363 471 363 q 519 492 513 431 q 529 636 528 565 q 394 472 483 531 q 200 449 304 414 q 157 475 188 453 q 81 617 106 513 q 74 785 63 689 q 118 961 81 839 q 136 972 121 972 q 160 968 151 972 q 174 960 167 965 q 185 948 181 956 q 189 933 190 940 q 172 782 178 853 q 181 639 167 697 q 199 585 189 610 q 225 539 211 557 q 294 486 257 493 q 465 597 385 469 q 514 707 499 649 q 524 767 522 738 q 525 794 525 774 q 526 825 525 814 q 531 833 528 831 q 535 842 533 840 q 543 847 538 846 q 572 846 554 853 q 607 806 597 835 q 625 732 621 764 q 622 457 642 597 q 608 375 617 414 q 726 435 672 390 q 804 557 790 486 q 809 565 806 561 q 817 569 813 568 q 828 569 822 571 m 458 257 q 486 325 485 308 q 308 328 410 335 q 165 289 221 322 q 133 260 146 278 q 117 221 119 242 q 136 183 115 200 q 196 156 154 167 q 268 146 231 146 q 404 192 347 147 q 458 257 438 218 z "},"Z":{"ha":751,"x_min":67,"x_max":767,"o":"m 726 556 q 740 569 729 567 q 758 564 750 571 q 763 546 765 557 q 654 418 738 467 q 515 372 601 388 q 447 215 500 292 q 311 97 379 121 q 213 106 260 79 q 167 150 185 122 q 153 208 150 178 q 244 338 157 286 q 426 394 304 374 q 481 403 474 401 q 481 407 481 406 q 473 456 485 431 q 440 490 461 481 q 365 506 407 504 q 325 489 346 496 q 278 488 304 481 q 239 515 251 496 q 233 532 235 525 q 239 546 232 539 q 251 556 246 553 q 267 565 257 560 q 294 579 292 579 q 407 676 360 618 q 461 778 472 757 q 436 786 454 792 q 413 772 426 785 q 307 685 338 711 q 225 651 271 653 q 140 679 179 650 q 99 726 118 697 q 69 783 75 761 q 78 801 67 794 q 97 799 89 807 q 115 771 104 790 q 128 750 126 751 q 163 708 144 724 q 243 694 203 675 q 289 728 260 703 q 310 749 294 733 q 336 772 326 765 q 461 857 396 824 q 530 872 493 876 q 588 835 567 868 q 593 769 603 808 q 574 721 588 746 q 500 614 535 653 q 417 538 463 571 q 474 518 453 532 q 521 440 517 493 q 521 411 521 426 q 652 461 599 428 q 726 556 706 494 m 397 251 q 464 363 431 288 q 307 326 354 344 q 192 228 213 292 q 192 187 185 208 q 219 157 199 165 q 240 153 229 153 q 258 153 250 153 q 276 160 265 154 q 293 168 288 165 q 311 178 299 171 q 397 251 356 206 z "},"[":{"ha":332,"x_min":68,"x_max":267,"o":"m 221 299 q 252 286 238 297 q 261 258 267 275 q 194 231 249 226 q 111 238 138 236 q 94 242 103 239 q 77 253 85 246 q 69 269 69 261 q 76 600 71 376 q 81 768 78 690 q 85 933 85 919 q 99 953 86 946 q 125 958 113 960 q 165 957 139 958 q 201 956 192 956 q 230 947 215 954 q 249 926 244 939 q 248 910 251 917 q 238 901 244 904 q 222 899 231 899 q 202 898 215 899 q 183 897 189 897 q 183 828 185 890 q 182 760 182 767 q 182 600 182 688 q 178 303 181 404 q 198 301 183 301 q 221 299 213 300 z "},"\\":{"ha":654,"x_min":67,"x_max":592,"o":"m 585 351 q 563 318 590 329 q 504 321 531 307 q 444 367 463 344 q 419 399 436 378 q 369 465 394 431 q 272 594 324 528 q 169 739 207 683 q 116 822 149 767 q 74 893 83 876 q 71 911 67 903 q 86 922 75 919 q 133 904 111 928 q 201 833 153 883 q 275 756 250 783 q 375 635 310 717 q 490 494 390 617 q 540 432 508 472 q 565 400 564 403 q 585 351 574 388 z "},"]":{"ha":326,"x_min":68,"x_max":257,"o":"m 250 600 q 257 275 256 382 q 241 249 257 258 q 206 239 225 240 q 124 232 181 236 q 89 238 107 231 q 69 263 71 246 q 85 288 68 279 q 121 299 101 297 q 135 300 126 299 q 150 301 144 301 q 147 600 149 403 q 146 768 146 689 q 145 825 146 776 q 146 899 144 874 q 129 900 136 899 q 111 903 121 900 q 93 913 101 907 q 82 928 85 919 q 87 947 78 940 q 108 954 96 954 q 185 958 168 958 q 221 950 204 958 q 240 929 239 942 q 246 760 242 907 q 250 600 249 686 z "},"^":{"ha":418,"x_min":64,"x_max":350,"o":"m 347 667 q 349 655 350 661 q 343 645 347 649 q 334 640 339 642 q 324 641 329 639 q 315 649 319 643 q 218 844 288 701 q 187 790 207 826 q 164 750 167 754 q 94 629 113 660 q 76 626 88 619 q 71 643 65 632 q 139 765 88 675 q 206 886 199 871 q 220 895 210 896 q 235 886 231 894 q 347 667 326 711 z "},"_":{"ha":789,"x_min":68,"x_max":722,"o":"m 719 358 q 712 339 722 346 q 689 332 701 332 q 535 329 635 331 q 400 328 436 328 q 257 325 331 326 q 101 325 128 324 q 72 344 82 326 q 69 358 68 350 q 79 365 71 365 q 165 369 92 368 q 232 371 210 371 q 375 374 297 372 q 515 378 413 375 q 675 381 618 381 q 719 358 713 382 z "},"`":{"ha":219,"x_min":63,"x_max":153,"o":"m 150 786 q 139 768 151 772 q 122 778 126 764 q 101 822 115 799 q 86 844 96 831 q 72 861 76 857 q 77 885 64 875 q 101 883 90 894 q 150 786 138 851 z "},"a":{"ha":478,"x_min":-76,"x_max":479,"o":"m 474 560 q 471 499 479 544 q 436 392 463 443 q 368 315 410 340 q 253 343 311 283 q 221 378 235 361 q 121 296 192 317 q 0 310 40 272 q -17 326 -10 317 q -61 485 -75 393 q -26 562 -56 528 q 44 613 3 596 q 142 621 92 631 q 178 606 164 617 q 181 602 179 604 q 185 601 182 600 q 190 606 186 601 q 193 611 193 611 q 207 617 199 615 q 235 618 219 619 q 260 608 249 615 q 272 588 272 600 q 268 569 271 581 q 264 554 265 558 q 261 515 261 535 q 271 440 261 478 q 364 350 306 313 q 433 461 406 376 q 444 511 442 486 q 447 533 446 515 q 449 560 447 551 q 462 568 453 568 q 474 560 471 568 m 196 403 q 196 419 200 411 q 188 439 190 428 q 171 524 172 475 q 174 557 171 540 q 156 581 169 572 q 124 590 142 590 q 76 572 101 589 q 49 538 60 556 q 32 474 32 507 q 57 387 31 431 q 124 343 83 343 q 178 375 153 343 q 192 396 186 385 q 196 403 194 400 z "},"b":{"ha":458,"x_min":-51,"x_max":464,"o":"m 429 563 q 450 564 438 574 q 456 543 463 554 q 332 453 418 485 q 315 446 325 450 q 315 413 317 429 q 272 299 311 340 q 222 269 250 276 q 164 272 193 261 q 125 299 140 281 q 128 294 126 296 q 132 253 143 267 q 104 243 124 243 q 58 251 78 243 q 23 273 38 258 q -1 304 8 288 q -18 344 -11 321 q -28 386 -25 367 q -35 429 -32 406 q -31 699 -50 564 q -4 831 -21 769 q 40 950 17 908 q 132 1039 81 1019 q 170 1040 151 1046 q 201 1015 189 1033 q 219 933 217 992 q 214 847 222 893 q 172 722 203 785 q 169 717 171 719 q 61 558 131 636 q 61 524 57 554 q 176 588 117 582 q 222 584 200 590 q 263 563 244 578 q 293 528 282 549 q 310 485 304 508 q 368 510 346 496 q 429 563 396 525 m 58 615 q 58 610 58 614 q 57 607 58 607 q 124 704 94 653 q 178 844 163 775 q 176 986 196 926 q 143 1006 167 1013 q 136 1003 139 1004 q 131 998 133 1001 q 127 992 129 994 q 123 985 125 989 q 120 978 121 981 q 118 971 119 975 q 115 964 117 967 q 105 928 110 947 q 97 883 100 908 q 89 846 93 858 q 74 769 79 800 q 58 615 61 696 m 107 360 q 116 389 110 375 q 135 413 122 403 q 157 431 149 424 q 186 445 165 438 q 214 456 207 453 q 247 465 221 458 q 275 472 272 472 q 256 519 269 500 q 215 549 240 540 q 164 551 190 557 q 64 488 121 543 q 67 450 65 463 q 99 340 74 399 q 114 315 100 335 q 107 360 104 336 m 279 426 q 279 435 279 431 q 249 426 268 432 q 219 417 229 419 q 160 383 178 404 q 145 342 142 364 q 172 308 149 319 q 215 306 194 300 q 251 332 236 313 q 279 426 278 365 z "},"c":{"ha":413,"x_min":-51,"x_max":415,"o":"m 410 557 q 407 486 415 540 q 344 357 396 408 q 203 292 292 301 q 33 329 100 282 q -50 483 -47 386 q -31 574 -51 531 q 28 647 -10 618 q 140 691 78 685 q 257 671 201 697 q 275 656 268 665 q 283 611 293 639 q 274 594 281 601 q 259 583 267 586 q 241 576 251 579 q 222 571 231 572 q 201 567 213 569 q 183 561 190 564 q 163 572 169 556 q 169 594 156 588 q 203 603 181 600 q 232 610 225 607 q 251 622 246 614 q 243 624 247 624 q 159 628 204 639 q 88 583 114 617 q 57 491 57 542 q 83 394 57 440 q 164 343 106 356 q 261 349 222 331 q 354 435 324 371 q 368 497 364 456 q 379 557 372 539 q 394 568 382 568 q 410 557 406 568 z "},"d":{"ha":536,"x_min":-82,"x_max":538,"o":"m 508 563 q 526 566 515 571 q 536 551 536 561 q 521 492 536 531 q 493 442 511 471 q 392 339 451 379 q 253 314 317 290 q 203 351 224 324 q 176 407 182 378 q 169 400 171 401 q 153 383 165 396 q 134 364 140 369 q 117 349 128 358 q 97 333 107 339 q 75 322 86 326 q -29 328 11 294 q -74 422 -65 358 q -65 522 -82 481 q 3 586 -50 560 q 61 601 31 599 q 164 583 126 607 q 178 703 165 622 q 204 835 188 774 q 278 1000 236 951 q 302 1022 289 1013 q 331 1038 315 1032 q 361 1045 346 1044 q 393 1042 376 1046 q 418 1029 407 1038 q 436 1009 429 1021 q 448 984 443 997 q 453 957 453 971 q 411 749 463 858 q 390 707 403 729 q 367 671 376 685 q 341 631 358 657 q 317 594 324 604 q 254 500 285 543 q 243 426 238 478 q 272 354 249 375 q 301 343 283 343 q 335 348 319 343 q 364 361 350 353 q 404 390 386 374 q 467 468 438 422 q 489 514 483 494 q 508 563 500 551 m 253 571 q 251 558 251 565 q 307 646 271 589 q 381 771 368 742 q 417 949 421 858 q 381 1004 414 1000 q 324 968 339 1010 q 292 834 307 922 q 272 724 278 746 q 260 637 265 693 q 253 571 254 581 m 110 390 q 145 420 119 396 q 169 451 171 444 q 163 496 164 481 q 163 543 161 514 q 161 543 161 543 q 147 551 156 546 q 133 558 138 556 q 104 561 119 563 q 54 535 75 558 q 32 460 29 504 q 56 399 33 425 q 110 390 79 372 m -26 318 z "},"e":{"ha":401,"x_min":-85,"x_max":401,"o":"m 372 563 q 390 566 379 571 q 400 551 400 561 q 383 492 400 531 q 357 442 375 471 q 256 339 315 379 q 71 288 163 279 q -39 344 -1 293 q -80 455 -75 392 q -58 572 -85 518 q 14 664 -44 622 q 110 701 60 697 q 190 671 178 710 q 192 646 194 660 q 175 611 189 628 q 144 578 163 594 q 99 542 126 563 q 68 519 71 521 q 7 460 36 493 q 11 424 6 442 q 22 400 14 411 q 40 379 31 386 q 88 354 65 363 q 188 346 138 336 q 228 361 211 351 q 268 390 250 374 q 329 468 301 422 q 351 511 346 494 q 356 528 353 515 q 363 549 360 540 q 372 563 367 557 m 14 542 q 6 508 8 526 q 7 510 7 510 q 94 588 26 535 q 117 606 107 597 q 154 664 167 649 q 106 665 144 679 q 61 635 79 656 q 42 608 50 622 q 14 542 24 581 z "},"f":{"ha":438,"x_min":-119,"x_max":443,"o":"m 433 564 q 429 532 443 553 q 422 524 426 528 q 413 515 418 519 q 406 507 408 510 q 361 464 385 485 q 260 396 314 424 q 240 386 250 392 q 247 296 249 342 q 232 196 244 250 q 197 111 218 135 q 143 85 175 86 q 89 108 111 83 q -15 354 13 197 q -101 421 -78 374 q -109 494 -119 458 q -65 553 -99 529 q -33 571 -51 564 q -24 700 -32 636 q 4 833 -12 771 q 49 953 25 911 q 140 1042 89 1022 q 178 1042 160 1049 q 208 1018 197 1035 q 228 936 224 994 q 222 849 231 896 q 181 725 211 788 q 178 718 179 722 q 167 697 172 708 q 82 576 133 636 q 89 575 88 575 q 229 424 190 543 q 255 438 231 424 q 283 454 279 451 q 333 490 308 471 q 378 533 357 510 q 389 547 382 538 q 400 560 396 556 q 415 568 407 567 q 417 568 415 568 q 433 564 428 571 m -75 471 q -22 397 -78 425 q -26 432 -25 414 q -33 529 -32 479 q -75 471 -74 507 m 65 617 q 65 608 65 617 q 132 707 103 654 q 186 847 171 778 q 185 988 204 929 q 151 1008 175 1015 q 144 1004 147 1007 q 138 999 140 1001 q 133 990 136 996 q 130 983 131 985 q 126 974 129 981 q 124 967 124 968 q 113 930 118 950 q 104 885 108 910 q 97 849 100 861 q 82 771 88 801 q 65 617 69 699 m 90 382 q 197 410 140 388 q 147 494 181 458 q 67 542 113 531 q 69 527 68 535 q 70 513 69 519 q 72 504 71 507 q 90 382 75 450 m 200 218 q 206 372 218 306 q 181 364 193 368 q 100 346 138 350 q 129 239 103 346 q 147 186 135 213 q 151 176 147 186 q 157 162 154 167 q 165 151 160 157 q 174 144 169 146 q 183 149 179 143 q 190 166 188 156 q 195 186 193 176 q 199 206 197 196 q 200 218 200 217 z "},"g":{"ha":504,"x_min":-129,"x_max":506,"o":"m 504 554 q 489 519 504 546 q 478 500 486 513 q 468 485 469 488 q 406 403 442 442 q 244 285 336 328 q 150 101 197 156 q 72 56 122 68 q -24 56 21 44 q -99 91 -68 67 q -126 154 -129 115 q -71 244 -122 211 q 60 276 -35 269 q 163 294 118 282 q 183 357 175 326 q 194 387 188 371 q 204 415 200 403 q 211 447 208 428 q 154 372 183 396 q 90 349 126 350 q 25 367 54 349 q -25 414 -6 385 q -42 492 -43 442 q -31 563 -40 526 q -3 622 -24 588 q 71 685 22 664 q 151 688 108 701 q 213 635 194 674 q 209 618 218 625 q 193 619 200 611 q 143 656 171 644 q 86 644 118 667 q 62 617 72 635 q 49 586 51 599 q 40 549 46 574 q 38 492 35 521 q 50 426 39 456 q 65 396 54 414 q 84 381 72 383 q 108 384 96 378 q 131 398 121 390 q 149 415 142 406 q 190 482 171 440 q 224 586 221 547 q 226 622 225 614 q 251 633 228 639 q 279 608 274 628 q 261 338 311 514 q 260 336 260 336 q 268 342 261 338 q 284 351 275 347 q 294 357 293 356 q 328 382 311 369 q 390 444 363 410 q 440 514 418 476 q 449 533 443 518 q 460 557 454 547 q 475 569 467 567 q 489 571 482 572 l 490 571 q 504 554 501 567 m 40 106 q 114 163 82 121 q 149 247 146 204 q 128 244 143 247 q 65 239 110 242 q -3 231 21 236 q -86 169 -69 217 q -47 104 -106 121 q 40 106 -1 92 z "},"h":{"ha":503,"x_min":-58,"x_max":504,"o":"m 501 551 q 496 481 503 533 q 481 413 490 447 q 418 276 454 325 q 356 221 393 244 q 285 207 318 197 q 228 264 247 219 q 221 442 204 321 q 228 467 222 447 q 239 505 235 486 q 245 542 243 524 q 240 572 247 561 q 214 583 232 583 q 171 561 193 583 q 135 515 149 539 q 94 424 106 465 q 96 326 88 399 q 76 264 100 283 q 44 257 61 254 q 10 269 26 260 q -21 313 -15 286 q -29 349 -25 331 q -42 433 -37 394 q -37 701 -57 567 q -11 835 -28 774 q 33 954 10 913 q 125 1043 74 1024 q 163 1043 144 1050 q 194 1019 182 1036 q 213 938 210 996 q 207 850 215 897 q 54 563 181 706 q 61 454 56 511 q 65 424 63 440 q 115 551 79 494 q 201 619 150 608 q 272 604 242 628 q 315 539 301 581 q 318 449 326 510 q 313 379 318 443 q 308 358 311 376 q 306 330 306 340 q 308 306 306 319 q 318 285 310 292 q 342 278 326 278 q 386 300 363 279 q 414 338 401 315 q 431 376 426 361 q 446 422 436 392 q 460 486 456 454 q 461 499 461 492 q 462 513 461 506 q 463 525 463 519 q 468 557 465 551 q 481 568 472 565 q 496 565 489 571 q 500 554 500 561 q 501 551 501 553 m 50 610 q 117 708 88 656 q 171 849 156 779 q 169 989 189 931 q 136 1010 160 1017 q 129 1006 132 1008 q 124 1001 126 1004 q 120 996 122 999 q 116 989 118 993 q 113 982 114 985 q 111 974 113 979 q 108 968 110 969 q 98 931 103 951 q 90 887 93 911 q 82 850 86 863 q 67 772 72 803 q 51 618 54 700 q 51 614 51 617 q 50 610 51 611 z "},"i":{"ha":179,"x_min":-81,"x_max":182,"o":"m 176 557 q 174 488 182 540 q 158 419 168 453 q 142 367 150 389 q 120 318 133 346 q 88 271 107 290 q 46 242 69 251 q -22 242 10 228 q -59 283 -46 253 q -74 336 -72 314 q -78 396 -76 358 q -78 406 -78 403 q -56 615 -81 508 q -44 631 -53 626 q -24 633 -35 635 q -2 626 -12 631 q 15 612 8 621 q 19 594 21 603 q 13 443 8 522 q 13 430 13 439 q 14 413 14 421 q 15 394 14 406 q 18 374 17 382 q 22 354 19 365 q 29 338 25 343 q 39 325 33 332 q 51 319 44 318 q 68 319 58 319 q 92 338 82 324 q 107 365 103 353 q 117 401 111 376 q 124 429 122 425 q 138 492 133 461 q 140 522 139 497 q 145 557 142 546 q 160 568 149 568 q 176 557 172 568 m -31 721 q -49 754 -50 736 q -42 775 -49 765 q -37 783 -40 781 q -12 794 -32 792 q 43 779 17 800 q 65 747 63 765 q 55 717 69 729 q 22 704 40 706 q -31 721 -10 703 z "},"j":{"ha":310,"x_min":-193,"x_max":313,"o":"m 108 671 q 61 689 81 669 q 44 726 44 707 q 51 751 46 740 q 56 760 53 756 q 78 772 61 768 q 128 756 103 778 q 147 719 144 739 q 138 685 150 699 q 108 671 125 672 m 272 557 q 287 569 276 567 q 304 564 297 571 q 307 547 311 557 q 234 440 283 486 q 125 375 185 393 q 118 335 122 356 q 78 200 106 258 q -46 67 33 108 q -104 51 -75 51 q -160 69 -133 50 q -190 146 -193 96 q -164 238 -187 193 q -104 314 -140 283 q 26 385 -56 354 q 41 501 33 424 q 56 615 49 578 q 88 630 60 638 q 121 603 117 622 q 132 539 129 572 q 133 489 135 515 q 129 411 133 453 q 201 456 171 428 q 272 557 250 499 m 1 265 q 19 344 11 304 q -57 306 -25 328 q -154 164 -137 253 q -142 99 -162 118 q -100 85 -121 81 q -62 110 -79 90 q -14 211 -33 147 q 1 265 -6 238 z "},"k":{"ha":550,"x_min":-51,"x_max":553,"o":"m 549 558 q 550 546 553 558 q 547 530 547 533 q 541 515 546 526 q 536 501 536 503 q 474 386 515 447 q 430 328 447 350 q 383 279 413 307 q 322 240 354 251 q 251 236 289 229 q 197 263 219 242 q 150 316 174 283 q 111 364 126 349 q 108 338 110 356 q 106 310 107 321 q 99 285 104 299 q 83 264 93 271 q 51 256 68 253 q 17 269 33 258 q -14 313 -8 285 q -22 349 -18 331 q -35 433 -31 393 q -31 701 -50 567 q -4 833 -21 772 q 40 953 17 913 q 132 1042 81 1022 q 170 1042 151 1049 q 201 1018 189 1036 q 219 936 217 994 q 214 850 222 896 q 169 719 201 785 q 61 563 131 639 q 68 454 63 510 q 69 446 68 450 q 72 455 68 449 q 82 469 76 461 q 88 478 88 478 q 111 510 99 494 q 164 568 135 540 q 225 613 203 603 q 307 633 265 632 q 328 632 317 633 q 387 605 364 629 q 389 549 410 581 q 339 508 378 532 q 276 472 308 489 q 181 433 225 449 q 154 426 168 429 q 143 423 143 424 q 143 415 143 422 q 149 394 144 411 q 157 372 153 382 q 178 329 167 349 q 192 311 185 319 q 276 268 228 267 q 386 329 332 269 q 496 504 465 417 q 502 522 499 510 q 510 544 506 535 q 519 560 514 553 q 534 568 524 568 q 549 558 544 568 m 189 488 q 187 484 189 488 q 183 478 185 481 q 179 475 181 475 q 331 547 265 506 q 336 551 332 549 q 343 556 340 554 q 349 560 346 557 q 355 566 353 564 q 359 572 357 568 q 360 579 361 575 q 331 583 358 592 q 232 531 279 571 q 203 503 217 517 q 189 488 196 496 m 57 610 q 124 707 94 656 q 178 847 163 778 q 176 989 196 929 q 143 1008 167 1017 q 135 1004 139 1007 q 130 999 132 1001 q 125 991 128 996 q 122 983 122 986 q 119 974 121 981 q 115 968 117 968 q 105 931 110 950 q 97 887 100 911 q 89 849 93 863 q 74 772 79 803 q 58 618 61 699 q 58 613 58 617 q 57 610 58 610 z "},"l":{"ha":343,"x_min":-54,"x_max":344,"o":"m 318 560 q 334 566 324 571 q 342 550 344 561 q 310 446 338 519 q 242 278 281 369 q 231 250 240 272 q 219 219 222 228 q 206 192 215 211 q 190 163 196 172 q 172 140 183 154 q 150 117 161 125 q 124 103 139 110 q 92 93 108 96 q 10 117 40 85 q -31 196 -19 150 q -44 297 -39 225 q -43 525 -54 414 q 96 953 -19 769 q 156 1035 136 1015 q 250 1079 203 1085 q 257 1078 254 1078 q 293 1058 278 1074 q 319 911 342 1011 q 250 750 301 829 q 167 646 214 696 q 104 589 136 615 q 64 557 69 561 q 58 554 61 557 q 56 551 57 553 q 47 461 50 507 q 50 321 44 392 q 71 214 57 247 q 92 186 81 192 q 133 192 111 175 q 169 229 156 208 q 242 365 208 293 q 283 464 264 414 q 299 508 288 474 q 318 560 310 542 m 125 828 q 61 592 79 717 q 68 597 65 596 q 90 615 79 606 q 147 668 121 640 q 285 888 250 774 q 301 981 304 946 q 288 1026 299 1006 q 256 1033 276 1047 q 213 992 231 1018 q 125 828 161 917 z "},"m":{"ha":876,"x_min":-37,"x_max":876,"o":"m 847 563 q 865 566 854 571 q 876 551 876 561 q 858 490 875 535 q 832 438 849 465 q 776 347 818 411 q 711 272 744 299 q 632 218 654 228 q 621 214 626 215 q 564 208 597 204 q 513 233 531 213 q 485 318 488 265 q 483 402 483 328 q 478 504 482 476 q 464 539 474 529 q 422 549 449 554 q 351 492 374 540 q 343 463 347 481 q 335 428 339 444 q 324 399 331 411 q 287 369 310 376 q 240 372 264 361 q 210 406 221 382 q 193 522 193 443 q 194 563 193 532 q 194 610 196 593 q 194 615 194 611 q 194 635 194 628 q 192 653 193 642 q 187 671 190 665 q 178 681 183 676 q 164 683 172 685 q 143 671 156 681 q 113 608 124 656 q 103 568 108 592 q 92 521 97 544 q 82 481 86 497 q 76 451 81 474 q 69 415 72 428 q 56 386 65 401 q 32 365 46 371 q 7 362 22 361 q -17 369 -8 363 q -23 381 -21 374 q -26 393 -25 388 q -29 408 -28 399 q -31 419 -31 417 q -36 490 -36 450 q -31 572 -36 532 q -11 646 -24 621 q 29 653 -1 664 q 60 619 57 642 q 59 605 60 613 q 56 588 58 597 q 54 574 54 579 q 51 542 51 550 q 50 514 50 529 q 56 540 53 529 q 125 714 79 657 q 167 743 143 735 q 218 742 192 751 q 245 719 235 735 q 259 688 256 703 q 267 651 263 674 q 278 481 271 610 q 294 456 279 456 q 310 478 303 454 q 331 524 318 507 q 356 551 342 539 q 421 582 383 575 q 540 533 493 599 q 568 465 563 503 q 574 381 574 426 q 579 308 574 335 q 615 277 586 278 q 665 292 644 276 q 794 444 731 332 q 824 507 814 481 q 831 525 826 513 q 838 547 835 538 q 847 563 842 556 z "},"n":{"ha":653,"x_min":-51,"x_max":654,"o":"m 651 560 q 649 501 654 546 q 640 442 644 468 q 615 349 635 406 l 615 347 l 614 346 q 553 218 585 257 q 475 167 524 182 q 389 154 431 153 q 310 169 340 154 q 254 224 274 189 q 239 273 243 247 q 241 330 235 299 q 251 379 247 361 q 269 436 256 397 q 286 483 283 475 q 294 505 288 488 q 302 529 300 522 q 308 551 304 536 q 310 576 311 567 q 308 597 310 585 q 298 618 306 608 q 279 635 290 628 q 201 646 247 656 q 101 583 139 632 q 75 472 63 535 q 90 428 78 456 q 106 392 103 400 q 104 311 122 340 q 75 288 97 297 q 46 279 67 282 q -8 290 13 274 q -43 343 -33 310 q -47 383 -44 353 q -50 465 -51 425 q -37 564 -47 514 q -7 647 -25 622 q 26 647 4 661 q 49 618 47 633 q 49 592 49 600 q 45 565 49 585 q 42 539 42 546 q 113 647 57 608 q 217 682 156 678 q 356 646 314 688 q 390 522 400 600 q 358 403 386 496 q 343 303 342 344 q 361 240 343 265 q 397 213 379 214 q 457 221 428 211 q 510 251 486 231 q 589 381 564 299 q 608 468 601 419 q 614 518 611 486 q 621 560 618 553 q 636 572 624 571 q 651 560 649 572 m 78 363 q 72 387 76 375 q 59 413 67 399 q 49 436 51 428 q 38 486 39 460 q 36 460 36 471 q 40 378 36 418 q 46 351 43 356 q 65 344 53 342 q 78 357 76 346 q 78 363 79 360 z "},"o":{"ha":494,"x_min":-71,"x_max":496,"o":"m 493 551 q 464 486 496 531 q 419 439 444 458 q 326 396 379 407 q 326 394 326 396 q 272 310 311 346 q 182 263 232 275 q 156 258 168 260 q 58 275 106 253 q -21 339 11 297 q -61 429 -53 381 q -51 531 -69 482 q -10 596 -37 567 q 67 650 22 629 q 154 674 121 675 q 285 608 228 671 q 332 524 319 571 q 336 508 335 515 q 340 454 342 482 q 336 431 339 443 q 399 467 372 443 q 436 511 421 486 q 450 535 444 522 q 465 564 463 560 q 483 567 474 571 q 493 551 493 563 m 278 382 q 281 385 279 383 q 257 390 279 386 q 142 453 194 404 q 78 563 90 501 q 44 471 43 524 q 71 396 46 428 q 138 354 96 364 q 211 353 172 346 q 278 382 250 360 m 297 424 q 303 454 303 424 q 301 489 303 485 q 244 596 293 553 q 224 613 233 607 q 164 613 204 622 q 133 603 149 610 q 111 590 111 592 q 124 543 113 567 q 196 459 149 493 q 297 424 243 425 z "},"p":{"ha":444,"x_min":-122,"x_max":447,"o":"m 413 564 q 434 569 421 575 q 443 551 447 564 q 407 492 432 517 q 347 454 382 467 q 272 438 303 439 q 236 436 260 436 q 228 426 232 431 q 121 351 164 365 q 65 355 92 342 q 35 400 38 368 q 48 440 33 424 q 82 462 63 456 q 125 469 101 468 q 153 470 139 469 q 186 472 168 471 q 214 474 204 472 q 221 474 217 474 q 236 492 225 474 q 260 554 257 522 q 247 618 264 586 q 201 651 232 643 q 143 649 169 658 q 36 571 72 629 q 22 543 22 547 q 18 429 22 488 q -42 157 3 260 q -54 145 -44 149 q -76 143 -64 142 q -98 149 -87 144 q -115 160 -108 153 q -119 176 -121 168 q -112 203 -117 189 q -105 229 -108 217 q -98 255 -101 242 q -90 282 -94 268 q -83 307 -86 296 q -57 444 -65 379 q -51 721 -39 575 q -22 735 -53 743 q 11 711 7 726 q 21 600 18 657 q 149 703 69 672 q 282 697 232 736 q 317 633 311 674 q 310 557 324 592 q 268 474 297 514 q 297 478 285 475 q 368 507 346 489 q 413 564 388 524 m 124 393 q 182 433 151 407 q 117 431 131 432 q 74 411 81 428 q 83 386 67 394 q 124 393 97 379 z "},"q":{"ha":438,"x_min":-76,"x_max":451,"o":"m 432 175 q 410 72 451 122 q 292 33 364 19 q 189 107 221 47 q 178 136 185 114 q 164 190 169 161 q 127 199 143 193 q 99 219 111 204 q 88 253 88 233 q 153 321 89 297 q 153 335 153 329 q 156 367 154 350 q 101 332 131 343 q 6 338 57 315 q -67 403 -46 360 q -68 471 -76 424 q -17 572 -57 542 q 74 617 24 604 q 175 615 125 629 q 208 600 193 608 q 219 619 213 611 q 249 623 231 632 q 274 600 268 614 q 278 586 276 593 q 275 553 279 576 q 271 522 274 546 q 265 490 269 511 q 260 461 261 469 q 247 356 250 404 q 303 436 275 386 q 343 508 336 497 q 396 568 376 560 q 412 564 404 571 q 415 549 419 557 q 410 537 414 543 q 399 524 406 531 q 390 514 393 518 q 368 481 379 499 q 347 442 361 467 q 328 407 333 417 q 246 314 289 340 q 253 226 247 267 q 276 226 271 226 q 310 228 288 226 q 346 231 333 231 q 432 175 413 229 m 129 242 q 157 228 138 231 q 153 281 154 254 q 129 242 114 264 m 189 542 q 192 553 190 546 q 196 565 194 561 q 163 582 181 576 q 90 583 125 594 q 38 538 54 572 q 29 515 32 528 q 26 498 26 503 q 24 474 25 493 q 24 453 24 456 q 50 374 22 392 q 84 365 68 363 q 116 380 100 367 q 143 407 132 393 q 163 436 154 421 q 167 444 164 439 q 172 475 169 460 q 189 542 182 517 m 322 86 q 381 98 356 78 q 400 151 406 118 q 379 186 396 175 q 325 192 365 194 q 261 189 296 190 q 272 154 267 171 q 276 144 274 151 q 279 133 278 136 q 283 123 281 129 q 288 113 286 117 q 294 105 290 110 q 302 97 299 100 q 311 92 306 94 q 322 86 317 89 z "},"r":{"ha":429,"x_min":-125,"x_max":429,"o":"m 397 561 q 415 568 403 572 q 428 553 428 564 q 426 527 428 540 q 420 499 425 514 q 413 475 415 485 q 403 447 410 465 q 393 425 396 429 q 340 299 371 360 q 319 253 325 265 q 298 212 314 242 q 272 168 282 182 q 245 130 263 154 q 212 94 228 106 q 176 68 196 82 q 132 47 156 54 q 82 38 108 40 q 38 42 56 36 q -3 76 11 51 q -7 196 -31 132 q 15 243 0 214 q 44 297 31 272 q 68 351 57 321 q 81 405 79 381 q 71 455 83 429 q 31 501 58 481 q -39 550 -37 549 q -40 551 -39 550 q -40 551 -40 551 q -115 671 -99 601 q -106 742 -125 715 q -49 767 -83 774 q 17 644 8 756 q 11 560 19 600 q 65 519 51 532 q 95 496 75 511 q 130 467 115 481 q 154 438 144 453 q 151 329 178 399 q 101 232 140 296 q 50 131 63 168 q 46 85 39 96 q 81 71 54 67 q 131 84 107 75 q 167 103 154 93 q 253 206 214 135 q 326 354 293 278 q 368 461 349 407 q 381 508 372 474 q 397 561 389 543 m -24 589 q -25 669 -18 631 q -26 676 -25 669 q -28 684 -28 682 q -31 693 -29 686 q -33 703 -32 700 q -35 710 -33 706 q -40 718 -37 715 q -44 724 -42 721 q -51 730 -47 728 q -58 733 -54 732 q -82 718 -76 736 q -83 683 -87 700 q -29 594 -71 633 q -28 593 -29 594 q -24 589 -25 590 z "},"s":{"ha":389,"x_min":-56,"x_max":389,"o":"m 361 564 q 378 567 368 571 q 389 553 388 563 q 351 485 389 525 q 293 439 329 463 q 197 396 247 413 q 225 318 224 357 q 224 292 225 304 q 181 214 217 246 q 99 172 146 182 q 35 173 68 167 q -25 201 1 179 q -53 257 -51 224 q 4 353 -56 310 q 92 394 26 369 q 52 435 78 410 q 21 467 26 460 q -44 582 -36 526 q -42 664 -53 629 q 8 731 -28 706 q 71 753 36 750 q 133 733 106 756 q 119 633 174 696 q 97 610 113 625 q 76 590 82 596 q 57 565 64 576 q 47 544 56 564 q 54 535 50 539 q 122 469 72 511 q 132 462 122 469 q 152 445 142 454 q 171 429 163 436 q 178 422 175 426 q 269 465 226 439 q 322 507 303 488 q 343 533 335 519 q 347 541 344 536 q 351 549 349 546 q 356 557 353 553 q 361 564 358 561 m 28 588 q 65 628 38 603 q 99 661 90 651 q 117 699 118 685 q 103 715 114 708 q 85 719 93 721 q 53 704 68 717 q 44 696 47 700 q 25 594 8 660 q 28 588 26 592 m 83 229 m 128 267 q 114 365 151 308 q 97 360 108 364 q 80 353 86 356 q 63 347 74 351 q 47 340 53 343 q 32 331 40 336 q 17 321 24 326 q 3 308 10 315 q -19 250 -26 278 q 6 219 -14 226 q 50 218 26 211 q 96 238 74 225 q 126 264 118 250 q 128 267 126 265 z "},"t":{"ha":336,"x_min":-231,"x_max":339,"o":"m 310 564 q 326 569 315 574 q 333 553 336 564 q 301 449 329 524 q 233 281 272 372 q 218 243 225 258 q 198 203 211 228 q 174 163 185 179 q 145 130 163 147 q 110 106 128 113 q 72 99 93 99 q 26 111 50 99 q -10 147 4 122 q -36 226 -28 176 q -43 279 -40 251 q -47 382 -46 314 q 31 826 -51 626 q 18 825 24 825 q -85 832 -33 822 q -183 864 -151 843 q -217 902 -206 879 q -222 950 -229 925 q -195 985 -217 972 q -151 990 -174 999 q -140 967 -135 983 q -161 954 -144 950 q -175 951 -168 956 q -185 939 -182 947 q -174 907 -189 924 q -96 874 -154 886 q 49 865 -25 857 q 108 972 75 922 q 132 1006 119 989 q 167 1050 151 1033 q 209 1081 182 1067 q 264 1092 236 1094 q 288 1085 276 1090 q 308 1073 299 1081 q 322 1054 317 1065 q 329 1031 328 1043 q 214 882 338 950 q 133 847 175 860 q 126 831 128 836 q 49 464 57 661 q 51 324 46 394 q 72 217 57 250 q 93 189 81 194 q 178 257 128 171 q 233 368 192 279 q 275 467 256 417 q 290 511 279 476 q 310 564 301 546 m 214 994 q 154 893 185 956 q 204 917 181 903 q 297 1028 303 972 q 226 1010 292 1086 l 214 994 z "},"u":{"ha":465,"x_min":-69,"x_max":465,"o":"m 463 558 q 460 500 465 543 q 451 440 457 467 q 439 386 449 419 q 417 322 421 332 q 374 275 401 293 q 290 271 329 249 q 251 310 265 285 q 243 331 246 319 q 239 350 240 342 q 236 371 238 358 q 233 392 235 383 q 231 408 232 400 q 228 397 229 403 q 213 358 218 372 q 195 322 207 344 q 167 288 183 300 q 132 272 151 276 q 96 268 114 268 q 29 282 57 268 q -29 334 -4 300 q -62 407 -54 368 q -68 472 -68 439 q -60 546 -68 511 q -47 581 -54 564 q -40 596 -43 590 l -18 626 q -12 628 -19 628 q -1 629 -4 629 q 15 624 7 628 q 39 594 36 613 q 33 551 40 588 q 28 525 31 540 q 24 467 22 496 q 89 317 29 353 q 135 313 114 303 q 169 350 157 324 q 200 431 186 383 q 218 518 213 475 q 222 561 221 533 q 231 603 224 574 q 235 610 231 607 q 256 628 239 626 q 285 615 272 629 q 308 524 318 585 q 294 396 294 443 q 308 335 293 353 q 341 317 321 319 q 374 328 361 315 q 400 378 390 346 q 419 467 413 417 q 425 515 422 483 q 432 558 429 550 q 449 570 436 569 q 463 558 461 571 z "},"v":{"ha":551,"x_min":-43,"x_max":554,"o":"m 518 558 q 533 568 524 568 q 548 559 542 568 q 549 540 554 550 q 450 434 515 474 q 313 401 385 394 q 304 401 308 401 q 288 377 301 397 q 265 347 274 357 q 222 304 257 336 q 138 257 181 267 q 47 274 64 239 q 1 383 19 326 q -29 500 -18 440 q -42 624 -42 565 q -31 754 -42 707 q -11 768 -25 769 q 18 756 3 767 q 33 733 33 744 q 49 617 47 621 q 72 508 63 542 q 110 399 86 451 q 132 350 118 378 q 143 331 135 346 q 154 307 151 315 q 199 335 174 314 q 268 408 238 367 q 211 433 236 417 q 143 553 146 476 q 148 602 142 578 q 169 647 154 626 q 204 682 183 668 q 273 703 233 703 q 340 679 313 703 q 368 532 397 633 q 326 436 354 483 q 353 439 340 436 q 447 478 404 444 q 518 558 490 511 m 300 458 q 343 589 342 533 q 339 619 343 604 q 326 644 335 633 q 305 662 318 656 q 275 668 292 668 q 219 651 243 669 q 186 606 196 633 q 178 549 176 579 q 199 493 181 518 q 290 440 228 453 q 300 458 296 450 z "},"w":{"ha":781,"x_min":-53,"x_max":783,"o":"m 750 560 q 769 567 756 572 q 779 547 782 561 q 690 385 751 433 q 550 335 629 335 q 550 334 550 335 q 550 332 550 333 q 532 289 542 311 q 503 234 519 260 q 464 186 486 208 q 412 153 442 164 q 350 149 382 143 q 282 181 314 156 q 214 310 221 229 q 213 346 213 326 q 118 278 171 301 q -6 269 39 244 q -37 309 -26 282 q -50 357 -49 336 q -51 410 -51 378 q -43 506 -50 460 q 6 658 -28 607 q 57 632 24 688 q 76 582 78 599 q 68 550 76 571 q 61 531 67 546 q 53 511 56 517 q 47 492 51 506 q 40 471 42 478 q 35 451 38 464 q 31 431 32 439 q 28 410 29 422 q 28 389 28 399 q 28 374 28 385 q 28 358 28 364 q 30 344 28 353 q 36 331 32 336 q 49 321 40 325 q 92 315 67 311 q 194 378 150 325 q 232 444 215 404 q 250 488 239 469 q 277 496 261 504 q 307 470 293 488 q 324 442 321 453 q 318 369 329 414 q 304 299 304 318 q 313 261 306 279 q 331 231 319 243 q 361 212 343 218 q 400 208 379 206 q 404 208 401 208 q 442 219 424 211 q 442 221 442 219 q 467 247 454 229 q 508 317 486 272 q 518 338 513 326 q 408 401 444 349 q 379 444 392 421 q 353 567 356 496 q 378 696 349 650 q 404 728 388 714 q 446 753 422 744 q 456 756 451 754 q 565 724 525 775 q 610 601 606 674 q 610 563 611 581 q 607 540 608 553 q 586 435 601 492 q 565 371 578 403 q 572 372 569 372 q 688 432 640 379 q 713 469 703 449 q 733 518 724 490 q 750 560 743 546 m 546 410 q 563 472 556 440 q 572 622 582 564 q 549 685 567 657 q 500 721 531 713 q 451 708 475 722 q 417 667 428 693 q 406 563 400 629 q 426 467 410 506 q 453 422 438 440 q 489 393 467 408 q 513 378 508 381 q 526 372 519 375 q 533 372 532 371 q 536 379 533 372 q 546 410 542 394 z "},"x":{"ha":579,"x_min":-42,"x_max":579,"o":"m 550 564 q 567 567 557 572 q 578 551 578 563 q 561 497 578 542 q 540 449 550 468 q 479 358 515 394 q 382 296 436 318 q 275 272 318 271 q 193 282 219 274 q 153 300 172 289 q 113 326 131 313 q 104 318 107 321 q 81 294 97 310 q 58 274 65 279 q 18 236 32 243 q 4 236 11 232 q -3 248 -3 240 q 4 261 -3 256 q 18 272 11 265 q 33 289 25 279 q 46 304 42 299 q 86 349 83 344 q 74 361 79 356 q 10 447 39 397 q -25 524 -11 485 q -40 589 -31 538 q -36 603 -42 597 q -21 610 -31 610 q 19 590 3 611 q 42 564 25 585 q 68 531 58 543 q 93 493 79 514 q 140 432 117 458 q 163 467 156 458 q 233 564 199 528 q 276 601 254 585 q 329 625 310 624 q 344 615 340 625 q 340 597 349 604 q 326 587 335 592 q 308 576 318 582 q 292 567 299 571 q 250 528 272 553 q 181 431 221 496 q 172 417 178 425 q 165 406 167 408 q 214 371 189 383 q 339 342 276 335 q 446 379 397 347 q 511 471 481 401 q 529 517 518 488 q 550 564 543 556 m 263 349 q 260 350 263 350 q 263 349 261 350 z "},"y":{"ha":478,"x_min":-56,"x_max":481,"o":"m 447 563 q 467 569 454 575 q 476 550 481 564 q 388 393 454 479 q 292 300 340 332 q 276 290 285 296 q 274 274 274 279 q 267 236 271 254 q 169 96 243 133 q 114 81 146 83 q 52 92 82 79 q 14 133 22 106 q 44 208 0 174 q 136 263 71 231 q 203 296 147 268 q 219 408 217 371 q 220 420 219 413 q 222 435 221 428 q 222 447 222 442 q 194 378 221 424 q 115 307 165 326 q 11 318 64 288 q -44 407 -29 344 q -54 476 -53 438 q -49 549 -56 514 q -17 626 -36 604 q 8 632 -6 636 q 32 616 21 628 q 44 593 43 604 q 44 572 46 583 q 41 549 43 561 q 38 528 39 536 q 39 467 36 494 q 61 386 44 425 q 64 378 61 385 q 68 367 67 371 q 73 358 69 364 q 79 349 76 353 q 86 343 82 346 q 94 339 90 340 q 146 374 113 338 q 194 493 178 410 q 206 554 206 553 q 208 565 206 557 q 210 578 210 574 q 213 590 211 582 q 217 601 215 597 q 223 611 219 606 q 230 619 226 617 q 238 623 233 621 q 249 623 243 625 q 263 617 256 621 q 278 592 275 608 q 288 535 288 536 q 288 532 288 533 q 289 471 289 493 q 282 339 289 401 q 299 353 292 346 q 356 413 329 381 q 376 440 367 425 q 396 471 386 454 q 413 501 406 488 q 430 533 419 514 q 447 563 440 551 m 194 240 q 196 251 194 244 q 125 217 146 228 q 113 210 122 215 q 99 203 103 206 q 86 197 94 201 q 73 188 78 192 q 62 178 68 183 q 51 167 56 172 q 52 136 39 149 q 88 118 65 124 q 161 156 129 108 q 194 240 188 196 z "},"z":{"ha":438,"x_min":-94,"x_max":440,"o":"m 403 560 q 418 568 408 568 q 434 559 428 568 q 435 540 440 550 q 297 392 389 450 q 222 344 293 390 q 224 331 224 338 q 167 154 231 244 q 57 57 114 79 q -21 49 21 38 q -75 103 -62 60 q -4 235 -93 169 q 58 278 17 251 q 107 311 99 306 q 178 358 138 332 q 161 369 171 365 q 103 382 135 381 l 101 382 q 71 368 88 374 q 33 368 54 363 q 3 389 13 374 q 25 428 -10 410 q 47 440 44 439 q 135 515 97 471 q 174 572 154 539 q 197 621 185 590 q 198 625 197 622 q 199 631 199 628 q 201 633 200 633 q 183 624 193 629 q 150 601 182 622 q 24 485 79 554 q 0 485 14 472 q -19 504 -11 493 q -36 528 -29 515 q -49 553 -39 532 q -57 581 -53 563 q -60 611 -60 596 q -43 686 -60 649 q 4 738 -26 724 q 35 742 18 744 q 63 726 53 739 q 65 663 79 704 q -8 546 43 597 q 11 521 0 532 q 178 657 85 610 q 231 669 203 672 q 276 639 260 665 q 265 550 297 606 q 208 467 236 497 q 142 407 179 433 q 188 392 171 403 q 206 376 199 385 q 267 415 236 396 q 403 560 358 472 m -22 581 q 24 649 6 611 q 39 700 42 686 q 24 708 33 710 q 7 700 15 707 q -25 597 -32 661 q -22 581 -24 589 m 193 304 q 194 316 193 307 q 193 326 194 325 q 147 297 186 322 q 108 269 144 294 q 51 232 71 244 q 41 226 50 232 q 26 216 32 219 q 9 205 19 213 q -8 191 -1 197 q -24 177 -15 185 q -36 162 -32 169 q -43 147 -40 154 q -44 131 -46 139 q -36 117 -43 124 q 3 104 -22 100 q 128 182 65 111 q 185 281 154 210 q 192 299 190 292 q 193 304 193 301 z "},"{":{"ha":493,"x_min":61,"x_max":428,"o":"m 417 304 q 420 276 428 288 q 394 257 413 264 q 247 265 324 228 q 171 354 189 294 q 168 482 158 393 q 158 600 176 563 q 146 622 154 610 q 139 632 142 628 q 133 638 139 632 q 122 647 128 642 l 119 649 l 118 650 l 117 651 l 115 651 q 104 658 108 656 q 103 659 104 658 q 100 660 101 660 q 71 700 63 675 q 124 719 79 724 l 122 719 q 127 720 124 719 q 131 721 131 721 q 133 721 132 721 q 136 722 135 721 q 147 726 144 725 q 151 729 147 726 q 163 738 157 733 q 174 751 168 743 q 188 785 183 765 q 192 822 193 804 q 192 858 192 839 q 215 971 189 936 q 261 1007 233 996 q 289 1014 276 1013 q 308 1013 300 1014 l 322 1011 q 313 1013 322 1011 q 357 979 350 1006 q 351 960 361 967 q 329 954 342 953 q 305 945 315 957 q 290 919 294 933 q 283 890 285 904 q 283 853 282 875 q 286 815 285 831 q 286 776 288 799 q 232 685 278 718 q 208 671 221 676 q 246 624 231 649 q 271 490 276 571 q 269 462 271 483 q 266 429 267 440 q 267 401 265 418 q 274 371 268 383 q 296 335 281 347 q 307 326 300 332 q 310 325 307 326 q 314 324 313 324 q 319 321 319 321 q 325 319 324 319 l 324 319 q 328 319 326 319 q 333 318 333 318 q 335 318 333 318 q 340 318 338 318 l 343 318 q 417 304 397 328 z "},"|":{"ha":290,"x_min":65,"x_max":222,"o":"m 218 700 q 219 540 222 608 q 192 274 215 404 q 181 207 185 232 q 178 198 179 206 q 176 188 176 190 q 174 181 175 186 q 170 172 172 175 q 165 166 168 169 q 158 160 161 163 q 120 151 142 150 q 83 163 99 151 q 72 207 67 175 q 75 224 72 213 q 78 240 78 235 q 89 301 83 271 q 121 581 111 450 q 128 724 128 675 q 131 871 131 871 q 144 888 129 885 q 168 888 160 892 q 204 850 201 878 q 218 700 218 718 z "},"}":{"ha":468,"x_min":60,"x_max":403,"o":"m 396 690 q 397 670 401 679 q 382 656 393 661 q 358 640 369 650 q 338 619 347 631 q 321 593 328 607 q 311 565 314 579 q 306 526 307 547 q 307 488 306 504 q 310 449 308 472 q 314 410 313 425 q 267 283 318 326 q 192 246 235 254 q 138 242 167 240 q 76 269 96 244 q 81 303 60 290 q 124 315 101 317 q 157 311 140 315 q 158 311 158 311 q 160 311 160 311 l 161 311 q 164 311 163 311 q 169 314 168 313 q 174 316 171 314 q 176 318 176 318 l 181 321 q 185 325 183 324 q 199 343 194 333 q 215 408 214 369 q 213 476 217 447 q 228 613 206 563 q 269 672 242 646 q 200 768 213 707 q 197 806 197 793 q 199 843 197 818 q 200 881 200 868 q 194 928 200 910 q 188 944 192 938 q 183 950 185 949 q 133 974 149 946 q 144 1003 121 996 q 214 994 175 1014 q 286 890 278 964 q 288 856 288 875 q 287 819 288 836 q 288 783 286 801 q 296 749 290 764 q 307 731 300 739 q 311 725 307 729 q 317 719 317 721 q 326 714 322 717 q 328 714 326 714 q 331 713 329 714 q 335 713 333 713 q 340 713 338 713 l 344 713 q 363 711 353 714 q 381 703 372 708 q 396 690 390 697 z "},"~":{"ha":746,"x_min":65,"x_max":679,"o":"m 675 686 q 663 625 678 665 q 628 568 649 592 q 525 513 588 522 q 417 538 458 503 q 372 603 392 560 q 336 669 349 656 q 333 672 336 671 l 332 676 l 326 681 q 315 690 321 685 q 311 692 314 690 q 307 696 308 694 q 306 696 306 696 q 289 704 293 701 q 284 706 288 704 q 279 708 281 708 q 278 708 278 708 q 258 713 264 711 q 257 713 257 713 q 256 713 257 713 q 254 711 256 713 q 250 711 254 713 q 248 711 249 711 q 247 711 247 711 l 249 711 q 242 710 244 710 q 240 709 242 710 q 239 708 239 708 q 233 706 238 708 l 231 706 l 231 704 l 229 704 q 231 704 231 704 q 226 702 229 704 q 222 699 224 700 q 197 676 210 692 q 179 646 190 665 q 165 607 171 626 q 167 531 156 558 q 161 510 171 517 q 139 503 151 503 q 90 533 106 504 q 71 631 65 586 q 107 714 75 674 q 167 762 131 743 q 242 784 203 781 q 322 781 282 788 q 396 754 361 775 q 453 703 431 733 q 465 681 460 693 q 477 654 471 669 q 488 632 483 639 q 508 599 496 614 q 511 594 508 597 q 508 597 511 596 q 510 596 510 597 q 511 594 511 594 q 515 592 514 593 q 518 590 515 592 q 521 592 519 590 l 519 590 l 519 592 l 521 592 l 524 594 q 528 599 526 597 q 531 603 528 599 q 545 630 539 615 q 558 663 551 644 q 568 694 564 682 q 601 719 575 713 q 650 716 626 725 q 675 686 674 707 m 519 590 z "},"":{"ha":422,"x_min":0,"x_max":0,"o":""},"":{"ha":321,"x_min":68,"x_max":257,"o":"m 176 874 q 201 858 190 869 q 210 833 213 847 q 172 543 178 690 q 172 397 169 471 q 178 328 175 363 q 182 290 179 308 q 183 285 182 288 q 183 279 183 282 q 183 274 183 276 q 175 244 185 264 q 147 228 167 229 q 113 235 126 226 q 108 238 111 235 q 96 244 100 242 q 87 251 92 246 q 79 261 82 256 q 76 275 76 267 q 75 292 75 276 q 72 332 74 311 q 69 406 69 368 q 75 558 68 482 q 125 860 86 710 q 147 876 129 874 q 176 874 165 878 m 235 994 q 250 964 257 981 q 222 942 243 947 q 185 943 200 938 q 132 994 139 957 q 156 1042 126 1026 q 238 1035 196 1063 q 251 1017 249 1028 q 243 999 254 1007 q 235 994 240 996 m 207 981 z "},"":{"ha":757,"x_min":61,"x_max":692,"o":"m 681 483 q 686 461 690 471 q 668 444 682 451 q 513 394 608 410 q 357 390 436 382 q 321 394 339 392 q 263 271 293 328 q 249 263 257 263 q 234 271 240 263 q 233 289 228 279 q 256 341 239 301 q 283 403 274 381 q 131 481 186 426 q 73 583 85 524 q 85 700 61 643 q 265 861 129 813 q 426 889 335 886 q 447 1042 440 965 q 456 1054 449 1050 q 471 1054 464 1058 q 476 1042 478 1050 q 458 889 471 964 q 544 885 497 889 q 579 860 572 882 q 574 844 582 851 q 557 839 567 838 q 450 839 485 840 q 382 567 425 700 q 344 456 363 507 q 415 447 382 449 q 621 489 518 443 q 681 483 658 506 m 308 465 q 417 838 379 649 q 286 807 342 832 q 205 749 239 786 q 161 661 171 711 q 170 572 151 614 q 231 501 189 529 q 308 465 263 479 z "},"":{"ha":686,"x_min":68,"x_max":626,"o":"m 611 817 q 606 789 625 797 q 563 799 586 781 q 479 847 519 829 q 401 868 439 865 q 381 868 392 868 q 379 868 379 868 q 378 868 378 868 q 368 867 369 867 q 342 861 353 864 q 288 825 307 849 q 262 752 264 797 q 269 672 260 707 q 279 597 276 625 q 281 597 279 597 q 283 597 282 597 q 385 597 333 594 q 433 601 410 599 q 482 607 476 607 q 494 592 493 604 q 486 575 496 581 q 436 565 478 569 q 382 560 408 561 q 281 561 332 557 q 275 506 281 532 q 219 379 261 438 q 326 356 274 361 q 451 358 381 350 q 500 357 488 363 q 517 338 515 350 q 507 315 519 326 q 446 300 493 306 q 414 297 431 299 q 132 340 269 288 q 117 355 122 344 q 119 374 113 365 q 194 558 192 456 q 194 574 194 565 q 79 608 135 586 q 69 619 71 611 q 73 632 68 626 q 86 635 78 638 q 192 608 138 618 q 186 651 190 624 q 180 699 182 678 q 178 740 178 721 q 261 889 179 843 q 442 915 338 932 q 531 886 490 907 q 579 856 557 872 q 611 817 593 843 z "},"":{"ha":576,"x_min":64,"x_max":513,"o":"m 442 596 q 507 449 510 538 q 447 313 506 369 q 504 250 482 282 q 502 235 510 243 q 486 233 494 228 q 422 293 454 256 q 365 263 396 274 q 265 251 317 246 q 171 283 213 256 q 113 210 131 232 q 98 204 106 201 q 88 215 90 207 q 90 232 85 224 q 147 301 107 254 q 124 326 135 313 q 83 438 86 375 q 114 554 79 501 q 133 579 122 567 q 72 649 97 618 q 74 669 65 660 q 92 668 82 678 q 158 601 121 642 q 238 638 194 628 q 271 644 250 640 q 317 646 294 647 q 382 632 349 644 q 415 617 399 625 q 424 624 418 619 q 431 631 429 629 q 483 681 464 663 q 503 681 493 690 q 503 661 513 671 q 453 608 485 640 q 448 602 451 606 q 442 596 444 599 m 319 311 m 414 415 q 397 518 424 471 q 321 582 372 564 q 315 583 318 582 q 314 583 315 583 q 301 586 307 585 q 294 588 299 588 q 288 589 289 589 l 283 589 q 281 590 281 590 q 264 590 275 590 q 192 539 219 576 q 164 454 165 501 q 199 356 164 396 q 239 324 217 335 q 264 313 253 317 q 278 310 271 311 q 282 310 279 310 l 285 310 q 299 308 293 308 q 306 308 301 308 l 303 308 q 308 310 306 308 q 315 310 313 310 q 319 311 317 311 q 322 311 322 311 q 346 319 338 317 q 356 326 350 322 q 364 331 363 331 q 394 365 382 344 q 414 415 408 388 z "},"":{"ha":622,"x_min":67,"x_max":556,"o":"m 539 438 q 553 428 550 439 q 546 410 556 417 q 496 392 535 403 q 444 379 471 383 q 389 369 417 374 q 392 263 392 317 q 372 235 393 244 q 328 232 350 226 q 304 256 306 238 q 303 364 303 307 q 129 386 215 364 q 122 406 114 390 q 138 413 126 415 q 304 396 219 394 q 304 457 304 428 q 140 461 225 453 q 128 469 132 463 q 128 483 125 476 q 140 489 132 489 q 306 492 221 485 q 308 557 307 525 q 249 586 272 561 q 206 646 236 599 q 163 715 172 700 q 150 735 157 724 q 138 754 143 746 q 126 773 133 763 q 114 792 119 783 q 89 839 103 813 q 69 885 71 875 q 88 900 68 900 q 115 893 108 900 q 181 821 135 879 q 228 754 185 815 q 278 682 258 710 q 314 629 310 633 q 326 615 317 625 q 331 619 331 618 q 346 640 339 628 q 408 758 376 686 q 435 821 422 789 q 447 857 442 839 q 449 863 447 857 q 453 872 451 868 q 458 882 453 874 q 460 883 460 883 q 501 896 472 899 q 517 892 510 894 q 530 883 524 889 q 536 869 536 878 q 524 828 536 861 q 510 789 517 808 q 474 710 493 749 q 436 639 458 676 q 396 583 415 603 q 375 569 386 575 q 382 500 379 533 q 462 515 410 504 q 531 529 514 526 q 550 518 546 532 q 539 499 554 504 q 385 465 479 476 q 388 403 386 436 q 443 413 417 407 q 492 425 468 418 q 539 438 532 438 z "},"":{"ha":613,"x_min":50,"x_max":547,"o":"m 499 874 q 533 831 519 856 q 542 785 546 807 q 528 774 539 775 q 513 781 517 772 q 498 811 510 785 q 474 849 486 838 q 383 882 440 879 q 283 854 311 886 q 254 757 247 813 q 286 679 260 718 q 347 613 313 640 q 424 540 389 579 q 463 494 450 511 q 491 447 476 478 q 503 389 506 415 q 433 276 496 318 q 428 260 432 275 q 422 242 424 244 q 399 210 413 224 q 319 168 368 181 q 226 161 271 156 q 140 190 179 167 q 97 253 100 213 q 105 267 97 263 q 121 267 113 271 q 131 253 129 263 q 178 207 132 228 q 242 192 207 193 q 299 204 274 189 q 333 250 325 219 q 310 342 347 303 q 298 351 304 347 q 286 358 292 356 q 275 363 281 361 q 263 367 269 365 q 250 369 256 368 q 237 372 244 371 q 222 375 229 374 q 92 454 126 396 q 81 586 51 521 q 122 640 96 618 q 151 658 136 651 q 179 669 174 669 q 167 786 144 714 q 236 874 185 840 q 396 915 310 921 q 499 874 457 911 m 368 511 q 330 534 356 519 q 289 558 304 549 q 253 583 274 568 q 219 614 233 599 q 176 576 192 601 q 163 521 160 550 q 186 468 167 490 q 232 442 201 450 q 275 433 244 439 q 328 419 306 426 q 369 403 350 413 q 432 322 418 375 q 467 396 465 353 q 425 475 468 442 q 368 511 421 479 m 272 364 z "},"":{"ha":272,"x_min":67,"x_max":204,"o":"m 90 876 q 110 876 100 883 q 121 857 119 868 q 115 839 121 847 q 100 828 110 831 q 88 828 94 826 q 76 835 81 831 q 69 846 71 839 q 73 862 68 854 q 85 872 78 869 q 90 876 88 875 m 203 857 q 197 839 203 847 q 182 828 192 831 q 163 831 172 825 q 151 846 154 836 q 155 862 150 854 q 167 872 160 869 q 172 876 169 875 q 183 879 178 881 q 192 875 188 878 q 199 867 196 872 q 203 857 201 863 z "},"":{"ha":968,"x_min":57,"x_max":914,"o":"m 896 626 q 843 361 914 483 q 633 185 774 242 q 353 168 492 128 q 138 321 218 206 q 71 568 57 436 q 183 813 85 707 q 369 931 258 894 q 399 958 368 949 q 493 975 442 972 q 694 928 600 979 q 743 908 719 918 q 761 881 765 897 q 771 871 767 875 q 896 626 878 769 m 783 426 q 796 660 825 542 q 664 857 764 782 q 560 907 614 893 q 379 874 463 910 q 207 721 268 825 q 160 497 143 613 q 257 308 175 389 q 344 244 300 267 q 450 214 392 221 q 453 213 450 214 q 457 213 456 213 q 472 213 465 213 q 500 213 486 213 q 510 214 508 214 q 507 214 510 214 q 522 215 521 215 q 549 221 536 217 q 553 222 550 221 q 558 223 556 222 q 561 224 561 224 q 571 226 567 225 q 599 236 585 231 q 613 242 604 239 q 614 243 614 243 q 619 246 618 244 q 644 258 632 251 q 725 328 692 288 q 783 426 763 372 m 613 456 q 631 456 622 461 q 640 440 640 450 q 632 424 640 431 q 439 374 524 353 q 372 413 400 383 q 333 482 343 443 q 360 631 311 561 q 488 707 408 699 q 633 658 569 717 q 638 651 638 656 q 635 642 638 646 q 629 635 633 638 q 620 633 625 633 q 611 638 615 633 q 548 670 585 661 q 476 671 511 679 q 380 595 413 656 q 372 475 347 535 q 390 447 379 460 q 413 426 400 435 q 442 411 426 417 q 475 406 457 406 q 613 456 535 404 z "},"":{"ha":767,"x_min":68,"x_max":701,"o":"m 400 310 q 410 303 403 307 q 422 296 418 299 q 432 288 426 293 q 440 278 438 283 q 442 256 449 265 q 421 247 436 246 q 369 267 411 249 q 331 285 351 274 q 81 468 207 350 q 70 489 71 478 q 81 508 69 500 q 375 689 256 615 q 425 682 399 703 q 440 663 435 675 q 436 643 444 651 q 163 472 331 576 q 272 388 211 431 q 313 362 290 375 q 359 334 335 349 q 400 310 383 319 m 693 278 q 695 256 701 265 q 675 247 689 246 q 622 267 665 249 q 583 285 606 274 q 333 468 460 350 q 323 489 324 478 q 333 508 322 500 q 628 689 508 615 q 678 682 651 703 q 692 663 688 675 q 689 643 697 651 q 415 472 583 576 q 525 388 464 431 q 592 346 547 372 q 653 310 638 319 q 663 303 656 307 q 675 296 671 299 q 685 288 679 293 q 693 278 690 283 z "},"":{"ha":0,"x_min":0,"x_max":0,"o":""},"":{"ha":968,"x_min":57,"x_max":914,"o":"m 896 626 q 843 361 914 483 q 633 185 774 242 q 353 168 492 128 q 138 321 218 206 q 71 568 57 436 q 183 813 85 707 q 369 931 258 894 q 399 958 368 949 q 493 975 442 972 q 694 928 600 979 q 743 908 719 918 q 761 881 765 897 q 771 871 767 875 q 896 626 878 769 m 783 426 q 796 660 825 542 q 664 857 764 782 q 560 907 614 893 q 379 874 463 910 q 207 721 268 825 q 160 497 143 613 q 257 308 175 389 q 344 244 300 267 q 450 214 392 221 q 453 213 450 214 q 457 213 456 213 q 472 213 465 213 q 500 213 486 213 q 510 214 508 214 q 507 214 510 214 q 522 215 521 215 q 549 221 536 217 q 553 222 550 221 q 558 223 556 222 q 561 224 561 224 q 571 226 567 225 q 599 236 585 231 q 613 242 604 239 q 614 243 614 242 q 619 246 618 244 q 644 258 632 251 q 725 328 692 288 q 783 426 763 372 m 615 490 q 631 506 617 506 q 649 490 646 506 q 611 422 653 447 q 531 418 575 401 q 502 433 515 424 q 479 453 489 443 q 458 478 469 463 q 439 503 446 493 q 421 531 432 513 q 404 557 410 549 q 406 578 397 567 q 425 585 414 589 q 525 590 478 567 q 570 625 550 603 q 572 667 590 647 q 529 686 561 678 q 467 693 499 693 q 407 688 436 693 q 394 685 401 688 q 395 556 394 657 q 396 401 396 456 q 392 390 396 394 q 382 385 388 386 q 372 385 376 383 q 363 390 367 386 q 360 401 358 394 q 359 428 360 406 q 360 454 358 450 q 360 456 360 456 q 361 569 360 494 q 364 676 363 643 q 344 671 351 674 q 330 678 333 668 q 335 693 326 688 q 469 729 385 728 q 582 706 542 729 q 615 664 608 690 q 606 613 621 638 q 544 557 585 576 q 458 540 503 538 q 524 464 494 483 q 585 451 557 442 q 606 466 597 456 q 615 490 615 476 z "},"":{"ha":653,"x_min":67,"x_max":585,"o":"m 557 715 q 575 703 567 713 q 583 685 583 694 q 556 660 583 664 q 367 657 501 654 q 365 581 365 618 q 368 531 365 572 q 369 506 369 518 q 371 494 371 494 q 361 468 371 485 q 311 453 349 446 q 307 453 310 453 q 303 454 304 454 q 260 486 263 461 q 260 657 251 561 q 119 660 192 658 q 90 669 104 660 q 71 690 75 678 q 72 706 68 699 q 83 715 75 713 q 99 718 90 717 q 265 722 175 719 q 278 794 271 764 q 308 900 288 833 q 330 915 313 913 q 358 913 347 917 q 375 904 367 910 q 388 890 383 899 q 392 872 393 882 q 378 776 383 835 q 374 747 376 767 q 371 724 372 728 q 399 724 376 724 q 435 724 422 724 q 463 724 438 724 q 498 725 489 725 q 525 723 507 725 q 557 715 543 721 m 503 415 q 534 401 519 413 q 544 374 549 389 q 474 351 539 351 q 462 351 468 351 q 449 352 456 351 q 438 353 442 353 q 365 353 385 354 q 329 351 347 353 q 311 350 319 351 q 308 350 310 350 q 303 350 304 350 q 299 349 303 350 q 294 349 299 349 q 292 349 292 349 q 283 347 288 349 q 264 346 274 347 q 229 340 240 342 q 151 325 224 340 q 97 343 119 319 q 88 363 89 351 q 99 379 86 374 q 282 417 164 404 q 457 426 385 429 q 476 425 467 425 q 485 425 485 425 q 493 420 488 424 q 503 415 499 417 z "},"":{"ha":257,"x_min":64,"x_max":196,"o":"m 156 888 q 183 881 171 896 q 181 854 196 867 q 159 837 175 849 q 135 817 143 825 q 100 776 113 794 q 78 771 92 763 q 71 794 65 779 q 104 844 83 822 q 156 888 132 878 z "},"":{"ha":651,"x_min":67,"x_max":583,"o":"m 572 949 q 579 937 576 943 q 581 922 582 931 q 581 910 581 914 q 577 894 581 907 q 574 881 574 882 q 550 768 561 825 q 508 496 522 611 q 497 357 501 426 q 495 311 496 339 q 493 258 494 283 q 490 213 492 233 q 478 190 489 199 q 452 181 467 182 q 422 182 438 179 q 397 194 407 185 q 385 217 386 204 q 385 297 382 233 q 390 376 386 339 q 418 600 399 489 q 333 592 376 593 l 333 590 q 313 239 311 432 q 296 221 314 221 q 276 239 278 221 q 279 396 275 313 q 297 592 285 497 q 246 597 271 593 q 83 686 119 615 q 70 728 72 707 q 73 769 68 750 q 88 808 78 789 q 113 842 99 826 q 144 871 126 858 q 342 960 228 936 q 453 972 397 972 q 512 972 475 975 q 567 954 549 969 q 572 949 569 951 m 425 639 q 501 935 454 789 q 449 938 468 938 q 407 935 428 936 q 339 629 360 756 q 425 639 383 631 z "},"":{"ha":278,"x_min":64,"x_max":221,"o":"m 192 271 q 203 206 219 244 q 145 162 188 168 q 74 179 103 156 q 73 196 65 186 q 89 200 81 206 q 131 190 107 189 q 171 207 156 190 q 176 246 188 226 q 162 258 172 256 q 142 256 151 261 q 128 257 135 251 q 124 270 121 263 q 133 293 126 278 q 142 317 139 308 q 151 324 144 322 q 161 321 157 325 q 164 310 165 317 q 156 286 161 303 q 192 271 176 286 z "},"":{"ha":764,"x_min":65,"x_max":696,"o":"m 433 449 q 445 428 444 439 q 433 410 446 418 q 139 229 258 301 q 89 236 117 215 q 74 254 79 243 q 79 275 69 265 q 351 446 183 340 q 242 531 304 488 q 174 572 219 546 q 114 608 129 599 q 103 615 111 611 q 92 622 96 619 q 82 630 88 625 q 74 639 76 635 q 72 663 65 653 q 93 671 78 672 q 144 651 103 669 q 183 632 163 643 q 433 449 307 568 m 683 449 q 695 428 694 439 q 683 410 696 418 q 390 229 508 301 q 339 236 367 215 q 324 254 329 243 q 329 275 319 265 q 601 446 433 340 q 492 531 554 488 q 425 572 469 546 q 364 608 381 599 q 353 615 361 611 q 342 622 346 619 q 332 630 338 625 q 324 639 326 635 q 322 663 317 653 q 343 671 328 672 q 394 651 353 669 q 433 632 413 643 q 683 449 557 568 z "},"":{"ha":576,"x_min":64,"x_max":508,"o":"m 506 471 q 463 353 508 404 q 324 290 408 293 q 188 320 254 286 q 89 413 121 354 q 71 506 65 458 q 106 594 76 553 q 157 650 126 624 q 182 669 160 653 q 214 696 204 686 q 251 728 221 704 q 322 806 301 765 q 335 839 329 821 q 338 851 336 843 q 340 864 339 858 q 344 875 342 869 q 361 882 350 883 q 375 871 372 881 q 357 793 382 846 q 292 707 340 758 q 228 632 244 656 q 210 599 218 615 q 197 563 203 583 q 188 525 190 543 q 188 488 185 507 q 200 451 190 468 q 210 436 204 444 q 215 429 211 436 q 217 428 215 429 q 218 426 218 428 q 242 408 228 417 q 246 404 246 404 q 251 401 249 403 q 267 394 260 397 q 275 392 268 394 q 283 389 278 390 q 293 386 289 388 q 331 379 315 381 q 344 379 331 379 q 346 379 346 379 q 353 381 351 381 q 354 381 353 381 q 362 382 361 382 q 364 383 363 382 q 365 383 365 383 q 375 386 368 383 q 378 386 376 386 q 403 401 393 393 q 429 450 421 417 q 432 482 433 471 q 429 492 432 486 l 426 497 q 431 533 407 524 q 480 519 454 542 q 506 471 506 496 m 275 392 m 344 940 q 307 978 313 950 q 324 1011 303 1000 q 382 1007 353 1026 q 392 994 390 1001 q 386 981 394 986 q 381 978 383 978 q 391 955 396 967 q 371 940 386 943 q 344 940 356 936 m 360 967 z "},"":{"ha":865,"x_min":58,"x_max":874,"o":"m 854 840 q 858 752 872 796 q 804 682 844 708 q 692 642 761 654 q 710 543 699 590 q 747 396 726 464 q 775 321 760 358 q 782 303 776 317 q 790 283 788 290 q 797 263 797 267 q 801 226 803 249 q 768 200 800 204 q 722 207 736 196 q 688 235 696 219 q 679 251 683 240 q 661 296 674 264 q 632 385 644 342 q 582 626 596 501 q 515 620 558 624 q 450 614 471 617 q 432 583 440 599 q 304 406 356 461 q 143 346 226 322 q 78 401 96 358 q 79 489 60 444 q 236 603 110 561 q 432 642 314 629 q 435 646 433 643 q 438 651 438 649 q 535 843 492 744 q 604 1025 564 908 q 610 1044 607 1036 q 632 1061 617 1061 q 663 1048 647 1061 q 679 1019 679 1035 q 678 981 678 1006 q 678 942 678 957 q 678 835 678 907 q 689 669 679 750 q 767 694 733 679 q 819 733 803 711 q 833 831 854 776 q 840 844 829 840 q 854 840 850 849 m 322 474 q 414 610 371 539 q 299 590 349 603 q 194 556 239 576 q 117 497 140 531 q 106 407 83 450 q 174 369 125 372 q 251 397 217 368 q 322 474 286 425 m 468 644 q 520 649 482 646 q 578 654 558 653 q 575 703 576 679 q 575 867 569 786 q 468 644 532 757 m 629 1129 q 615 1149 625 1138 q 603 1165 606 1161 q 606 1187 593 1178 q 631 1186 619 1196 q 676 1096 665 1157 q 667 1080 679 1083 q 650 1089 654 1076 q 629 1129 643 1108 z "},"":{"ha":865,"x_min":58,"x_max":874,"o":"m 854 840 q 858 752 872 796 q 804 682 844 708 q 692 642 761 654 q 710 543 699 590 q 747 396 726 464 q 775 321 760 358 q 782 303 776 317 q 790 283 788 290 q 797 263 797 267 q 801 226 803 249 q 768 200 800 204 q 722 207 736 196 q 688 235 696 219 q 679 251 683 240 q 661 296 674 264 q 632 385 644 342 q 582 626 596 501 q 515 620 558 624 q 450 614 471 617 q 432 583 440 599 q 304 406 356 461 q 143 346 226 322 q 78 401 96 358 q 79 489 60 444 q 236 603 110 561 q 432 642 314 629 q 435 646 433 643 q 438 651 438 649 q 535 843 492 744 q 604 1025 564 908 q 610 1044 607 1036 q 632 1061 617 1061 q 663 1048 647 1061 q 679 1019 679 1035 q 678 981 678 1006 q 678 942 678 957 q 678 835 678 907 q 689 669 679 750 q 767 694 733 679 q 819 733 803 711 q 833 831 854 776 q 840 844 829 840 q 854 840 850 849 m 322 474 q 414 610 371 539 q 299 590 349 603 q 194 556 239 576 q 117 497 140 531 q 106 407 83 450 q 174 369 125 372 q 251 397 217 368 q 322 474 286 425 m 468 644 q 520 649 482 646 q 579 654 558 653 q 575 703 576 679 q 575 867 569 786 q 468 644 532 757 m 656 1076 q 633 1071 646 1063 q 626 1094 619 1079 q 658 1144 639 1122 q 710 1188 688 1176 q 738 1181 726 1196 q 736 1154 750 1167 q 713 1136 729 1149 q 690 1117 697 1124 q 656 1076 668 1094 z "},"":{"ha":865,"x_min":58,"x_max":874,"o":"m 854 840 q 858 752 872 796 q 804 682 844 708 q 692 642 761 654 q 710 543 699 590 q 747 396 726 464 q 775 321 760 358 q 782 303 776 317 q 790 283 788 290 q 797 263 797 267 q 801 226 803 249 q 768 200 800 204 q 722 207 736 196 q 688 235 696 219 q 679 251 683 240 q 661 296 674 264 q 632 385 644 342 q 582 626 596 501 q 515 620 558 624 q 450 614 471 617 q 432 583 440 599 q 304 406 356 461 q 143 346 226 322 q 78 401 96 358 q 79 489 60 444 q 236 603 110 561 q 432 642 314 629 q 435 646 433 643 q 438 651 438 649 q 535 843 492 744 q 604 1025 564 908 q 610 1044 607 1036 q 632 1061 617 1061 q 663 1048 647 1061 q 679 1019 679 1035 q 678 981 678 1006 q 678 942 678 957 q 678 835 678 907 q 689 669 679 750 q 767 694 733 679 q 819 733 803 711 q 833 831 854 776 q 840 844 829 840 q 854 840 850 849 m 322 474 q 414 610 371 539 q 299 590 349 603 q 194 556 239 576 q 117 497 140 531 q 106 407 83 450 q 174 369 125 372 q 251 397 217 368 q 322 474 286 425 m 468 644 q 520 649 482 646 q 578 654 558 653 q 575 703 576 679 q 575 867 569 786 q 468 644 532 757 m 590 1082 q 575 1085 582 1076 q 575 1101 568 1094 q 617 1140 588 1115 q 654 1163 642 1161 q 685 1140 669 1163 q 694 1125 689 1133 q 706 1107 700 1117 q 715 1093 713 1097 q 717 1076 722 1083 q 702 1067 711 1068 q 686 1075 693 1067 q 676 1092 683 1081 q 664 1108 668 1103 q 655 1123 656 1122 q 653 1126 654 1124 q 650 1126 651 1126 q 636 1115 650 1126 q 622 1104 635 1114 q 590 1082 600 1088 z "},"":{"ha":865,"x_min":58,"x_max":874,"o":"m 854 840 q 858 752 872 796 q 804 682 844 708 q 692 642 761 654 q 710 543 699 590 q 747 396 726 464 q 775 321 760 358 q 782 303 776 317 q 790 283 788 290 q 797 263 797 267 q 801 226 803 249 q 768 200 800 204 q 722 207 736 196 q 688 235 696 219 q 679 251 683 240 q 661 296 674 264 q 632 385 644 342 q 582 626 596 501 q 515 620 558 624 q 450 614 471 617 q 432 583 440 599 q 304 406 356 461 q 143 346 226 322 q 78 401 96 358 q 79 489 60 444 q 236 603 110 561 q 432 642 314 629 q 435 646 433 643 q 438 651 438 649 q 535 843 492 744 q 604 1025 564 908 q 610 1044 607 1036 q 632 1061 617 1061 q 663 1048 647 1061 q 679 1019 679 1035 q 678 981 678 1006 q 678 942 678 957 q 678 835 678 907 q 689 669 679 750 q 767 694 733 679 q 819 733 803 711 q 833 831 854 776 q 840 844 829 840 q 854 840 850 849 m 322 474 q 414 610 371 539 q 299 590 349 603 q 194 556 239 576 q 117 497 140 531 q 106 407 83 450 q 174 369 125 372 q 251 397 217 368 q 322 474 286 425 m 468 644 q 520 649 482 646 q 579 654 558 653 q 575 703 576 679 q 575 867 569 786 q 468 644 532 757 m 568 1090 q 560 1078 567 1082 q 548 1078 554 1075 q 542 1090 542 1082 q 568 1142 542 1124 q 625 1147 594 1161 q 651 1128 635 1143 q 679 1110 668 1113 q 700 1124 694 1104 q 703 1133 701 1128 q 706 1144 704 1139 q 710 1153 707 1149 q 722 1156 715 1157 q 732 1150 728 1156 q 735 1120 739 1136 q 721 1092 731 1104 q 667 1079 700 1067 q 640 1099 656 1085 q 615 1117 624 1113 q 585 1116 600 1125 q 568 1090 569 1107 z "},"":{"ha":865,"x_min":58,"x_max":874,"o":"m 854 840 q 858 752 872 796 q 804 682 844 708 q 692 642 761 654 q 710 543 699 590 q 747 396 726 464 q 775 321 760 358 q 782 303 776 317 q 790 283 788 290 q 797 263 797 267 q 801 226 803 249 q 768 200 800 204 q 722 207 736 196 q 688 235 696 219 q 679 251 683 240 q 661 296 674 264 q 632 385 644 342 q 582 626 596 501 q 515 620 558 624 q 450 614 471 617 q 432 583 440 599 q 304 406 356 461 q 143 346 226 322 q 78 401 96 358 q 79 489 60 444 q 236 603 110 561 q 432 642 314 629 q 435 646 433 643 q 438 651 438 649 q 535 843 492 744 q 604 1025 564 908 q 610 1044 607 1036 q 632 1061 617 1061 q 663 1048 647 1061 q 679 1019 679 1035 q 678 981 678 1006 q 678 942 678 957 q 678 835 678 907 q 689 669 679 750 q 767 694 733 679 q 819 733 803 711 q 833 831 854 776 q 840 844 829 840 q 854 840 850 849 m 322 474 q 414 610 371 539 q 299 590 349 603 q 194 556 239 576 q 117 497 140 531 q 106 407 83 450 q 174 369 125 372 q 251 397 217 368 q 322 474 286 425 m 468 644 q 520 649 482 646 q 579 654 558 653 q 575 703 576 679 q 575 867 569 786 q 468 644 532 757 m 625 1110 q 622 1106 625 1110 q 610 1099 619 1101 q 591 1101 600 1096 q 579 1117 582 1107 q 582 1133 578 1125 q 594 1143 586 1140 q 600 1147 596 1146 q 619 1146 610 1153 q 631 1128 629 1139 q 625 1110 631 1118 m 692 1099 q 679 1099 686 1097 q 667 1106 672 1101 q 661 1117 663 1110 q 665 1133 660 1125 q 676 1143 669 1140 q 682 1147 678 1146 q 701 1146 692 1153 q 713 1128 711 1139 q 707 1110 713 1118 q 692 1099 701 1101 z "},"":{"ha":865,"x_min":58,"x_max":874,"o":"m 854 840 q 858 752 872 796 q 804 682 844 708 q 692 642 761 654 q 710 543 699 590 q 747 396 726 464 q 775 321 760 358 q 782 303 776 317 q 790 283 788 290 q 797 263 797 267 q 801 226 803 249 q 768 200 800 204 q 722 207 736 196 q 688 235 696 219 q 679 251 683 240 q 661 296 674 264 q 632 385 644 342 q 582 626 596 501 q 515 620 558 624 q 450 614 471 617 q 432 583 440 599 q 304 406 356 461 q 143 346 226 322 q 78 401 96 358 q 79 489 60 444 q 236 603 110 561 q 432 642 314 629 q 435 646 433 643 q 438 651 438 649 q 535 843 492 744 q 604 1025 564 908 q 610 1044 607 1036 q 593 1099 582 1068 q 679 1140 608 1140 q 682 1140 681 1140 q 714 1115 701 1138 q 717 1071 726 1094 q 676 1032 707 1042 q 679 1019 679 1026 q 678 981 678 1006 q 678 942 678 957 q 678 835 678 907 q 689 669 679 750 q 767 694 733 679 q 819 733 803 711 q 833 831 854 776 q 840 844 829 840 q 854 840 850 849 m 322 474 q 414 610 371 539 q 299 590 349 603 q 194 556 239 576 q 117 497 140 531 q 106 407 83 450 q 174 369 125 372 q 251 397 217 368 q 322 474 286 425 m 468 644 q 520 649 482 646 q 578 654 558 653 q 575 703 576 679 q 575 867 569 786 q 468 644 532 757 m 643 1064 q 683 1081 674 1057 q 682 1100 689 1090 q 674 1106 681 1103 q 665 1113 668 1110 q 665 1114 665 1114 q 626 1096 638 1110 q 624 1076 619 1085 q 643 1064 629 1068 z "},"":{"ha":1203,"x_min":58,"x_max":1204,"o":"m 921 300 q 917 299 918 299 q 921 300 919 300 m 1203 544 q 1167 425 1204 493 q 1088 326 1135 367 q 951 257 1028 278 q 801 249 875 236 q 801 226 801 240 q 768 200 800 204 q 722 207 736 196 q 688 235 696 219 q 679 251 683 240 q 661 296 674 264 q 632 385 644 342 q 582 626 596 501 q 539 622 563 624 q 492 617 515 619 q 450 614 468 615 q 432 583 440 599 q 304 406 356 461 q 143 346 226 322 q 78 401 96 358 q 79 489 60 444 q 236 603 110 561 q 432 642 314 629 q 435 646 433 643 q 438 651 438 649 q 535 843 492 744 q 604 1025 564 908 q 610 1044 607 1036 q 632 1061 617 1061 q 663 1048 647 1061 q 679 1019 679 1035 q 678 981 678 1006 q 678 942 678 957 q 678 838 678 907 q 678 837 678 838 q 678 835 678 836 q 699 596 679 711 q 728 622 711 608 q 924 679 811 692 q 886 700 906 689 q 856 721 869 711 q 823 751 838 735 q 799 782 808 768 q 784 808 790 796 q 775 828 778 821 l 774 835 q 764 892 764 864 q 779 958 765 926 q 708 1094 738 1008 q 719 1117 703 1110 q 742 1108 736 1124 q 799 994 779 1022 q 815 1014 806 1004 q 913 1069 854 1056 q 985 1072 950 1076 q 1008 1068 993 1072 q 1029 1063 1024 1064 q 1072 1049 1051 1058 q 1135 988 1119 1026 q 1139 951 1142 968 q 1125 919 1136 933 q 1099 894 1114 904 q 1064 878 1083 885 q 918 874 996 854 q 872 889 901 878 q 874 882 874 889 q 874 867 874 875 q 874 858 874 858 q 879 825 876 840 q 915 740 890 772 q 950 710 931 721 q 1003 699 964 701 q 1021 682 1018 697 q 1008 664 1024 667 q 819 571 888 640 q 761 453 769 521 q 775 352 754 396 q 850 300 796 308 q 1067 356 978 278 q 1135 443 1108 393 q 1172 549 1150 471 q 1189 560 1176 561 q 1203 544 1201 558 m 882 940 q 878 928 879 935 q 1035 908 954 889 q 1089 934 1067 917 q 1097 979 1111 951 q 1054 1014 1085 1006 q 997 1017 1024 1022 q 940 1003 969 1013 l 939 1001 q 928 996 932 999 q 921 990 921 992 q 907 978 914 986 q 882 940 892 963 m 322 474 q 414 610 371 539 q 299 590 349 603 q 194 556 239 576 q 117 497 140 531 q 106 407 83 450 q 174 369 125 372 q 251 397 217 368 q 322 474 286 425 m 468 644 q 520 649 482 646 q 579 654 558 653 q 575 703 576 679 q 575 867 569 786 q 468 644 532 757 z "},"":{"ha":757,"x_min":58,"x_max":772,"o":"m 771 549 q 770 540 771 544 q 767 532 769 536 q 762 526 764 528 q 756 519 760 524 q 750 514 751 515 q 681 426 714 474 q 574 292 614 332 q 542 263 558 276 q 471 214 510 235 q 386 183 432 193 q 299 176 340 172 q 296 151 297 164 q 365 136 338 160 q 386 97 383 121 q 372 54 389 72 q 283 39 346 28 q 190 85 214 53 q 191 102 183 93 q 208 108 199 111 q 218 105 213 107 q 229 99 224 103 q 239 93 235 94 q 272 81 254 86 q 331 74 308 69 q 349 86 344 75 q 343 108 354 97 q 281 113 325 129 q 265 116 271 108 q 260 133 258 124 q 269 181 264 156 q 226 196 246 186 q 126 292 165 226 q 75 431 86 357 q 90 646 58 539 q 193 836 121 753 q 267 906 226 875 q 356 961 308 938 q 328 1008 344 992 q 261 1033 300 1035 q 224 1024 242 1033 q 208 1014 218 1021 q 194 1004 199 1007 q 174 1007 183 997 q 171 1028 165 1017 q 236 1068 188 1057 q 311 1063 275 1076 q 389 975 365 1040 q 471 983 425 985 q 560 965 517 982 q 629 917 603 947 q 646 872 646 897 q 628 831 647 854 q 570 797 606 806 q 500 793 535 788 q 389 865 428 806 q 371 910 378 882 q 353 893 364 904 q 257 776 289 832 q 192 603 208 693 q 194 418 175 513 q 290 267 218 315 q 359 245 318 249 q 432 254 400 242 q 454 263 443 258 q 476 276 465 268 q 494 288 488 283 q 515 305 501 293 q 532 320 528 317 q 551 338 536 324 q 568 354 565 353 q 605 395 586 372 q 638 437 624 418 q 672 482 653 456 q 706 525 692 508 q 740 558 725 550 q 743 560 742 558 q 760 560 750 563 q 771 549 769 557 m 417 943 q 401 933 410 939 q 456 850 419 874 q 567 835 511 815 q 611 876 606 849 q 606 901 614 889 q 592 917 599 913 q 571 932 586 922 q 489 956 531 957 q 417 943 442 954 m 486 1107 q 484 1135 471 1121 q 514 1142 497 1149 q 569 1099 539 1131 q 604 1047 590 1076 q 597 1024 611 1032 q 572 1031 582 1017 q 536 1071 560 1049 q 520 1083 529 1076 q 502 1095 511 1089 q 486 1107 493 1101 z "},"":{"ha":633,"x_min":64,"x_max":635,"o":"m 350 300 q 347 299 349 299 q 350 300 350 300 m 632 544 q 597 425 635 493 q 517 326 565 367 q 374 254 456 275 q 215 253 293 233 q 105 328 144 269 q 69 463 65 388 q 158 622 75 554 q 354 679 242 692 q 317 700 336 689 q 286 721 300 711 q 238 770 258 742 q 210 817 217 799 l 203 835 q 194 892 194 864 q 210 958 196 926 q 139 1094 168 1008 q 150 1117 133 1110 q 172 1108 167 1124 q 229 994 210 1022 q 246 1014 236 1004 q 343 1069 285 1056 q 415 1072 381 1076 q 439 1068 424 1072 q 460 1063 454 1064 q 503 1049 482 1058 q 565 988 550 1026 q 567 939 576 961 q 538 901 557 917 q 494 878 519 886 q 349 874 426 854 q 303 889 332 878 q 304 882 304 889 q 304 867 304 875 q 304 858 304 858 q 310 825 307 840 q 346 740 321 772 q 381 710 361 721 q 433 699 394 701 q 451 682 449 697 q 439 664 454 667 q 250 571 318 640 q 192 453 200 521 q 206 352 185 396 q 281 300 226 308 q 497 356 408 278 q 565 443 539 393 q 603 549 581 471 q 619 560 607 561 q 632 544 632 558 m 313 940 q 308 928 310 935 q 465 908 385 889 q 519 934 497 917 q 528 979 542 951 q 485 1014 515 1006 q 427 1017 454 1022 q 371 1003 400 1013 q 369 1001 369 1001 q 358 996 363 999 q 351 990 351 992 q 338 978 344 986 q 313 940 322 963 m 396 1100 q 374 1094 388 1086 q 367 1117 361 1103 q 400 1168 379 1146 q 451 1211 428 1200 q 479 1204 467 1218 q 476 1176 492 1190 q 455 1159 471 1171 q 431 1140 439 1147 q 396 1100 408 1118 z "},"":{"ha":633,"x_min":64,"x_max":635,"o":"m 350 300 q 347 299 349 299 q 350 300 350 300 m 632 544 q 597 425 635 493 q 517 326 565 367 q 374 254 456 275 q 215 253 293 233 q 105 328 144 269 q 69 463 65 388 q 158 622 75 554 q 354 679 242 692 q 317 700 336 689 q 286 721 300 711 q 238 770 258 742 q 210 817 217 799 l 203 835 q 194 892 194 864 q 210 958 196 926 q 139 1094 168 1008 q 150 1117 133 1110 q 172 1108 167 1124 q 229 994 210 1022 q 246 1014 236 1004 q 343 1069 285 1056 q 415 1072 381 1076 q 439 1068 424 1072 q 460 1063 454 1064 q 503 1049 482 1058 q 565 988 550 1026 q 567 939 576 961 q 538 901 557 917 q 494 878 519 886 q 349 874 426 854 q 303 889 332 878 q 304 882 304 889 q 304 867 304 875 q 304 858 304 858 q 310 825 307 840 q 346 740 321 772 q 381 710 361 721 q 433 699 394 701 q 451 682 449 697 q 439 664 454 667 q 250 571 318 640 q 192 453 200 521 q 206 352 185 396 q 281 300 226 308 q 497 356 408 278 q 565 443 539 393 q 603 549 581 471 q 619 560 607 561 q 632 544 632 558 m 313 940 q 308 928 310 935 q 465 908 385 889 q 519 934 497 917 q 528 979 542 951 q 485 1014 515 1006 q 427 1017 454 1022 q 371 1003 400 1013 q 369 1001 369 1001 q 358 996 363 999 q 351 990 351 992 q 338 978 344 986 q 313 940 322 963 m 369 1096 q 353 1099 360 1090 q 354 1115 346 1108 q 396 1154 367 1129 q 433 1176 421 1176 q 463 1154 447 1176 q 473 1140 468 1147 q 484 1122 478 1132 q 494 1107 490 1113 q 495 1090 500 1099 q 481 1082 490 1082 q 465 1089 472 1082 q 454 1106 461 1094 q 443 1122 447 1117 q 433 1138 433 1138 q 431 1142 433 1138 q 429 1140 431 1140 q 415 1129 429 1140 q 401 1119 414 1128 q 369 1096 379 1103 z "},"":{"ha":633,"x_min":64,"x_max":635,"o":"m 350 300 q 347 299 349 299 q 350 300 350 300 m 632 544 q 597 425 635 493 q 517 326 565 367 q 374 254 456 275 q 215 253 293 233 q 105 328 144 269 q 69 463 65 388 q 158 622 75 554 q 354 679 242 692 q 317 700 336 689 q 286 721 300 711 q 238 770 258 742 q 210 817 217 799 l 203 835 q 194 892 194 864 q 210 958 196 926 q 139 1094 168 1008 q 150 1117 133 1110 q 172 1108 167 1124 q 229 994 210 1022 q 246 1014 236 1004 q 343 1069 285 1056 q 415 1072 381 1076 q 439 1068 424 1072 q 460 1063 454 1064 q 503 1049 482 1058 q 565 988 550 1026 q 567 939 576 961 q 538 901 557 917 q 494 878 519 886 q 349 874 426 854 q 303 889 332 878 q 304 882 304 889 q 304 867 304 875 q 304 858 304 858 q 310 825 307 840 q 346 740 321 772 q 381 710 361 721 q 433 699 394 701 q 451 682 449 697 q 439 664 454 667 q 250 571 318 640 q 192 453 200 521 q 206 352 185 396 q 281 300 226 308 q 497 356 408 278 q 565 443 539 393 q 603 549 581 471 q 619 560 607 561 q 632 544 632 558 m 313 940 q 308 928 310 935 q 465 908 385 889 q 519 934 497 917 q 528 979 542 951 q 485 1014 515 1006 q 427 1017 454 1022 q 371 1003 400 1013 q 369 1001 369 1001 q 358 996 363 999 q 351 990 351 992 q 338 978 344 986 q 313 940 322 963 m 356 1100 q 349 1090 356 1093 q 335 1090 342 1086 q 329 1100 329 1093 q 357 1152 331 1133 q 414 1158 383 1171 q 440 1139 424 1154 q 468 1119 457 1124 q 489 1135 483 1115 q 491 1142 490 1138 q 492 1149 492 1146 q 494 1156 493 1153 q 499 1163 496 1160 q 510 1167 503 1168 q 519 1160 517 1165 q 522 1131 526 1147 q 510 1103 518 1114 q 454 1090 488 1076 q 428 1109 444 1094 q 404 1128 413 1124 q 372 1127 388 1136 q 356 1100 357 1118 z "},"":{"ha":633,"x_min":64,"x_max":635,"o":"m 350 300 q 347 299 349 299 q 350 300 350 300 m 632 544 q 597 425 635 493 q 517 326 565 367 q 374 254 456 275 q 215 253 293 233 q 105 328 144 269 q 69 463 65 388 q 158 622 75 554 q 354 679 242 692 q 317 700 336 689 q 286 721 300 711 q 238 770 258 742 q 210 817 217 799 l 203 835 q 194 892 194 864 q 210 958 196 926 q 139 1094 168 1008 q 150 1117 133 1110 q 172 1108 167 1124 q 229 994 210 1022 q 246 1014 236 1004 q 343 1069 285 1056 q 415 1072 381 1076 q 439 1068 424 1072 q 460 1063 454 1064 q 503 1049 482 1058 q 565 988 550 1026 q 567 939 576 961 q 538 901 557 917 q 494 878 519 886 q 349 874 426 854 q 303 889 332 878 q 304 882 304 889 q 304 867 304 875 q 304 858 304 858 q 310 825 307 840 q 346 740 321 772 q 381 710 361 721 q 433 699 394 701 q 451 682 449 697 q 439 664 454 667 q 250 571 318 640 q 192 453 200 521 q 206 352 185 396 q 281 300 226 308 q 497 356 408 278 q 565 443 539 393 q 603 549 581 471 q 619 560 607 561 q 632 544 632 558 m 313 940 q 308 928 310 935 q 465 908 385 889 q 519 934 497 917 q 528 979 542 951 q 485 1014 515 1006 q 427 1017 454 1022 q 371 1003 400 1013 q 369 1001 369 1001 q 358 996 363 999 q 351 990 351 992 q 338 978 344 986 q 313 940 322 963 m 393 1099 q 374 1102 383 1097 q 363 1117 365 1107 q 365 1133 360 1125 q 378 1143 369 1140 q 382 1149 379 1146 q 402 1147 393 1154 q 413 1128 411 1139 q 413 1119 414 1124 q 408 1110 411 1114 q 401 1103 406 1106 q 393 1099 397 1100 m 475 1099 q 456 1102 465 1097 q 444 1117 447 1107 q 447 1133 443 1125 q 460 1143 451 1140 q 464 1149 461 1146 q 484 1147 475 1154 q 494 1128 493 1139 q 494 1119 496 1124 q 490 1110 493 1114 q 483 1103 488 1106 q 475 1099 479 1100 z "},"":{"ha":744,"x_min":60,"x_max":746,"o":"m 694 310 q 708 319 700 319 q 722 310 717 318 q 724 293 728 301 q 569 135 675 188 q 350 104 465 82 q 253 141 296 114 q 197 214 211 168 q 208 300 183 260 q 281 342 232 340 q 333 328 310 342 q 333 329 333 328 q 333 332 333 331 q 367 600 336 463 q 410 753 385 681 q 222 757 314 740 q 110 806 147 771 q 71 908 61 849 q 90 920 74 922 q 104 904 106 918 q 115 851 100 874 q 158 815 129 828 q 212 795 186 801 q 267 786 238 789 q 424 789 344 776 q 429 799 425 790 q 438 820 433 808 q 442 832 442 832 q 449 847 444 839 q 456 863 453 854 q 463 876 460 871 q 551 988 496 954 q 676 1018 618 1029 q 724 994 704 1014 q 744 947 744 974 q 683 858 744 903 q 507 774 603 801 q 504 762 507 771 q 500 747 501 753 q 442 475 457 611 q 439 192 429 354 q 417 161 440 171 q 367 158 393 151 q 340 183 342 164 q 333 289 333 231 q 333 290 333 289 q 332 292 332 290 q 294 309 315 306 q 253 301 272 313 q 225 243 224 285 q 258 179 226 207 q 421 133 315 131 q 581 183 508 135 q 694 310 654 231 m 557 908 q 521 814 543 888 q 653 878 592 838 q 679 897 671 890 q 700 917 688 903 q 713 946 713 932 q 700 976 714 968 q 669 982 686 985 q 635 972 653 979 q 581 938 604 960 q 557 908 567 925 m 501 1138 q 500 1165 488 1150 q 529 1171 513 1179 q 585 1129 554 1161 q 619 1078 606 1106 q 612 1055 626 1063 q 588 1061 597 1047 q 551 1100 575 1079 q 535 1113 544 1107 q 517 1126 526 1119 q 501 1138 508 1132 z "},"":{"ha":744,"x_min":60,"x_max":746,"o":"m 694 310 q 708 319 700 319 q 722 310 717 318 q 724 293 728 301 q 569 135 675 188 q 350 104 465 82 q 253 141 296 114 q 197 214 211 168 q 197 273 190 244 q 226 321 203 301 q 281 342 249 340 q 333 328 310 342 q 333 329 333 328 q 333 332 333 331 q 367 600 336 463 q 410 753 385 681 q 222 757 314 740 q 110 806 147 771 q 71 908 61 849 q 90 920 74 922 q 104 904 106 918 q 115 851 100 874 q 158 815 129 828 q 212 795 186 801 q 267 786 238 789 q 424 789 344 776 q 428 796 425 790 q 433 809 431 801 q 439 824 436 817 q 442 832 442 832 q 449 847 444 839 q 456 863 453 854 q 463 876 460 871 q 551 988 496 954 q 676 1018 618 1029 q 724 994 704 1014 q 744 947 744 974 q 683 858 744 903 q 507 774 603 801 q 504 762 507 771 q 500 747 501 753 q 442 475 457 611 q 439 192 429 354 q 417 161 440 171 q 367 158 393 151 q 340 183 342 164 q 333 289 333 231 q 333 290 333 289 q 332 292 332 290 q 294 309 315 306 q 253 301 272 313 q 225 243 224 285 q 258 179 226 207 q 421 133 315 131 q 581 183 508 135 q 694 310 654 231 m 557 908 q 521 814 543 888 q 653 878 592 838 q 679 897 671 890 q 700 917 688 903 q 713 946 713 932 q 700 976 714 968 q 669 982 686 985 q 635 972 653 979 q 581 938 604 960 q 557 908 567 925 m 465 1060 q 444 1053 457 1046 q 436 1076 431 1061 q 469 1128 449 1106 q 521 1171 497 1160 q 549 1163 536 1178 q 546 1136 561 1149 q 524 1119 540 1131 q 500 1099 508 1107 q 465 1060 478 1078 z "},"":{"ha":744,"x_min":60,"x_max":746,"o":"m 694 310 q 708 319 700 319 q 722 310 717 318 q 724 293 728 301 q 569 135 675 188 q 350 104 465 82 q 253 141 296 114 q 197 214 211 168 q 208 300 183 260 q 281 342 232 340 q 333 328 310 342 q 333 329 333 328 q 333 332 333 331 q 367 600 336 463 q 410 753 385 681 q 222 757 314 740 q 110 806 147 771 q 71 908 61 849 q 90 920 74 922 q 104 904 106 918 q 115 851 100 874 q 158 815 129 828 q 212 795 186 801 q 267 786 238 789 q 424 789 344 776 q 429 799 425 790 q 438 820 433 808 q 442 832 442 832 q 452 853 444 839 q 463 876 460 868 q 551 988 496 954 q 676 1018 618 1029 q 710 1006 694 1015 q 735 981 725 996 q 744 947 744 965 q 683 858 744 903 q 507 774 603 801 q 504 762 507 771 q 500 747 501 753 q 442 475 457 611 q 439 192 429 354 q 417 161 440 171 q 367 158 393 151 q 340 183 342 164 q 333 289 333 231 q 333 290 333 289 q 332 292 332 290 q 294 309 315 306 q 253 301 272 313 q 225 243 224 285 q 258 179 226 207 q 421 133 315 131 q 581 183 508 135 q 694 310 654 231 m 557 908 q 521 814 543 888 q 653 878 592 838 q 679 897 671 890 q 700 917 688 903 q 713 946 713 932 q 700 976 714 968 q 669 982 686 985 q 635 972 653 979 q 581 938 604 960 q 557 908 567 925 m 538 1076 q 522 1080 528 1071 q 522 1096 515 1089 q 564 1135 535 1110 q 601 1157 589 1156 q 631 1135 617 1157 q 641 1119 636 1128 q 653 1101 646 1111 q 663 1088 660 1092 q 663 1070 668 1078 q 649 1062 658 1063 q 633 1069 640 1061 q 611 1103 621 1088 q 601 1117 603 1117 q 599 1121 601 1118 q 597 1121 599 1121 q 583 1110 597 1121 q 569 1099 582 1108 q 538 1076 547 1082 z "},"":{"ha":744,"x_min":60,"x_max":746,"o":"m 694 310 q 708 319 700 319 q 722 310 717 318 q 724 293 728 301 q 569 135 675 188 q 350 104 465 82 q 253 141 296 114 q 197 214 211 168 q 208 300 183 260 q 281 342 232 340 q 333 328 310 342 l 333 329 l 333 332 q 367 600 336 463 q 410 753 385 681 q 222 757 314 740 q 110 806 147 771 q 71 908 61 849 q 90 920 74 922 q 104 904 106 918 q 115 851 100 874 q 158 815 129 828 q 212 795 186 801 q 267 786 238 789 q 424 789 344 776 q 428 796 425 790 q 433 809 431 801 q 439 824 436 817 q 442 832 442 832 q 452 853 444 839 q 463 876 460 868 q 551 988 496 954 q 676 1018 618 1029 q 724 994 704 1014 q 744 947 744 974 q 683 858 744 903 q 507 774 603 801 q 504 762 507 771 q 500 747 501 753 q 442 475 457 611 q 439 192 429 354 q 417 161 440 171 q 367 158 393 151 q 340 183 342 164 q 333 289 333 231 q 333 290 333 289 q 332 292 332 290 q 294 309 315 306 q 253 301 272 313 q 225 243 224 285 q 258 179 226 207 q 421 133 315 131 q 581 183 508 135 q 694 310 654 231 m 557 908 q 521 814 543 888 q 653 878 592 838 q 679 897 671 890 q 700 917 688 903 q 713 946 713 932 q 700 976 714 968 q 669 982 686 985 q 635 972 653 979 q 581 938 604 960 q 557 908 567 925 m 583 1068 q 570 1068 576 1067 q 559 1074 564 1069 q 553 1086 554 1079 q 555 1101 550 1093 q 568 1111 560 1110 q 572 1117 569 1115 q 592 1115 583 1122 q 603 1096 601 1108 q 598 1078 604 1086 q 583 1068 592 1069 m 680 1078 q 677 1074 680 1078 q 665 1067 674 1069 q 647 1071 656 1065 q 635 1086 638 1076 q 638 1101 633 1093 q 650 1111 642 1110 q 654 1117 651 1115 q 674 1115 665 1122 q 685 1096 683 1108 q 680 1078 686 1086 z "},"":{"ha":1097,"x_min":67,"x_max":1099,"o":"m 1097 546 q 1093 525 1097 540 q 1078 485 1089 508 q 928 292 1025 358 q 693 236 825 221 q 671 217 681 224 q 662 207 667 213 q 653 197 657 201 q 644 187 649 192 q 633 178 639 182 q 620 168 631 176 q 606 158 610 160 q 594 149 603 156 q 580 140 585 142 q 567 133 575 138 q 552 126 558 128 q 537 122 546 124 q 519 118 528 119 q 501 118 511 117 q 397 158 446 118 q 354 254 347 199 q 415 317 361 297 q 448 325 431 324 q 480 326 465 326 q 513 321 494 325 q 544 313 531 317 q 576 303 557 310 q 583 300 579 301 q 590 297 586 299 q 597 294 594 294 q 603 292 599 293 q 608 290 607 290 q 618 288 614 288 q 624 290 619 288 q 628 294 625 292 q 634 301 631 297 q 639 307 638 304 q 656 324 649 317 q 667 338 658 328 q 682 354 676 349 q 822 524 765 442 q 915 701 879 607 q 937 763 929 740 q 954 829 944 786 q 963 902 964 872 q 950 965 963 932 q 911 1018 938 997 q 849 1042 886 1038 q 770 1038 811 1047 q 697 1017 729 1029 q 632 992 664 1006 q 376 754 465 913 q 314 586 333 676 q 306 531 308 561 q 463 651 386 576 q 481 652 472 661 q 482 633 489 643 q 304 493 413 547 q 303 417 303 467 q 304 335 304 367 q 297 263 304 304 q 276 188 290 221 q 226 171 268 167 q 181 200 193 174 q 179 242 178 206 q 199 453 182 281 q 82 431 142 436 q 71 435 74 429 q 72 449 68 442 q 82 457 75 457 q 203 485 143 464 q 208 560 206 526 q 211 597 210 576 q 214 635 213 617 q 217 672 215 654 q 219 711 218 690 q 222 749 221 732 q 226 808 224 771 q 230 876 228 844 q 235 935 232 908 q 248 948 236 946 q 267 946 260 950 q 288 934 278 943 q 300 914 299 925 q 311 739 308 843 q 313 706 313 724 q 322 726 313 706 q 450 904 369 826 q 635 1032 531 982 q 761 1074 699 1063 q 889 1068 824 1086 q 996 994 954 1050 q 1039 880 1032 947 q 1029 743 1046 813 q 988 613 1013 674 q 931 503 963 553 q 902 460 918 481 q 867 418 886 439 q 833 381 849 397 q 797 341 818 364 q 761 303 775 318 q 739 278 746 285 q 726 265 733 272 q 794 272 761 265 q 1007 428 926 299 q 1049 510 1032 467 q 1052 520 1050 514 q 1056 532 1054 526 q 1060 544 1057 538 q 1067 554 1063 550 q 1085 562 1072 565 q 1097 546 1097 558 m 567 238 q 593 258 589 260 q 576 264 585 261 q 463 290 497 293 q 394 261 411 288 q 412 209 374 231 q 482 192 450 188 q 547 219 514 196 q 567 238 547 221 z "},"":{"ha":908,"x_min":68,"x_max":911,"o":"m 876 546 q 895 557 881 561 q 908 538 910 553 q 818 267 889 403 q 779 195 794 221 q 738 136 764 169 q 679 83 711 103 q 606 53 647 63 q 551 53 576 46 q 509 78 526 61 q 478 122 492 96 q 458 172 465 147 q 447 224 451 197 q 467 431 432 329 q 571 663 501 533 q 585 686 575 668 q 601 714 596 704 q 612 739 606 724 q 619 768 618 754 q 608 826 625 811 q 535 835 588 846 q 375 743 451 819 q 251 572 299 667 q 208 463 225 519 q 178 235 189 397 q 159 210 176 218 q 124 203 142 203 q 89 213 104 204 q 72 239 74 222 q 72 353 68 268 q 82 468 74 400 q 103 589 90 532 q 139 714 114 639 q 162 728 147 729 q 192 715 176 728 q 206 688 207 701 q 190 524 196 579 q 421 825 264 713 q 511 880 458 861 q 614 892 564 899 q 722 822 699 882 q 710 703 743 771 q 676 638 697 678 q 636 564 654 599 q 606 497 618 529 q 563 292 560 383 q 585 154 564 199 q 626 119 600 121 q 677 142 651 118 q 721 187 703 165 q 751 228 739 208 q 806 328 782 275 q 828 384 817 353 q 844 433 839 415 q 862 493 850 451 q 876 546 874 535 m 526 969 q 510 973 517 964 q 511 990 504 982 q 553 1028 524 1004 q 590 1050 578 1050 q 619 1028 606 1050 q 630 1013 625 1021 q 642 996 635 1006 q 651 981 649 986 q 652 964 657 972 q 638 956 647 956 q 622 964 629 956 q 615 974 619 968 q 607 986 611 981 q 600 997 603 992 q 591 1012 592 1011 q 588 1015 590 1013 q 586 1014 588 1015 q 572 1003 586 1014 q 558 993 571 1003 q 526 969 536 976 z "},"":{"ha":1029,"x_min":68,"x_max":961,"o":"m 394 278 q 390 278 392 278 q 394 278 392 278 m 940 563 q 953 557 947 563 q 960 544 960 551 q 919 431 951 483 q 835 346 886 378 q 631 317 738 288 q 607 294 619 306 q 592 280 601 289 q 575 265 582 271 q 559 252 568 260 q 542 240 550 244 q 467 210 508 219 q 385 201 426 200 q 321 213 351 204 q 139 352 207 247 q 69 581 71 457 q 128 792 68 693 q 192 874 154 838 q 239 915 215 899 q 263 932 250 924 q 288 944 271 936 q 313 956 304 951 q 361 944 333 969 q 364 907 386 922 q 322 879 336 889 q 244 801 278 846 q 177 613 183 718 q 221 418 171 508 q 283 336 246 372 q 364 285 322 300 q 469 275 415 267 q 593 329 553 289 q 594 329 593 329 q 583 335 589 332 q 419 490 493 383 q 326 697 346 594 q 330 805 315 754 q 392 882 344 856 q 499 898 446 907 q 599 853 551 889 q 717 675 685 786 q 717 461 750 564 q 658 349 699 401 q 830 390 750 331 q 922 544 910 450 q 940 563 924 563 m 621 358 q 692 504 676 424 q 691 629 703 565 q 644 749 679 693 q 557 838 610 804 q 468 864 514 864 q 385 829 422 864 q 378 650 335 774 q 476 475 414 551 q 621 358 551 386 m 374 1068 q 372 1095 358 1081 q 401 1101 385 1110 q 456 1058 425 1090 q 490 1008 478 1036 q 483 985 497 993 q 460 990 469 976 q 422 1031 447 1008 q 397 1051 414 1039 q 374 1068 381 1063 z "},"":{"ha":1029,"x_min":68,"x_max":961,"o":"m 394 278 q 390 278 392 278 q 394 278 392 278 m 940 563 q 950 560 946 563 q 957 553 954 557 q 960 544 960 549 q 919 431 951 483 q 835 346 886 378 q 631 317 738 288 q 607 294 619 306 q 592 280 601 289 q 575 265 582 271 q 559 252 568 260 q 542 240 550 244 q 467 210 508 219 q 385 201 426 200 q 321 213 351 204 q 139 352 207 247 q 69 581 71 457 q 128 792 68 693 q 192 874 154 838 q 239 915 217 899 q 263 932 250 924 q 288 944 271 936 q 313 956 304 951 q 361 944 333 969 q 364 907 386 922 q 322 879 336 889 q 244 801 278 846 q 177 613 183 718 q 221 418 171 508 q 283 336 246 372 q 364 285 322 300 q 469 275 415 267 q 593 329 553 289 q 594 329 593 329 q 583 335 589 332 q 419 490 493 383 q 326 697 346 594 q 330 805 315 754 q 392 882 344 856 q 499 898 446 907 q 599 853 551 889 q 717 675 685 786 q 717 461 750 564 q 658 349 699 401 q 830 390 750 331 q 922 544 910 450 q 940 563 924 563 m 621 358 q 692 504 676 424 q 691 629 703 565 q 644 749 679 693 q 557 838 610 804 q 468 864 514 864 q 385 829 422 864 q 378 650 335 774 q 476 475 414 551 q 621 358 551 386 m 467 976 q 445 970 458 963 q 438 993 432 978 q 471 1043 450 1021 q 522 1086 499 1076 q 550 1080 538 1094 q 547 1053 563 1065 q 526 1035 542 1047 q 501 1015 510 1024 q 467 976 479 994 z "},"":{"ha":1029,"x_min":68,"x_max":961,"o":"m 394 278 q 390 278 392 278 q 394 278 392 278 m 940 563 q 953 557 947 563 q 960 544 960 551 q 945 485 956 514 q 919 431 935 457 q 882 384 904 406 q 835 346 860 363 q 631 317 738 288 q 607 294 619 306 q 592 280 601 289 q 575 265 582 271 q 559 252 568 260 q 542 240 550 244 q 467 210 508 219 q 385 201 426 200 q 321 213 351 204 q 139 352 207 247 q 69 581 71 457 q 128 792 68 693 q 192 874 154 838 q 239 915 215 899 q 263 932 250 924 q 288 944 271 936 q 313 956 304 951 q 361 944 333 969 q 364 907 386 922 q 322 879 336 889 q 244 801 278 846 q 177 613 183 718 q 221 418 171 508 q 283 336 246 372 q 364 285 322 300 q 469 275 415 267 q 593 329 553 289 q 594 329 593 329 q 583 335 589 332 q 419 490 493 383 q 326 697 346 594 q 330 805 315 754 q 392 882 344 856 q 499 898 446 907 q 599 853 551 889 q 717 675 685 786 q 717 461 750 564 q 658 349 699 401 q 830 390 750 331 q 922 544 910 450 q 940 563 924 563 m 621 358 q 692 504 676 424 q 691 629 703 565 q 644 749 679 693 q 557 838 610 804 q 468 864 514 864 q 385 829 422 864 q 378 650 335 774 q 476 475 414 551 q 621 358 551 386 m 428 1007 q 411 1009 418 1000 q 413 1026 404 1018 q 454 1064 425 1040 q 492 1086 479 1086 q 521 1065 506 1088 q 531 1050 526 1058 q 542 1032 536 1042 q 553 1017 549 1022 q 553 1001 558 1008 q 540 992 549 993 q 524 1000 531 992 q 517 1010 521 1004 q 508 1023 513 1017 q 501 1033 504 1029 q 492 1048 493 1047 q 489 1051 492 1049 q 488 1051 489 1051 q 474 1039 488 1050 q 460 1029 472 1039 q 428 1007 438 1013 z "},"":{"ha":1029,"x_min":68,"x_max":961,"o":"m 940 563 q 953 557 947 563 q 960 544 960 551 q 919 431 951 483 q 835 346 886 378 q 631 317 738 288 q 607 294 619 306 q 592 280 601 289 q 575 265 582 271 q 559 252 568 260 q 542 240 550 244 q 467 210 508 219 q 385 201 426 200 q 321 213 351 204 q 139 352 207 247 q 69 581 71 457 q 128 792 68 693 q 192 874 154 838 q 239 915 215 899 q 263 932 250 924 q 288 944 271 936 q 313 956 304 951 q 361 944 333 969 q 364 907 386 922 q 322 879 336 889 q 244 801 278 846 q 177 613 183 718 q 221 418 171 508 q 283 336 246 372 q 364 285 322 300 q 469 275 415 267 q 593 329 553 289 q 594 329 593 329 q 583 335 589 332 q 419 490 493 383 q 326 697 346 594 q 322 750 321 722 q 328 801 322 778 q 351 847 335 825 q 392 882 367 868 q 499 898 446 907 q 599 853 551 889 q 717 675 685 786 q 717 461 750 564 q 658 349 699 401 q 830 390 750 331 q 922 544 910 450 q 940 563 924 563 m 621 358 q 692 504 676 424 q 691 629 703 565 q 644 749 679 693 q 557 838 610 804 q 468 864 514 864 q 385 829 422 864 q 378 650 335 774 q 476 475 414 551 q 621 358 551 386 m 394 278 q 390 278 392 278 q 394 278 392 278 m 379 1007 q 363 1010 369 1001 q 364 1028 357 1019 q 406 1065 376 1040 q 443 1088 431 1088 q 474 1065 458 1088 q 483 1051 478 1058 q 495 1033 489 1043 q 504 1018 501 1024 q 506 1001 511 1010 q 491 993 500 993 q 475 1001 482 993 q 465 1018 472 1007 q 453 1035 457 1029 q 444 1048 444 1047 q 442 1053 443 1049 q 439 1051 440 1053 q 425 1040 439 1051 q 411 1031 424 1039 q 379 1007 389 1014 z "},"":{"ha":1029,"x_min":68,"x_max":961,"o":"m 394 278 q 390 278 392 278 q 394 278 392 278 m 940 563 q 953 557 947 563 q 960 544 960 551 q 919 431 951 483 q 835 346 886 378 q 631 317 738 288 q 607 294 619 306 q 592 280 601 289 q 575 265 582 271 q 559 252 568 260 q 542 240 550 244 q 467 210 508 219 q 385 201 426 200 q 321 213 351 204 q 139 352 207 247 q 69 581 71 457 q 128 792 68 693 q 192 874 154 838 q 239 915 217 899 q 263 932 250 924 q 288 944 271 936 q 313 956 304 951 q 361 944 333 969 q 364 907 386 922 q 322 879 336 889 q 244 801 278 846 q 177 613 183 718 q 221 418 171 508 q 283 336 246 372 q 364 285 322 300 q 469 275 415 267 q 593 329 553 289 q 594 329 593 329 q 583 335 589 332 q 419 490 493 383 q 326 697 346 594 q 330 805 315 754 q 392 882 344 856 q 499 898 446 907 q 599 853 551 889 q 717 675 685 786 q 717 461 750 564 q 658 349 699 401 q 776 360 718 338 q 874 433 835 383 q 922 544 914 482 q 940 563 924 563 m 621 358 q 692 504 676 424 q 691 629 703 565 q 644 749 679 693 q 557 838 610 804 q 468 864 514 864 q 385 829 422 864 q 378 650 335 774 q 476 475 414 551 q 621 358 551 386 m 406 1018 q 404 1016 406 1018 q 395 1013 401 1014 q 383 1013 389 1011 q 372 1019 376 1015 q 365 1031 367 1024 q 367 1047 363 1039 q 381 1057 372 1054 q 385 1061 382 1060 q 405 1060 396 1067 q 415 1042 414 1053 q 414 1028 417 1035 q 406 1018 411 1022 m 478 1013 q 459 1015 468 1010 q 447 1031 450 1021 q 450 1047 446 1039 q 463 1057 454 1054 q 467 1061 464 1060 q 487 1060 478 1067 q 497 1042 496 1053 q 496 1028 499 1035 q 488 1018 493 1022 q 478 1013 483 1014 z "},"":{"ha":669,"x_min":58,"x_max":601,"o":"m 517 814 q 547 816 528 815 q 583 807 567 817 q 599 779 600 797 q 588 762 599 769 q 571 752 576 754 q 549 746 565 750 q 524 739 536 743 q 517 736 522 738 q 511 735 513 735 q 508 733 510 735 q 488 725 494 728 q 433 701 460 714 q 430 699 433 701 q 426 697 426 697 q 417 692 421 694 q 393 678 406 685 q 340 640 367 661 q 340 639 340 640 q 432 526 392 583 q 467 476 450 503 q 485 450 478 460 q 494 432 490 440 l 499 418 l 499 421 q 468 378 508 390 q 397 389 425 364 q 358 444 388 399 q 324 496 342 471 q 267 576 286 550 q 157 431 200 510 q 108 422 144 407 q 85 440 96 428 q 81 463 75 451 q 214 646 131 567 q 175 694 194 671 q 79 807 81 806 q 78 842 58 829 q 103 846 89 849 q 126 836 117 843 q 244 740 213 768 q 282 703 263 724 q 429 785 350 753 q 492 807 460 797 q 517 814 510 813 z "},"":{"ha":1029,"x_min":68,"x_max":961,"o":"m 394 278 q 390 278 392 278 q 394 278 392 278 m 940 563 q 950 560 946 563 q 957 553 954 557 q 960 544 960 549 q 919 431 951 483 q 835 346 886 378 q 631 317 738 288 q 607 294 619 306 q 588 277 601 290 q 563 256 574 264 q 542 240 553 247 q 467 210 508 219 q 385 201 426 200 q 321 213 351 204 q 269 233 294 221 q 197 136 229 174 q 174 135 188 125 q 168 158 160 146 q 204 210 181 176 q 236 254 228 243 q 114 394 158 306 q 69 581 69 483 q 128 792 68 693 q 192 874 154 838 q 239 915 215 899 q 263 932 250 924 q 288 944 271 936 q 313 956 304 951 q 361 944 333 969 q 364 907 386 922 q 322 879 336 889 q 244 801 278 846 q 177 613 183 718 q 221 418 171 508 q 283 336 246 372 q 288 332 286 335 q 397 524 342 419 q 326 697 343 611 q 330 805 315 754 q 392 882 344 856 q 568 872 474 926 q 576 888 571 878 q 582 901 581 899 q 595 910 588 910 q 608 902 603 910 q 610 886 614 894 q 596 856 604 874 q 599 853 599 853 q 717 675 685 786 q 717 461 750 564 q 658 349 699 401 q 830 390 750 331 q 922 544 910 450 q 940 563 924 563 m 378 650 q 418 563 394 604 q 553 839 471 665 q 465 863 515 864 q 385 829 415 863 q 378 650 335 774 m 593 329 q 594 329 593 329 q 583 335 589 332 q 419 488 494 383 q 379 414 400 450 q 317 308 349 360 q 364 285 339 294 q 469 275 415 267 q 593 329 553 289 m 621 358 q 692 504 676 424 q 692 620 701 563 q 654 731 683 678 q 581 821 625 785 q 531 713 551 756 q 440 525 482 608 q 476 475 457 499 q 621 358 551 386 z "},"":{"ha":719,"x_min":68,"x_max":732,"o":"m 726 550 q 715 465 731 518 q 683 388 703 425 q 617 294 651 332 q 513 246 567 240 q 428 311 468 250 q 415 341 422 321 q 401 371 407 361 q 355 326 407 363 q 286 282 303 289 q 213 270 257 269 q 142 286 169 271 q 101 328 117 301 q 80 392 86 354 q 72 453 74 429 q 69 518 69 478 q 69 531 69 526 q 86 714 68 622 q 142 865 106 822 q 176 867 154 879 q 200 838 199 854 q 198 813 200 825 q 192 784 196 800 q 186 760 188 768 q 174 678 179 715 q 163 517 160 588 q 164 499 164 513 q 165 476 164 485 q 166 452 165 467 q 169 426 167 438 q 173 401 171 415 q 178 377 175 388 q 187 356 182 367 q 199 338 192 346 q 213 324 206 329 q 230 315 221 318 q 248 313 239 313 q 265 315 257 314 q 283 322 274 317 q 299 332 293 328 q 315 344 306 336 q 329 356 325 351 q 343 368 333 360 q 386 408 365 388 q 379 507 376 442 q 393 625 382 558 q 442 810 414 742 q 568 951 496 939 q 629 925 604 957 q 645 879 643 907 q 644 834 647 851 q 633 786 642 817 q 583 643 618 719 q 471 451 533 533 q 485 333 465 388 q 529 286 500 290 q 576 306 550 283 q 647 400 611 336 q 679 475 667 436 q 685 501 682 486 q 692 529 689 515 q 699 554 694 543 q 713 565 701 567 q 726 550 725 563 m 481 600 q 472 519 475 565 q 474 519 474 519 q 550 663 514 581 q 594 783 575 715 q 597 790 596 786 q 603 896 619 864 q 585 914 596 911 q 565 909 575 917 q 548 891 556 901 q 536 869 540 881 q 535 868 536 869 q 523 829 528 850 q 514 781 518 808 q 507 742 510 754 q 481 600 488 654 m 257 1035 q 255 1062 242 1047 q 285 1068 268 1076 q 340 1025 308 1057 q 374 975 361 1003 q 367 951 381 960 q 343 957 353 943 q 307 997 331 975 q 281 1017 299 1006 q 257 1035 264 1029 z "},"":{"ha":719,"x_min":68,"x_max":732,"o":"m 726 550 q 715 465 731 518 q 683 388 703 425 q 617 294 651 332 q 513 246 567 240 q 428 311 468 250 q 415 341 422 321 q 401 371 407 361 q 355 326 407 363 q 286 282 303 289 q 213 270 257 269 q 142 286 169 271 q 101 328 117 301 q 80 392 86 354 q 72 453 74 429 q 69 518 69 478 q 69 531 69 526 q 86 714 68 622 q 142 865 106 822 q 176 867 154 879 q 200 838 199 854 q 198 813 200 825 q 192 784 196 800 q 186 760 188 768 q 174 678 179 715 q 163 517 160 588 q 165 493 164 515 q 166 461 165 471 q 169 431 167 451 q 174 397 171 410 q 182 369 176 385 q 195 342 188 353 q 213 324 203 331 q 235 314 224 317 q 260 315 247 311 q 282 322 272 318 q 305 336 292 326 q 324 351 318 346 q 343 368 331 357 q 386 408 365 388 q 379 507 376 442 q 393 625 382 558 q 442 810 414 742 q 568 951 496 939 q 629 925 604 957 q 645 879 643 907 q 644 834 647 851 q 633 786 642 817 q 583 643 618 719 q 471 451 533 533 q 485 333 457 442 q 501 302 489 315 q 529 286 514 289 q 576 306 550 283 q 647 400 611 336 q 679 475 667 436 q 684 494 682 483 q 688 515 686 506 q 693 535 690 524 q 699 554 696 546 q 713 565 701 567 q 726 550 725 563 m 481 600 q 472 519 475 565 q 474 519 474 519 q 550 663 514 581 q 594 783 575 715 q 598 794 596 785 q 601 805 600 803 q 604 815 601 807 q 607 827 607 824 q 609 839 607 831 q 611 851 611 847 q 611 863 611 856 q 610 874 611 869 q 607 885 608 879 q 603 896 606 890 q 585 914 596 911 q 565 909 575 917 q 548 891 556 901 q 536 869 540 881 q 535 868 536 869 q 523 829 528 850 q 514 781 518 808 q 507 742 510 754 q 481 600 488 654 m 354 953 q 333 947 346 939 q 325 971 319 956 q 357 1021 338 999 q 408 1064 386 1053 q 437 1058 425 1072 q 435 1031 449 1043 q 413 1012 429 1024 q 389 993 397 1000 q 354 953 367 971 z "},"":{"ha":719,"x_min":68,"x_max":732,"o":"m 726 550 q 715 465 731 518 q 683 388 703 425 q 617 294 651 332 q 513 246 567 240 q 428 311 468 250 q 420 325 424 317 q 415 340 417 333 q 409 356 413 347 q 401 371 406 364 q 355 326 407 363 q 286 282 303 289 q 213 270 257 269 q 142 286 169 271 q 101 328 117 301 q 80 392 86 354 q 72 453 74 429 q 69 518 69 478 q 69 531 69 526 q 86 714 68 622 q 142 865 106 822 q 176 867 154 879 q 200 838 199 854 q 198 813 200 825 q 192 784 196 800 q 186 760 188 768 q 174 678 179 715 q 163 517 160 588 q 165 493 164 515 q 166 461 165 471 q 169 431 167 451 q 174 397 171 410 q 182 369 176 385 q 195 342 188 353 q 213 324 203 331 q 233 315 222 317 q 253 313 244 313 q 273 319 261 314 q 292 328 285 324 q 310 341 299 332 q 327 354 322 350 q 343 368 332 358 q 386 408 365 388 q 379 507 376 442 q 393 625 382 558 q 442 810 414 742 q 568 951 496 939 q 629 925 604 957 q 645 879 643 907 q 644 834 647 851 q 633 786 642 817 q 583 643 618 719 q 471 451 533 533 q 485 333 465 388 q 529 286 500 290 q 576 306 550 283 q 647 400 611 336 q 679 475 667 436 q 689 514 683 488 q 699 554 694 540 q 713 565 701 567 q 726 550 725 563 m 481 600 q 472 519 475 565 q 474 519 474 519 q 550 663 514 581 q 594 783 575 715 q 598 794 596 785 q 601 805 600 803 q 604 815 601 807 q 607 827 607 824 q 609 839 607 831 q 611 851 611 847 q 611 863 611 856 q 610 874 611 869 q 607 885 608 879 q 603 896 606 890 q 585 914 596 911 q 565 909 575 917 q 548 891 556 901 q 536 869 540 881 q 535 868 536 869 q 523 829 528 850 q 514 781 518 808 q 507 742 510 754 q 481 600 488 654 m 294 944 q 278 947 285 938 q 278 964 271 957 q 319 1003 292 978 q 357 1024 346 1024 q 388 1003 372 1025 q 397 988 392 996 q 409 969 403 979 q 419 954 415 960 q 419 938 425 946 q 405 930 414 931 q 390 938 396 929 q 368 971 378 956 q 358 985 358 985 q 356 989 358 986 q 354 989 356 989 q 339 978 354 988 q 326 967 338 976 q 294 944 304 950 z "},"":{"ha":719,"x_min":68,"x_max":732,"o":"m 726 550 q 715 465 731 518 q 683 388 703 425 q 617 294 651 332 q 513 246 567 240 q 428 311 468 250 q 415 341 422 321 q 401 371 407 361 q 378 344 406 365 q 323 303 351 322 q 286 282 294 285 q 213 270 257 269 q 142 286 169 271 q 101 328 117 301 q 80 392 86 354 q 72 453 74 429 q 69 518 69 478 q 69 522 69 521 q 69 526 69 524 q 69 531 69 528 q 86 714 68 622 q 142 865 106 822 q 176 867 154 879 q 200 838 199 854 q 199 824 200 832 q 198 811 199 817 q 196 799 197 806 q 193 785 194 792 q 190 772 192 779 q 186 760 188 765 q 174 678 179 715 q 163 517 160 588 q 165 493 164 515 q 166 461 165 471 q 169 431 167 451 q 174 397 171 410 q 182 369 176 385 q 195 342 188 353 q 213 324 203 331 q 242 314 226 315 q 269 316 257 313 q 297 331 281 319 q 320 348 313 342 q 343 368 328 354 q 386 408 365 388 q 379 507 376 442 q 393 625 382 558 q 442 810 414 742 q 568 951 496 939 q 629 925 604 957 q 645 879 643 907 q 644 834 647 851 q 633 786 642 817 q 583 643 618 719 q 471 451 533 533 q 485 333 465 388 q 529 286 500 290 q 576 306 550 283 q 647 400 611 336 q 679 475 667 436 q 689 514 683 488 q 699 554 694 540 q 713 565 701 567 q 726 550 725 563 m 481 600 q 472 519 475 565 q 474 519 474 519 q 550 663 514 581 q 594 783 575 715 q 598 794 596 785 q 601 805 600 803 q 604 815 601 807 q 607 827 607 824 q 609 839 607 831 q 611 851 611 847 q 611 863 611 856 q 610 874 611 869 q 607 885 608 879 q 603 896 606 890 q 585 914 596 911 q 565 909 575 917 q 548 891 556 901 q 536 869 540 881 q 535 868 536 869 q 523 829 528 850 q 514 781 518 808 q 507 742 510 754 q 481 600 488 654 m 324 963 q 321 958 324 963 q 308 952 318 954 q 290 955 299 950 q 279 969 281 960 q 279 981 278 975 q 285 990 281 986 q 293 996 289 994 q 299 1001 296 1000 q 318 1000 308 1007 q 329 981 328 993 q 324 963 331 971 m 406 963 q 403 958 406 963 q 390 952 400 954 q 372 955 381 950 q 361 969 363 960 q 363 986 358 978 q 376 996 368 994 q 381 1001 378 1000 q 400 1000 390 1007 q 411 981 410 993 q 406 963 413 971 z "},"":{"ha":828,"x_min":61,"x_max":843,"o":"m 828 564 q 840 542 843 560 q 763 410 829 467 q 614 331 689 347 q 600 328 608 329 q 598 321 600 328 q 594 306 596 314 q 592 296 592 297 q 575 263 586 281 q 531 203 557 231 q 397 121 482 153 q 244 103 324 93 q 104 154 146 114 q 81 221 78 185 q 110 286 83 257 q 249 353 154 336 q 326 360 285 360 q 419 359 367 361 q 496 357 471 357 q 519 485 513 425 q 529 629 528 558 q 394 465 483 524 q 200 443 304 407 q 157 469 188 447 q 81 611 106 507 q 74 779 63 683 q 118 956 81 833 q 136 967 121 967 q 160 963 151 967 q 169 956 164 960 q 180 949 175 953 q 188 939 185 944 q 189 926 190 933 q 172 776 178 847 q 181 633 167 690 q 199 579 189 603 q 225 532 211 551 q 294 479 257 488 q 465 590 385 464 q 514 701 499 643 q 524 761 522 732 q 525 788 525 767 q 526 819 525 808 q 531 828 528 825 q 535 836 533 835 q 543 842 538 840 q 572 839 554 847 q 607 800 597 829 q 625 726 621 758 q 622 451 642 592 q 608 368 617 408 q 726 429 672 385 q 804 551 790 481 q 813 562 806 558 q 828 564 821 565 m 458 251 q 486 319 485 303 q 308 322 410 329 q 165 283 221 317 q 133 254 146 272 q 117 215 119 236 q 136 176 115 194 q 196 150 154 161 q 268 140 231 139 q 404 185 347 140 q 458 251 438 213 m 393 938 q 370 931 383 924 q 364 954 357 939 q 396 1006 376 982 q 447 1047 425 1038 q 476 1041 464 1056 q 474 1014 488 1026 q 451 997 467 1008 q 428 976 435 985 q 393 938 406 956 z "},"":{"ha":635,"x_min":68,"x_max":640,"o":"m 624 664 q 631 563 640 615 q 592 469 622 511 q 418 368 528 386 q 210 396 319 351 q 210 394 210 396 q 210 393 210 393 q 192 311 201 351 q 182 272 188 290 q 175 249 176 251 q 160 224 169 235 q 117 214 150 208 q 78 239 88 219 q 69 260 71 249 q 74 279 72 269 q 76 289 75 282 q 78 299 78 296 q 82 318 79 306 q 86 336 85 331 q 103 411 96 378 q 125 565 117 486 q 140 728 136 663 q 144 811 144 808 q 146 832 146 815 q 147 858 146 849 q 149 882 147 863 q 151 913 151 901 q 165 928 151 925 q 190 929 178 932 q 228 892 225 921 q 231 876 229 885 q 235 859 233 868 q 238 843 236 850 q 240 807 239 839 q 242 786 242 793 q 481 792 383 822 q 568 744 531 776 q 624 664 606 711 m 572 510 q 597 592 594 547 q 579 675 599 636 q 440 767 539 746 q 393 774 417 772 q 338 772 369 775 q 294 766 307 768 q 243 757 281 764 q 243 715 243 735 q 235 561 243 631 q 217 433 228 499 q 431 409 332 385 q 572 510 529 433 z "},"":{"ha":349,"x_min":-129,"x_max":354,"o":"m 189 646 q 169 622 175 636 q 174 593 163 607 q 202 576 182 585 q 229 564 222 568 q 275 524 256 547 q 324 412 315 475 q 306 292 333 349 q 217 202 276 235 q 96 175 158 169 q 80 186 85 176 q 80 205 75 196 q 96 213 85 214 q 158 218 126 210 q 215 244 189 226 q 260 289 240 263 q 286 346 279 315 q 276 452 299 399 q 207 533 253 506 q 181 547 200 539 q 154 561 163 554 q 129 614 126 581 q 153 665 131 646 q 214 701 176 683 q 254 720 240 713 q 286 744 268 728 q 310 781 304 761 q 296 838 319 813 q 239 872 272 863 q 118 889 182 890 q 56 883 88 889 q 6 854 11 876 q 6 834 4 846 q 12 808 8 822 q 17 788 15 793 q 24 700 22 736 q 25 540 28 608 q -3 274 21 404 q -14 207 -10 232 q -17 198 -15 206 q -19 188 -18 190 q -21 181 -19 186 q -24 172 -22 175 q -30 166 -26 169 q -36 160 -33 163 q -74 151 -53 150 q -111 163 -96 151 q -122 207 -128 175 q -119 224 -122 213 q -117 240 -117 235 q -106 301 -111 271 q -74 581 -83 450 q -67 724 -67 675 q -65 794 -67 726 q -61 851 -64 842 q 3 901 -51 885 q 115 921 58 919 q 285 892 221 925 q 335 843 317 874 q 347 778 354 813 q 253 678 335 717 q 237 671 247 675 q 219 663 226 667 q 204 656 213 660 q 189 646 196 651 z "},"":{"ha":478,"x_min":-76,"x_max":479,"o":"m 474 556 q 471 494 479 540 q 436 388 463 439 q 368 313 410 336 q 253 339 311 279 q 221 375 235 357 q 121 292 192 313 q 0 306 40 269 q -17 322 -10 313 q -61 482 -75 389 q -26 558 -56 524 q 44 608 3 592 q 142 617 92 626 q 178 601 164 613 q 181 599 179 601 q 185 597 182 596 q 190 602 186 597 q 193 607 193 607 q 207 613 199 611 q 235 614 219 615 q 260 603 249 611 q 272 583 272 596 q 268 566 271 578 q 264 550 265 554 q 261 511 261 531 q 271 436 261 474 q 364 346 306 308 q 433 457 406 372 q 444 507 442 482 q 447 530 446 513 q 449 556 447 547 q 462 564 453 564 q 474 556 471 564 m 196 400 q 196 415 200 407 q 188 435 190 425 q 171 519 172 471 q 174 553 171 536 q 156 577 169 568 q 124 586 142 586 q 76 568 101 585 q 49 533 60 551 q 32 469 32 503 q 57 383 31 426 q 124 339 83 339 q 178 371 153 339 q 192 392 186 381 q 196 400 194 396 m 135 707 q 121 726 131 714 q 108 743 111 739 q 112 764 99 756 q 136 764 125 772 q 182 674 171 735 q 172 658 185 661 q 156 667 160 654 q 135 707 149 686 z "},"":{"ha":478,"x_min":-76,"x_max":479,"o":"m 474 556 q 471 494 479 540 q 436 388 463 439 q 368 313 410 336 q 253 339 311 279 q 221 375 235 357 q 121 292 192 313 q 0 306 40 269 q -17 322 -10 313 q -61 482 -75 389 q -26 558 -56 524 q 44 608 3 592 q 142 617 92 626 q 178 601 164 613 q 181 599 179 601 q 185 597 182 596 q 190 602 186 597 q 193 607 193 607 q 207 613 199 611 q 235 614 219 615 q 260 603 249 611 q 272 583 272 596 q 268 566 271 578 q 264 550 265 554 q 261 511 261 531 q 271 436 261 474 q 364 346 306 308 q 433 457 406 372 q 444 507 442 482 q 447 530 446 513 q 449 556 447 547 q 462 564 453 564 q 474 556 471 564 m 196 400 q 196 415 200 407 q 188 435 190 425 q 171 519 172 471 q 174 553 171 536 q 156 577 169 568 q 124 586 142 586 q 76 568 101 585 q 49 533 60 551 q 32 469 32 503 q 57 383 31 426 q 124 339 83 339 q 178 371 153 339 q 192 392 186 381 q 196 400 194 396 m 200 667 q 177 660 190 653 q 171 683 164 668 q 203 735 182 711 q 254 776 232 767 q 282 770 269 785 q 281 743 294 756 q 269 734 275 739 q 257 725 263 729 q 245 716 251 721 q 233 706 239 711 q 200 667 211 685 z "},"":{"ha":478,"x_min":-76,"x_max":479,"o":"m 474 556 q 471 494 479 540 q 436 388 463 439 q 368 313 410 336 q 253 339 311 279 q 221 375 235 357 q 121 292 192 313 q 0 306 40 269 q -17 322 -10 313 q -61 482 -75 389 q -26 558 -56 524 q 44 608 3 592 q 142 617 92 626 q 178 601 164 613 q 181 599 179 601 q 185 597 182 596 q 190 602 186 597 q 193 607 193 607 q 207 613 199 611 q 235 614 219 615 q 260 603 249 611 q 272 583 272 596 q 268 566 271 578 q 264 550 265 554 q 261 511 261 531 q 271 436 261 474 q 364 346 306 308 q 433 457 406 372 q 444 507 442 482 q 447 530 446 513 q 449 556 447 547 q 462 564 453 564 q 474 556 471 564 m 196 400 q 196 415 200 407 q 188 435 190 425 q 171 519 172 471 q 174 553 171 536 q 156 577 169 568 q 124 586 142 586 q 76 568 101 585 q 49 533 60 551 q 32 469 32 503 q 57 383 31 426 q 124 339 83 339 q 178 371 153 339 q 192 392 186 381 q 196 400 194 396 m 97 672 q 81 676 88 667 q 82 692 75 685 q 124 731 94 706 q 161 751 149 751 q 190 731 176 753 q 201 715 196 724 q 213 697 206 707 q 222 682 219 688 q 215 660 232 668 q 193 665 201 654 q 182 682 189 671 q 171 699 175 693 q 161 713 163 713 q 158 717 161 714 q 157 717 158 717 q 143 706 157 717 q 129 694 142 704 q 97 672 107 678 z "},"":{"ha":478,"x_min":-76,"x_max":479,"o":"m 474 556 q 471 494 479 540 q 436 388 463 439 q 368 313 410 336 q 253 339 311 279 q 221 375 235 357 q 121 292 192 313 q 0 306 40 269 q -17 322 -10 313 q -61 482 -75 389 q -26 558 -56 524 q 44 608 3 592 q 142 617 92 626 q 178 601 164 613 q 181 599 179 601 q 185 597 182 596 q 190 602 186 597 q 193 607 193 607 q 207 613 199 611 q 235 614 219 615 q 260 603 249 611 q 272 583 272 596 q 268 566 271 578 q 264 550 265 554 q 261 511 261 531 q 271 436 261 474 q 364 346 306 308 q 433 457 406 372 q 444 507 442 482 q 447 530 446 513 q 449 556 447 547 q 462 564 453 564 q 474 556 471 564 m 196 400 q 196 415 200 407 q 188 435 190 425 q 171 519 172 471 q 174 553 171 536 q 156 577 169 568 q 124 586 142 586 q 76 568 101 585 q 49 533 60 551 q 32 469 32 503 q 57 383 31 426 q 124 339 83 339 q 178 371 153 339 q 192 392 186 381 q 196 400 194 396 m 93 682 q 86 672 93 675 q 73 671 79 668 q 67 682 67 674 q 93 734 67 715 q 151 740 119 753 q 169 728 160 736 q 187 712 178 719 q 204 701 196 704 q 226 715 221 697 q 228 726 228 719 q 231 736 229 732 q 236 744 232 740 q 247 749 240 750 q 257 742 254 747 q 260 713 264 729 q 246 685 256 696 q 192 672 225 658 q 165 691 181 676 q 140 710 150 706 q 110 708 125 717 q 93 682 94 700 z "},"":{"ha":478,"x_min":-76,"x_max":479,"o":"m 474 556 q 471 494 479 540 q 436 388 463 439 q 368 313 410 336 q 253 339 311 279 q 221 375 235 357 q 121 292 192 313 q 0 306 40 269 q -17 322 -10 313 q -61 482 -75 389 q -26 558 -56 524 q 44 608 3 592 q 142 617 92 626 q 178 601 164 613 q 181 599 179 601 q 185 597 182 596 q 190 602 186 597 q 193 607 193 607 q 207 613 199 611 q 235 614 219 615 q 260 603 249 611 q 272 583 272 596 q 268 566 271 578 q 264 550 265 554 q 261 511 261 531 q 271 436 261 474 q 364 346 306 308 q 433 457 406 372 q 444 507 442 482 q 447 530 446 513 q 449 556 447 547 q 462 564 453 564 q 474 556 471 564 m 196 400 q 196 415 200 407 q 188 435 190 425 q 171 519 172 471 q 174 553 171 536 q 156 577 169 568 q 124 586 142 586 q 76 568 101 585 q 49 533 60 551 q 32 469 32 503 q 57 383 31 426 q 124 339 83 339 q 178 371 153 339 q 192 392 186 381 q 196 400 194 396 m 114 674 q 94 676 104 671 q 83 692 85 682 q 85 707 81 699 q 99 717 90 715 q 103 722 100 721 q 123 721 114 728 q 133 703 132 714 q 132 690 135 696 q 124 679 129 683 q 114 674 119 675 m 210 684 q 207 680 210 684 q 195 673 204 675 q 176 676 186 671 q 165 692 167 682 q 167 707 163 699 q 181 717 172 715 q 185 722 182 721 q 196 724 190 725 q 206 721 201 724 q 213 713 210 718 q 215 703 215 707 q 210 684 217 693 z "},"":{"ha":478,"x_min":-76,"x_max":479,"o":"m 474 556 q 471 494 479 540 q 436 388 463 439 q 368 313 410 336 q 253 339 311 279 q 221 375 235 357 q 121 292 192 313 q 0 306 40 269 q -17 322 -10 313 q -61 482 -75 389 q -26 558 -56 524 q 44 608 3 592 q 142 617 92 626 q 178 601 164 613 q 181 599 179 601 q 185 597 182 596 q 190 602 186 597 q 193 607 193 607 q 207 613 199 611 q 235 614 219 615 q 260 603 249 611 q 272 583 272 596 q 268 566 271 578 q 264 550 265 554 q 261 511 261 531 q 271 436 261 474 q 364 346 306 308 q 433 457 406 372 q 444 507 442 482 q 447 530 446 513 q 449 556 447 547 q 462 564 453 564 q 474 556 471 564 m 196 400 q 196 415 200 407 q 188 435 190 425 q 171 519 172 471 q 174 553 171 536 q 156 577 169 568 q 124 586 142 586 q 76 568 101 585 q 49 533 60 551 q 32 469 32 503 q 57 383 31 426 q 124 339 83 339 q 178 371 153 339 q 192 392 186 381 q 196 400 194 396 m 165 652 q 153 647 165 652 q 117 647 142 642 q 78 672 92 651 q 72 715 64 692 q 157 756 88 756 q 161 756 160 756 q 192 731 179 753 q 196 686 204 710 q 165 652 188 663 m 106 713 q 103 692 99 700 q 121 679 108 683 q 163 696 151 672 q 161 715 167 706 q 156 720 160 718 q 149 724 153 722 q 144 728 146 726 q 143 729 144 729 q 106 713 115 725 z "},"":{"ha":713,"x_min":-72,"x_max":713,"o":"m 683 560 q 701 563 690 568 q 711 547 713 557 q 696 488 711 528 q 668 438 688 467 q 567 336 628 375 q 383 283 474 275 q 272 340 311 289 q 256 365 263 351 q 244 353 247 358 q 157 292 211 308 q 36 306 76 269 q 19 322 26 313 q -26 482 -39 389 q 10 558 -19 524 q 81 608 39 592 q 188 613 126 626 q 238 596 219 606 q 211 632 229 618 q 99 654 167 667 q 49 638 94 653 q -21 628 4 624 q -59 660 -47 635 q -53 706 -71 685 q -32 708 -44 715 q -24 689 -19 701 q -21 670 -28 676 q 0 664 -14 664 q 18 668 8 665 q 40 675 28 671 q 57 682 51 679 q 181 686 126 703 q 235 654 211 676 q 269 603 260 632 q 325 660 290 633 q 421 697 371 693 q 503 667 490 706 q 504 643 506 656 q 486 607 500 625 q 456 575 475 592 q 410 538 438 558 q 381 515 383 517 q 319 456 347 489 q 322 419 317 438 q 333 396 325 407 q 351 375 342 382 q 400 350 376 358 q 499 342 449 332 q 540 357 522 347 q 579 386 561 369 q 642 464 614 418 q 664 507 658 490 q 669 524 665 511 q 676 544 672 536 q 683 560 679 553 m 232 400 q 232 415 235 407 q 222 435 226 425 q 207 519 208 471 q 210 553 207 536 q 192 577 206 568 q 160 586 178 586 q 113 568 138 585 q 85 533 94 551 q 68 469 68 503 q 92 383 67 426 q 160 339 118 339 q 214 371 189 339 q 228 392 222 381 q 232 400 231 396 m 325 539 q 318 506 321 522 q 318 506 318 506 q 406 583 339 531 q 428 601 418 593 q 467 660 478 644 q 417 661 456 675 q 372 631 390 651 q 353 604 363 618 q 325 539 336 576 z "},"":{"ha":413,"x_min":-51,"x_max":415,"o":"m 410 553 q 407 483 415 536 q 344 353 396 404 q 203 288 292 297 q 176 286 190 286 q 176 285 176 285 q 175 275 175 279 q 211 254 199 275 q 213 217 219 236 q 190 186 207 197 q 103 176 160 167 q 26 215 49 188 q 24 233 19 224 q 40 240 29 243 q 63 230 47 238 q 88 219 79 222 q 135 210 111 211 q 179 222 168 208 q 181 241 188 233 q 161 240 174 249 q 144 241 154 233 q 139 257 135 249 q 149 288 143 269 q 33 325 81 292 q -50 479 -47 382 q -31 570 -51 526 q 28 643 -10 614 q 140 687 78 681 q 257 667 201 693 q 275 651 268 661 q 283 607 293 635 q 266 584 279 593 q 241 572 253 575 q 211 565 229 568 q 183 557 193 561 q 163 567 169 551 q 169 590 156 583 q 203 599 181 596 q 232 606 225 603 q 251 618 246 610 q 243 621 247 619 q 159 624 204 635 q 88 579 114 613 q 57 487 57 538 q 83 390 57 436 q 164 339 106 351 q 261 344 222 326 q 354 431 324 367 q 368 493 364 451 q 379 553 372 535 q 394 564 382 564 q 410 553 406 564 z "},"":{"ha":401,"x_min":-85,"x_max":401,"o":"m 372 560 q 390 563 379 568 q 400 547 400 557 q 383 488 400 528 q 357 438 375 467 q 256 336 315 375 q 71 283 163 275 q -39 340 -1 289 q -80 451 -75 388 q -58 568 -85 514 q 14 660 -44 618 q 110 697 60 693 q 190 667 178 706 q 192 643 194 656 q 175 607 189 625 q 144 575 163 592 q 99 538 126 558 q 68 515 71 517 q 7 456 36 489 q 11 419 6 438 q 22 396 14 407 q 40 375 31 382 q 88 350 65 358 q 188 342 138 332 q 228 357 211 347 q 268 386 250 369 q 329 464 301 418 q 351 507 346 490 q 356 524 353 511 q 363 544 360 536 q 372 560 367 553 m 14 539 q 6 506 8 522 l 7 506 q 94 583 26 531 q 117 601 107 593 q 154 660 167 644 q 106 661 144 675 q 61 631 79 651 q 42 604 50 618 q 14 539 24 576 m 63 813 q 49 833 58 821 q 36 849 39 844 q 40 870 26 861 q 63 869 53 879 q 110 779 99 840 q 100 763 113 767 q 83 772 88 760 q 63 813 76 792 z "},"":{"ha":401,"x_min":-85,"x_max":401,"o":"m 372 560 q 390 563 379 568 q 400 547 400 557 q 383 488 400 528 q 357 438 375 467 q 256 336 315 375 q 71 283 163 275 q -39 340 -1 289 q -80 451 -75 388 q -58 568 -85 514 q 14 660 -44 618 q 110 697 60 693 q 190 667 178 706 q 192 643 194 656 q 175 607 189 625 q 144 575 163 592 q 99 538 126 558 q 68 515 71 517 q 7 456 36 489 q 11 419 6 438 q 22 396 14 407 q 40 375 31 382 q 88 350 65 358 q 188 342 138 332 q 228 357 211 347 q 268 386 250 369 q 329 464 301 418 q 351 507 346 490 q 356 524 353 511 q 363 544 360 536 q 372 560 367 553 m 14 539 q 6 506 8 522 l 7 506 q 94 583 26 531 q 117 601 107 593 q 154 660 167 644 q 106 661 144 675 q 61 631 79 651 q 42 604 50 618 q 14 539 24 576 m 101 761 q 78 755 92 747 q 72 778 65 763 q 104 829 83 807 q 156 872 133 861 q 184 865 172 879 q 182 838 196 851 q 159 820 175 832 q 136 801 143 808 q 101 761 113 779 z "},"":{"ha":401,"x_min":-85,"x_max":401,"o":"m 372 560 q 390 563 379 568 q 400 547 400 557 q 383 488 400 528 q 357 438 375 467 q 256 336 315 375 q 71 283 163 275 q -39 340 -1 289 q -80 451 -75 388 q -58 568 -85 514 q 14 660 -44 618 q 110 697 60 693 q 190 667 178 706 q 192 643 194 656 q 175 607 189 625 q 144 575 163 592 q 99 538 126 558 q 68 515 71 517 q 7 456 36 489 q 11 419 6 438 q 22 396 14 407 q 40 375 31 382 q 88 350 65 358 q 188 342 138 332 q 228 357 211 347 q 268 386 250 369 q 329 464 301 418 q 351 507 346 490 q 356 524 353 511 q 363 544 360 536 q 372 560 367 553 m 14 539 q 6 506 8 522 l 7 506 q 94 583 26 531 q 117 601 107 593 q 154 660 167 644 q 106 661 144 675 q 61 631 79 651 q 42 604 50 618 q 14 539 24 576 m 46 764 q 31 767 38 758 q 31 785 24 776 q 72 822 43 797 q 110 844 97 844 q 140 822 125 844 q 150 808 144 815 q 162 790 156 800 q 171 775 168 781 q 164 753 181 761 q 142 758 150 746 q 131 775 139 764 q 119 792 124 786 q 110 805 111 804 q 108 810 110 806 q 106 808 107 810 q 92 797 106 808 q 78 788 90 797 q 46 764 56 771 z "},"":{"ha":401,"x_min":-85,"x_max":401,"o":"m 372 560 q 390 563 379 568 q 400 547 400 557 q 383 488 400 528 q 357 438 375 467 q 256 336 315 375 q 71 283 163 275 q -39 340 -1 289 q -80 451 -75 388 q -58 568 -85 514 q 14 660 -44 618 q 110 697 60 693 q 190 667 178 706 q 192 643 194 656 q 175 607 189 625 q 144 575 163 592 q 99 538 126 558 q 68 515 71 517 q 7 456 36 489 q 11 419 6 438 q 22 396 14 407 q 40 375 31 382 q 88 350 65 358 q 188 342 138 332 q 228 357 211 347 q 268 386 250 369 q 329 464 301 418 q 351 507 346 490 q 356 524 353 511 q 363 544 360 536 q 372 560 367 553 m 14 539 q 6 506 8 522 l 7 506 q 94 583 26 531 q 117 601 107 593 q 154 660 167 644 q 106 661 144 675 q 61 631 79 651 q 42 604 50 618 q 14 539 24 576 m 111 799 q 108 794 111 799 q 96 788 106 790 q 77 791 86 786 q 65 806 68 796 q 68 822 64 814 q 81 832 72 829 q 85 836 82 835 q 105 835 96 843 q 115 817 114 828 q 111 799 117 807 m 193 799 q 190 794 193 799 q 178 788 188 790 q 159 790 168 785 q 147 806 150 796 q 150 822 146 814 q 163 832 154 829 q 167 836 164 835 q 187 835 178 843 q 197 817 196 828 q 193 799 199 807 z "},"":{"ha":179,"x_min":-81,"x_max":182,"o":"m 176 553 q 174 483 182 536 q 158 415 168 449 q 142 363 150 385 q 120 314 133 342 q 88 267 107 286 q 46 238 69 247 q -22 238 10 224 q -59 279 -46 249 q -74 332 -72 310 q -78 392 -76 354 q -78 401 -78 399 q -56 611 -81 504 q -31 630 -51 629 q 6 618 -11 631 q 19 590 22 606 q 13 439 8 518 q 13 422 13 436 q 15 398 14 407 q 17 373 15 389 q 23 347 19 357 q 32 328 26 338 q 47 315 38 318 q 68 315 56 313 q 92 334 82 319 q 107 360 103 349 q 117 397 111 372 q 124 425 122 421 q 138 488 133 457 q 140 509 139 496 q 141 533 140 522 q 146 553 142 544 q 160 564 149 564 q 176 553 172 564 m -35 746 q -43 758 -39 751 q -53 770 -47 764 q -62 782 -58 776 q -58 803 -71 794 q -35 803 -46 811 q 11 713 1 774 q 2 697 14 700 q -15 706 -10 693 q -35 746 -22 725 z "},"":{"ha":181,"x_min":-81,"x_max":182,"o":"m 176 553 q 174 483 182 536 q 158 415 168 449 q 142 363 150 385 q 120 314 133 342 q 88 267 107 286 q 46 238 69 247 q -22 238 10 224 q -59 279 -46 249 q -74 332 -72 310 q -78 392 -76 354 q -78 401 -78 399 q -56 611 -81 504 q -31 630 -51 629 q 6 618 -11 631 q 19 590 22 606 q 13 439 8 518 q 13 422 13 436 q 15 398 14 407 q 17 373 15 389 q 23 347 19 357 q 32 328 26 338 q 47 315 38 318 q 68 315 56 313 q 92 334 82 319 q 107 360 103 349 q 117 397 111 372 q 124 425 122 421 q 138 488 133 457 q 140 517 139 493 q 145 553 142 542 q 160 564 149 564 q 176 553 172 564 m -1 694 q -24 688 -11 681 q -31 711 -37 696 q 1 763 -18 739 q 53 804 31 794 q 81 798 69 813 q 79 771 93 783 q 65 759 74 765 q 47 747 56 753 q 33 733 39 740 q -1 694 11 713 z "},"":{"ha":179,"x_min":-81,"x_max":182,"o":"m 176 553 q 174 483 182 536 q 158 415 168 449 q 142 363 150 385 q 120 314 133 342 q 88 267 107 286 q 46 238 69 247 q -22 238 10 224 q -59 279 -46 249 q -74 332 -72 310 q -78 392 -76 354 q -78 401 -78 399 q -56 611 -81 504 q -31 630 -51 629 q 6 618 -11 631 q 19 590 22 606 q 13 439 8 518 q 13 426 13 436 q 14 409 14 417 q 15 390 14 401 q 18 369 17 378 q 22 350 19 361 q 29 333 25 339 q 39 321 33 328 q 51 315 44 314 q 68 315 58 315 q 92 334 82 319 q 107 360 103 349 q 117 397 111 372 q 124 425 122 421 q 138 488 133 457 q 140 517 139 493 q 145 553 142 542 q 160 564 149 564 q 176 553 172 564 m -53 714 q -69 717 -62 708 q -68 733 -76 726 q -26 772 -56 747 q 10 794 -1 793 q 40 772 25 794 q 51 757 46 765 q 62 739 56 749 q 72 725 68 729 q 72 708 78 715 q 58 699 67 700 q 43 707 50 699 q 21 740 39 713 q 11 755 11 754 q 8 760 11 756 q 7 758 8 758 q -8 747 7 758 q -21 736 -8 746 q -53 714 -43 719 z "},"":{"ha":179,"x_min":-81,"x_max":182,"o":"m 176 553 q 174 483 182 536 q 158 415 168 449 q 142 363 150 385 q 120 314 133 342 q 88 267 107 286 q 46 238 69 247 q -22 238 10 224 q -59 279 -46 249 q -74 332 -72 310 q -78 392 -76 354 q -78 401 -78 399 q -56 611 -81 504 q -31 630 -51 629 q 6 618 -11 631 q 19 590 22 606 q 13 439 8 518 q 13 422 13 436 q 15 398 14 407 q 17 373 15 389 q 23 347 19 357 q 32 328 26 338 q 47 315 38 318 q 68 315 56 313 q 92 334 82 319 q 107 360 103 349 q 117 397 111 372 q 124 425 122 421 q 138 488 133 457 q 140 509 139 496 q 141 533 140 522 q 146 553 142 544 q 160 564 149 564 q 176 553 172 564 m -30 737 q -33 732 -30 737 q -46 726 -36 728 q -65 729 -56 724 q -76 744 -74 735 q -73 760 -78 751 q -61 769 -68 768 q -56 775 -58 774 q -36 774 -46 781 q -25 754 -26 767 q -30 737 -24 746 m 52 737 q 49 732 52 737 q 36 726 46 728 q 17 729 26 724 q 7 744 8 735 q 9 760 4 751 q 21 769 14 768 q 26 775 24 774 q 46 774 36 781 q 57 754 56 767 q 52 737 58 746 z "},"":{"ha":358,"x_min":-87,"x_max":360,"o":"m 293 811 q 347 813 335 815 q 358 798 358 810 q 347 783 358 786 q 334 780 342 781 q 321 778 326 779 q 307 778 315 778 q 293 776 299 778 q 267 774 281 775 q 315 669 304 725 q 300 558 325 614 q 315 519 310 539 q 318 511 317 515 q 319 504 318 507 q 324 450 325 478 q 275 328 319 382 q 165 260 231 275 q 139 254 151 256 q -1 298 63 246 q -78 425 -65 350 q -68 526 -86 478 q -26 592 -54 563 q 50 646 6 625 q 138 669 104 671 q 268 604 211 667 q 275 596 272 600 q 271 692 289 642 q 222 767 256 732 q 142 747 190 760 q 124 756 128 743 q 133 774 121 769 q 193 792 161 785 q 139 825 169 810 q 119 834 132 829 q 97 844 107 839 q 79 854 86 849 q 76 872 71 861 q 90 882 81 883 q 132 869 103 882 q 174 850 154 860 q 239 803 210 829 q 240 803 240 803 q 293 811 264 807 m 46 538 q 36 517 40 528 q 179 507 132 497 q 257 557 231 518 q 228 592 244 576 q 207 608 217 603 q 147 608 188 618 q 117 599 132 606 q 46 538 68 575 m 282 419 q 285 485 290 449 q 275 521 282 503 q 174 471 236 479 q 29 488 115 463 q 28 467 28 478 q 54 392 29 424 q 121 350 79 360 q 247 368 190 333 q 282 419 272 383 z "},"":{"ha":653,"x_min":-51,"x_max":654,"o":"m 651 556 q 649 497 654 542 q 640 438 644 464 q 615 344 635 401 q 614 342 615 343 q 553 214 585 253 q 475 163 524 178 q 389 150 431 149 q 310 165 340 150 q 254 219 274 185 q 239 269 243 243 q 241 326 235 294 q 251 376 247 358 q 269 432 256 393 q 286 479 283 471 q 294 501 288 483 q 302 525 300 518 q 308 548 304 532 q 310 572 311 564 q 308 593 310 581 q 298 615 306 606 q 279 631 290 624 q 201 642 247 651 q 101 579 139 628 q 75 468 63 531 q 90 424 78 451 q 106 388 103 396 q 104 307 122 336 q 75 283 97 293 q 46 275 67 279 q -8 286 13 269 q -43 339 -33 306 q -47 379 -44 349 q -50 461 -51 421 q -37 560 -47 510 q -7 643 -25 618 q 26 643 4 657 q 49 614 47 629 q 49 588 49 596 q 45 561 49 581 q 42 536 42 542 q 113 643 57 604 q 217 678 156 674 q 356 642 314 683 q 390 518 400 596 q 358 399 386 492 q 343 299 342 340 q 361 236 343 261 q 397 208 379 210 q 457 217 428 207 q 510 247 486 226 q 589 376 564 294 q 608 464 601 415 q 614 514 611 482 q 621 556 618 549 q 636 567 624 567 q 651 556 649 568 m 78 358 q 72 383 76 371 q 59 409 67 394 q 49 432 51 424 q 38 482 39 456 q 36 456 36 467 q 40 374 36 414 q 46 347 43 351 q 65 340 53 338 q 78 354 76 342 q 78 358 79 356 m 174 758 q 167 748 174 751 q 153 748 160 744 q 147 758 147 751 q 175 810 149 792 q 232 817 201 829 q 258 797 242 813 q 286 778 275 782 q 307 793 301 774 q 309 802 308 796 q 311 813 310 808 q 317 821 313 817 q 328 825 321 826 q 338 818 335 824 q 341 789 344 806 q 328 761 338 772 q 272 749 306 735 q 256 759 264 751 q 238 774 247 767 q 222 786 229 782 q 191 785 207 794 q 174 758 175 776 z "},"":{"ha":494,"x_min":-71,"x_max":496,"o":"m 493 547 q 464 482 496 526 q 419 435 444 454 q 326 392 379 403 q 326 390 326 390 q 272 307 311 343 q 182 260 232 271 q 156 254 168 256 q 15 298 79 246 q -61 425 -49 350 q -51 526 -69 478 q -10 592 -37 563 q 67 646 22 625 q 154 669 121 671 q 285 604 228 667 q 332 519 319 567 q 336 504 335 511 q 340 450 342 478 q 336 426 339 439 q 399 463 372 439 q 436 507 421 482 q 450 531 444 518 q 465 560 463 556 q 483 563 474 567 q 493 547 493 558 m 278 378 q 281 381 279 379 q 257 386 279 382 q 197 410 226 393 q 144 449 168 426 q 101 499 119 471 q 78 558 83 528 q 44 467 43 519 q 71 392 46 424 q 138 350 96 360 q 211 349 172 342 q 278 378 250 356 m 297 419 q 303 450 303 419 q 301 485 303 481 q 244 592 293 549 q 224 608 233 603 q 164 608 204 618 q 133 599 149 606 q 111 586 111 588 q 124 539 113 563 q 196 455 149 489 q 297 419 243 421 m 143 769 q 139 776 142 772 q 134 783 136 779 q 129 789 132 786 q 124 795 126 792 q 119 802 122 799 q 115 808 117 806 q 119 832 106 822 q 143 831 132 842 q 192 733 181 799 q 182 715 194 719 q 164 725 169 711 q 143 769 157 746 z "},"":{"ha":494,"x_min":-71,"x_max":496,"o":"m 493 547 q 464 482 496 526 q 419 435 444 454 q 326 392 379 403 q 326 390 326 390 q 272 307 311 343 q 182 260 232 271 q 156 254 168 256 q 15 298 79 246 q -61 425 -49 350 q -51 526 -69 478 q -10 592 -37 563 q 67 646 22 625 q 154 669 121 671 q 285 604 228 667 q 332 519 319 567 q 336 504 335 511 q 340 450 342 478 q 336 426 339 439 q 399 463 372 439 q 436 507 421 482 q 450 531 444 518 q 465 560 463 556 q 483 563 474 567 q 493 547 493 558 m 278 378 q 281 381 279 379 q 257 386 279 382 q 179 420 217 396 q 114 481 142 444 q 78 558 86 518 q 44 467 43 519 q 71 392 46 424 q 138 350 96 360 q 211 349 172 342 q 278 378 250 356 m 297 419 q 303 450 303 419 q 301 485 303 481 q 244 592 293 549 q 224 608 233 603 q 164 608 204 618 q 133 599 149 606 q 111 586 111 588 q 124 539 113 563 q 196 455 149 489 q 297 419 243 421 m 153 718 q 130 713 143 704 q 124 736 117 721 q 156 786 136 764 q 207 829 185 818 q 235 823 224 838 q 233 796 247 808 q 219 784 228 790 q 201 771 210 778 q 188 758 193 764 q 153 718 165 736 z "},"":{"ha":494,"x_min":-71,"x_max":496,"o":"m 493 574 q 464 508 496 553 q 419 460 444 479 q 326 417 379 428 l 326 415 q 272 333 311 368 q 182 285 232 297 q 156 281 168 282 q 58 297 106 275 q -21 360 11 319 q -61 451 -53 401 q -51 551 -69 504 q -10 617 -37 588 q 67 671 22 650 q 154 696 121 697 q 285 629 228 693 q 332 544 319 592 q 336 531 335 538 q 340 475 342 503 q 336 451 339 464 q 399 489 372 465 q 436 533 421 508 q 450 557 444 544 q 465 585 463 582 q 483 588 474 592 q 493 574 493 583 m 278 404 q 281 406 279 404 q 257 413 279 407 q 142 475 194 426 q 78 585 90 524 q 44 493 43 544 q 57 440 46 464 q 89 399 68 415 q 138 375 110 382 q 211 374 172 367 q 278 404 250 382 m 297 444 q 303 475 303 444 q 301 511 303 506 q 244 618 293 574 q 224 633 233 628 q 164 635 204 643 q 133 624 149 631 q 111 613 111 614 q 124 565 113 589 q 196 480 149 514 q 297 444 243 446 m 108 747 q 92 751 99 742 q 93 768 86 760 q 135 806 106 781 q 172 828 160 828 q 203 806 188 828 q 213 791 207 799 q 224 774 218 783 q 233 758 231 764 q 226 735 243 743 q 204 742 213 731 q 192 759 200 747 q 182 775 185 771 q 172 789 174 788 q 169 793 172 789 q 168 792 169 792 q 154 781 168 792 q 140 771 153 779 q 108 747 118 754 z "},"":{"ha":494,"x_min":-71,"x_max":496,"o":"m 493 574 q 464 508 496 553 q 419 460 444 479 q 326 417 379 428 q 326 415 326 417 q 272 333 311 368 q 182 285 232 297 q 156 281 168 282 q 58 297 106 275 q -21 360 11 319 q -61 451 -53 401 q -51 551 -69 504 q -10 617 -37 588 q 67 671 22 650 q 154 696 121 697 q 285 629 228 693 q 332 544 319 592 q 336 531 335 538 q 340 475 342 503 q 336 451 339 464 q 399 489 372 465 q 436 533 421 508 q 450 557 444 544 q 465 585 463 582 q 483 588 474 592 q 493 574 493 583 m 278 404 q 281 406 279 404 q 257 413 279 407 q 142 475 194 426 q 78 585 90 524 q 44 493 43 544 q 57 440 46 464 q 89 399 68 415 q 138 375 110 382 q 211 374 172 367 q 278 404 250 382 m 297 444 q 303 475 303 444 q 301 511 303 506 q 244 618 293 574 q 224 633 233 628 q 164 635 204 643 q 133 624 149 631 q 111 613 111 614 q 124 565 113 589 q 196 480 149 514 q 297 444 243 446 m 88 746 q 80 735 86 739 q 67 735 74 732 q 61 746 61 738 q 88 798 61 779 q 144 804 114 817 q 171 785 154 800 q 199 765 188 769 q 219 779 214 761 q 222 790 221 783 q 224 800 222 796 q 229 808 226 804 q 240 813 233 814 q 251 806 247 811 q 253 776 257 793 q 240 749 250 760 q 186 736 219 722 q 159 755 175 740 q 135 774 143 769 q 104 772 119 781 q 88 746 89 764 z "},"":{"ha":494,"x_min":-71,"x_max":496,"o":"m 493 574 q 464 508 496 553 q 419 460 444 479 q 326 417 379 428 q 326 415 326 417 q 272 333 311 368 q 182 285 232 297 q 156 281 168 282 q 58 297 106 275 q -21 360 11 319 q -61 451 -53 401 q -51 551 -69 504 q -10 617 -37 588 q 67 671 22 650 q 154 696 121 697 q 285 629 228 693 q 332 544 319 592 q 336 531 335 538 q 340 475 342 503 q 336 451 339 464 q 399 489 372 465 q 436 533 421 508 q 450 557 444 544 q 465 585 463 582 q 483 588 474 592 q 493 574 493 583 m 278 404 q 281 406 279 404 q 257 413 279 407 q 142 475 194 426 q 78 585 90 524 q 44 493 43 544 q 57 440 46 464 q 89 399 68 415 q 138 375 110 382 q 211 374 172 367 q 278 404 250 382 m 297 444 q 303 475 303 444 q 301 511 303 506 q 244 618 293 574 q 224 633 233 628 q 164 635 204 643 q 133 624 149 631 q 111 613 111 614 q 124 565 113 589 q 196 480 149 514 q 297 444 243 446 m 129 759 q 126 755 129 759 q 114 748 124 750 q 95 751 104 746 q 83 767 86 757 q 86 782 82 774 q 99 792 90 790 q 104 797 100 796 q 123 796 114 803 q 133 776 132 789 q 129 759 135 768 m 211 759 q 208 755 211 759 q 196 748 206 750 q 177 751 186 746 q 165 767 168 757 q 168 782 164 774 q 181 792 172 790 q 186 797 182 796 q 206 796 196 803 q 215 776 215 789 q 211 759 217 768 z "},"":{"ha":543,"x_min":68,"x_max":478,"o":"m 432 654 q 463 640 449 651 q 471 613 478 629 q 460 598 468 604 q 443 589 453 592 q 423 585 433 586 q 404 585 413 583 q 121 589 275 606 q 75 611 93 586 q 69 630 69 618 q 81 643 69 642 q 432 654 240 678 m 296 522 q 313 497 313 510 q 301 478 313 485 q 300 478 301 478 q 278 463 289 468 q 283 465 281 465 q 279 464 282 465 q 275 461 276 463 q 236 471 258 451 q 222 500 218 485 q 222 502 222 501 q 222 503 222 503 l 222 503 q 225 511 222 507 q 232 519 226 513 q 236 525 233 522 q 235 525 235 525 q 240 529 236 526 q 247 533 244 531 q 247 532 257 538 l 249 532 q 264 533 257 533 q 296 522 281 532 m 233 738 q 218 756 222 744 q 222 776 214 767 q 251 803 244 799 q 307 797 276 817 q 324 779 319 789 q 321 757 329 769 q 294 738 319 754 q 290 736 293 738 q 285 732 285 732 q 233 738 263 717 z "},"":{"ha":494,"x_min":-71,"x_max":496,"o":"m 493 574 q 464 508 496 553 q 419 460 444 479 q 326 417 379 428 l 326 415 q 272 333 311 368 q 182 285 232 297 q 156 281 168 282 q 61 296 107 275 q -4 232 29 261 q -26 232 -15 221 q -26 254 -37 243 q 29 313 4 286 q -61 451 -46 365 q -51 551 -69 504 q -10 617 -37 588 q 67 671 22 650 q 154 696 121 697 q 267 647 214 693 q 297 710 283 679 q 308 717 301 717 q 320 710 315 717 q 321 696 325 704 q 288 626 306 661 q 332 544 319 590 q 336 531 335 538 q 340 475 342 503 q 336 451 339 464 q 399 489 372 465 q 436 533 421 508 q 450 557 444 544 q 465 585 463 582 q 483 588 474 592 q 493 574 493 583 m 133 624 q 111 613 111 614 q 124 565 113 589 q 176 496 143 525 q 249 614 215 554 q 244 618 246 617 q 224 633 233 628 q 164 635 204 643 q 133 624 149 631 m 44 493 q 99 392 47 425 q 154 464 129 429 q 78 585 92 517 q 44 493 43 544 m 278 404 q 281 406 279 404 q 257 413 279 407 q 181 446 218 421 q 131 378 156 410 q 138 375 135 376 q 211 374 172 367 q 278 404 250 382 m 297 444 q 303 475 303 444 q 301 511 303 506 q 269 590 296 553 q 201 476 238 531 q 297 444 247 446 z "},"":{"ha":465,"x_min":-69,"x_max":465,"o":"m 463 554 q 460 496 465 539 q 451 436 457 463 q 439 382 449 415 q 417 318 421 328 q 374 272 401 289 q 290 267 329 246 q 251 306 265 281 q 244 322 247 314 q 240 338 242 329 q 238 353 239 346 q 235 371 236 361 q 233 388 235 381 q 231 404 232 396 q 228 393 229 399 q 213 354 218 368 q 195 318 207 340 q 167 284 183 296 q 132 268 151 272 q 96 264 114 264 q 29 278 57 264 q -29 330 -4 296 q -62 403 -54 364 q -68 468 -68 435 q -60 542 -68 507 q -47 576 -54 560 q -40 592 -43 586 l -18 622 q -12 624 -19 624 q -1 625 -4 625 q 15 619 7 624 q 39 590 36 608 q 33 547 40 583 q 28 521 31 536 q 24 463 22 492 q 89 313 29 349 q 135 309 114 299 q 169 346 157 319 q 200 426 186 379 q 218 514 213 471 q 222 557 221 529 q 231 599 224 569 q 235 606 231 603 q 256 624 239 622 q 285 613 272 625 q 308 519 318 581 q 294 392 294 439 q 308 331 293 349 q 341 313 321 315 q 374 324 361 311 q 400 375 390 342 q 419 463 413 413 q 425 511 422 481 q 432 554 429 546 q 449 566 436 565 q 463 554 461 567 m 100 761 q 85 783 96 769 q 72 800 75 796 q 76 824 63 814 q 101 824 90 833 q 149 725 138 792 q 139 708 151 711 q 122 718 126 704 q 100 761 114 739 z "},"":{"ha":465,"x_min":-69,"x_max":465,"o":"m 463 554 q 460 496 465 539 q 451 436 457 463 q 439 382 449 415 q 417 318 421 328 q 374 272 401 289 q 290 267 329 246 q 251 306 265 281 q 243 326 246 315 q 239 346 240 338 q 236 367 238 354 q 233 388 235 379 q 231 404 232 396 q 228 393 229 399 q 217 363 221 374 q 203 333 213 351 q 185 303 194 314 q 162 281 176 292 q 132 268 147 271 q 96 264 114 264 q 29 278 57 264 q -12 310 7 290 q -44 353 -32 329 q -62 403 -57 376 q -68 468 -68 435 q -60 542 -68 507 q -47 576 -54 560 q -40 592 -43 586 l -18 622 q -12 624 -19 624 q -1 625 -4 625 q 15 619 7 624 q 39 592 36 608 q 33 547 40 583 q 28 521 31 536 q 24 463 22 492 q 89 313 29 349 q 135 309 114 299 q 169 346 157 319 q 200 426 186 379 q 218 514 213 471 q 222 557 221 529 q 231 599 224 569 q 235 606 231 603 q 256 624 239 622 q 285 613 272 625 q 308 519 318 581 q 294 392 294 439 q 308 331 293 349 q 341 313 321 315 q 374 324 361 311 q 400 375 390 342 q 419 463 413 413 q 425 511 422 479 q 432 554 429 546 q 449 566 436 565 q 463 554 461 567 m 133 706 q 112 699 125 692 q 104 722 99 707 q 138 774 117 751 q 189 817 165 806 q 217 810 204 824 q 215 782 229 796 q 192 765 208 776 q 168 746 176 753 q 133 706 146 724 z "},"":{"ha":465,"x_min":-69,"x_max":465,"o":"m 463 554 q 460 496 465 539 q 451 436 457 463 q 439 382 449 415 q 417 318 421 328 q 374 272 401 289 q 290 267 329 246 q 251 306 265 281 q 242 331 244 318 q 237 361 239 343 q 233 388 235 379 q 231 404 232 396 q 228 393 229 399 q 213 354 218 368 q 195 318 207 340 q 167 284 183 296 q 132 268 151 272 q 96 264 114 264 q 29 278 57 264 q -3 301 13 288 q -30 330 -18 314 q -50 365 -42 346 q -62 403 -58 383 q -68 468 -68 435 q -60 542 -68 507 q -47 576 -54 560 q -40 592 -43 586 l -18 622 q -12 624 -19 624 q -1 625 -4 625 q 15 619 7 624 q 39 592 36 608 q 33 547 40 583 q 28 521 31 536 q 24 463 22 492 q 89 313 29 349 q 135 309 114 299 q 169 346 157 319 q 200 426 186 379 q 218 514 213 471 q 222 557 221 529 q 231 599 224 569 q 235 606 231 603 q 256 624 239 622 q 285 613 272 625 q 308 519 318 581 q 294 392 294 439 q 308 331 293 349 q 341 313 321 315 q 374 324 361 311 q 400 375 390 342 q 419 463 413 413 q 425 513 422 479 q 432 554 429 546 q 449 566 436 565 q 463 554 461 567 m 93 710 q 77 713 83 704 q 78 731 71 722 q 119 768 90 743 q 157 790 144 790 q 186 768 172 790 q 192 761 189 765 q 197 753 194 757 q 203 744 200 749 q 208 737 206 740 q 213 729 210 733 q 218 721 215 725 q 219 704 224 713 q 205 696 214 696 q 189 704 196 696 q 167 738 185 710 q 158 751 158 750 q 154 756 157 751 q 153 754 154 756 q 139 743 153 754 q 125 733 138 743 q 93 710 103 717 z "},"":{"ha":465,"x_min":-69,"x_max":465,"o":"m 463 554 q 460 496 465 539 q 451 436 457 463 q 439 382 449 415 q 417 318 421 328 q 374 272 401 289 q 290 267 329 246 q 251 306 265 281 q 242 331 244 318 q 237 361 239 343 q 233 388 235 379 q 231 404 232 396 q 228 393 229 399 q 213 354 218 368 q 195 318 207 340 q 167 284 183 296 q 132 268 151 272 q 96 264 114 264 q 29 278 57 264 q -12 310 7 290 q -44 353 -32 329 q -62 403 -57 376 q -68 468 -68 435 q -60 542 -68 507 q -47 576 -54 560 q -40 592 -43 586 l -18 622 q -12 624 -19 624 q -1 625 -4 625 q 15 619 7 624 q 39 592 36 608 q 33 547 40 583 q 28 521 31 536 q 24 463 22 492 q 89 313 29 349 q 135 309 114 299 q 169 346 157 319 q 200 426 186 379 q 218 514 213 471 q 222 557 221 529 q 231 599 224 569 q 235 606 231 603 q 256 624 239 622 q 285 613 272 625 q 308 519 318 581 q 294 392 294 439 q 308 331 293 349 q 341 313 321 315 q 374 324 361 311 q 400 375 390 342 q 419 463 413 413 q 425 513 422 479 q 432 554 429 546 q 449 566 436 565 q 463 554 461 567 m 121 724 q 118 719 121 724 q 106 713 115 715 q 87 716 96 711 q 75 731 78 721 q 78 747 74 739 q 90 757 83 756 q 96 763 92 761 q 115 761 106 768 q 126 742 125 754 q 121 724 126 732 m 203 724 q 200 719 203 724 q 188 713 197 715 q 169 716 178 711 q 157 731 160 721 q 160 747 156 739 q 172 757 165 756 q 178 763 175 761 q 197 761 188 768 q 208 742 207 754 q 203 724 208 732 z "},"":{"ha":478,"x_min":-56,"x_max":481,"o":"m 447 517 q 467 522 454 528 q 476 504 481 517 q 388 346 454 432 q 292 254 340 285 q 276 244 285 250 q 274 228 274 232 q 267 190 271 208 q 169 49 243 88 q 114 35 146 36 q 52 47 82 33 q 14 86 22 60 q 44 163 0 128 q 136 215 71 183 q 203 249 147 222 q 219 361 217 325 q 220 374 219 367 q 222 388 221 381 q 222 400 222 394 q 194 331 221 378 q 115 260 165 279 q 11 272 64 242 q -44 360 -29 299 q -54 429 -53 390 q -49 501 -56 468 q -17 579 -36 557 q 20 579 -3 594 q 44 546 43 564 q 44 525 46 536 q 41 501 43 514 q 38 481 39 489 q 39 419 36 449 q 61 339 44 379 q 64 331 61 338 q 68 321 67 324 q 73 312 69 318 q 79 302 76 306 q 86 296 82 299 q 94 293 90 293 q 146 328 113 290 q 194 447 178 363 q 206 508 206 507 q 208 518 206 510 q 210 531 210 526 q 213 543 211 535 q 217 556 215 551 q 223 565 219 560 q 230 573 226 571 q 238 576 233 575 q 249 576 243 578 q 263 569 256 574 q 278 546 275 561 q 288 488 288 490 q 288 485 288 486 q 289 425 289 446 q 282 293 289 354 q 299 307 292 300 q 356 365 329 333 q 373 389 364 376 q 389 413 382 401 q 404 439 396 425 q 419 464 413 453 q 433 490 425 475 q 447 517 442 506 m 194 193 q 196 204 194 199 q 125 171 146 182 q 113 165 122 169 q 99 157 103 160 q 86 149 94 154 q 73 141 78 144 q 62 132 68 138 q 51 121 56 126 q 52 90 39 103 q 88 72 65 78 q 161 108 129 61 q 194 193 188 150 m 136 607 q 115 601 128 593 q 107 625 101 610 q 140 675 119 653 q 192 718 168 707 q 219 712 207 726 q 217 685 232 697 q 195 667 211 679 q 171 647 179 656 q 136 607 149 625 z "},"":{"ha":488,"x_min":-79,"x_max":490,"o":"m -47 839 q -65 919 -62 907 q -62 932 -68 928 q -49 935 -57 936 q -19 917 -31 935 q 24 817 10 871 q 49 700 40 760 q 58 626 53 676 q 63 586 61 606 q 63 579 63 585 q 65 569 64 574 q 65 558 65 564 q 64 551 65 553 q 192 654 113 624 q 325 649 275 688 q 360 583 354 625 q 353 508 367 542 q 311 425 340 465 q 340 429 328 426 q 411 458 389 440 q 456 515 431 474 q 477 521 464 526 q 486 503 490 515 q 450 442 475 468 q 390 406 425 417 q 315 388 346 390 q 279 388 303 388 q 271 378 275 382 q 164 303 207 317 q 108 306 135 293 q 78 350 81 319 q 91 391 76 375 q 125 413 106 407 q 168 419 144 418 q 197 422 182 421 q 229 423 211 422 q 257 424 247 424 q 264 425 260 424 q 279 443 268 425 q 303 505 300 472 q 290 569 307 538 q 244 601 275 593 q 186 600 213 608 q 79 521 115 581 q 65 494 65 497 q 61 381 65 439 q 1 107 46 210 q -25 94 -4 94 q -62 103 -46 93 q -76 128 -79 114 q -58 195 -71 151 q -40 258 -44 239 q -14 394 -22 331 q -7 622 3 518 q -32 772 -15 703 q -47 839 -39 799 m 167 344 q 225 385 194 358 q 160 382 174 382 q 117 363 124 379 q 126 338 110 346 q 167 344 140 331 z "},"":{"ha":478,"x_min":-56,"x_max":481,"o":"m 426 478 q 433 491 426 478 q 447 516 440 504 q 467 522 454 528 q 476 504 481 517 q 388 346 454 432 q 292 254 340 285 q 276 244 285 250 q 274 228 274 232 q 267 190 271 208 q 231 106 256 144 q 169 49 207 68 q 114 35 146 36 q 52 47 82 33 q 14 86 22 60 q 44 163 0 128 q 136 215 71 183 q 203 249 147 222 q 219 361 217 325 q 221 380 219 367 q 222 400 222 393 q 194 331 221 378 q 115 260 165 279 q 11 272 64 242 q -44 360 -29 299 q -54 429 -53 390 q -49 501 -56 468 q -17 579 -36 557 q 20 579 -3 594 q 44 546 43 564 q 42 510 46 533 q 38 481 39 486 q 39 419 36 449 q 61 339 44 379 q 64 331 61 338 q 68 321 67 324 q 73 312 69 318 q 79 302 76 306 q 86 296 82 299 q 94 293 90 293 q 146 328 113 290 q 194 447 178 363 q 206 508 206 507 q 208 518 206 510 q 210 531 210 526 q 213 543 211 535 q 217 556 215 551 q 223 565 219 560 q 230 573 226 571 q 238 576 233 575 q 249 576 243 578 q 263 569 256 574 q 278 546 275 561 q 288 488 288 490 q 288 485 288 488 q 289 425 289 446 q 282 293 289 354 q 299 307 292 300 q 356 365 329 333 q 382 403 368 382 q 404 438 396 424 q 426 478 413 453 m 194 193 q 196 204 194 197 q 125 171 146 182 q 115 165 122 169 q 103 159 107 161 q 92 153 99 157 q 80 146 85 149 q 69 139 75 143 q 60 130 64 135 q 51 121 56 125 q 52 90 39 103 q 88 72 65 78 q 161 108 129 61 q 194 193 188 150 m 88 676 q 69 678 78 674 q 57 693 60 683 q 58 704 56 699 q 63 714 60 710 q 72 719 67 718 q 76 725 74 724 q 97 724 88 731 q 107 704 106 717 q 106 692 108 699 q 98 682 103 686 q 88 676 93 678 m 169 676 q 151 678 160 674 q 139 693 142 683 q 142 710 138 701 q 154 719 146 718 q 160 725 156 724 q 169 727 164 728 q 179 723 175 726 q 186 715 183 719 q 189 704 189 710 q 188 692 190 699 q 181 682 186 686 q 169 676 175 678 z "},"":{"ha":104,"x_min":-51,"x_max":106,"o":"m 101 700 q 103 540 106 608 q 75 274 99 404 q 64 207 68 232 q 61 198 63 206 q 59 188 60 190 q 57 181 58 186 q 53 172 56 175 q 48 166 51 169 q 42 160 44 163 q 3 151 25 150 q -33 163 -18 151 q -44 207 -50 175 q -42 224 -44 213 q -39 240 -39 235 q -28 301 -33 271 q 4 581 -6 450 q 11 724 11 675 q 14 871 14 871 q 28 888 13 885 q 51 888 43 892 q 88 850 85 878 q 101 700 101 718 z "},"":{"ha":818,"x_min":67,"x_max":824,"o":"m 815 550 q 781 422 822 485 q 678 325 740 360 q 458 285 586 275 q 354 184 426 214 q 199 163 282 154 q 94 199 128 169 q 70 246 74 218 q 83 297 67 274 q 179 353 115 340 q 332 338 232 364 q 374 328 354 332 q 410 488 397 393 q 269 464 342 467 q 260 468 263 463 q 260 479 257 474 q 269 485 263 485 q 414 514 343 489 q 418 555 415 532 q 424 601 421 578 q 428 642 426 624 q 439 715 433 686 q 263 779 343 721 q 149 929 183 838 q 151 943 146 938 q 165 947 157 949 q 176 938 174 944 q 310 782 214 838 q 444 744 371 747 q 449 760 444 744 q 459 794 454 776 q 464 814 464 811 q 493 881 476 850 q 590 982 533 954 q 692 983 642 1007 q 738 910 739 961 q 686 810 738 861 q 531 724 622 746 q 517 592 525 683 q 515 576 517 586 q 514 560 514 565 q 563 593 539 575 q 606 629 579 604 q 643 661 633 654 q 659 662 650 668 q 661 647 668 656 q 581 572 638 614 q 511 529 547 549 q 469 314 499 392 q 646 342 569 306 q 748 426 710 371 q 792 550 786 482 q 803 563 792 563 q 815 550 814 563 m 542 790 q 540 780 542 789 q 538 763 539 771 q 535 756 536 756 q 660 824 607 775 q 710 910 710 869 q 703 939 711 925 q 679 960 694 953 q 663 963 672 963 q 614 947 638 963 q 578 896 596 935 q 551 826 563 864 q 542 790 546 808 m 256 210 q 363 301 333 236 q 331 310 358 303 q 294 319 303 318 q 262 326 286 321 q 226 330 238 331 q 194 328 214 329 q 160 320 175 326 q 131 304 144 314 q 99 265 106 288 q 113 218 92 242 q 213 199 144 189 q 256 210 235 203 m 326 254 z "}}}
